G04 Layer_Physical_Order=1*
G04 Layer_Color=255*
%FSLAX25Y25*%
%MOIN*%
G70*
G01*
G75*
%ADD10R,0.03543X0.03937*%
%ADD11O,0.08071X0.02362*%
%ADD12R,0.04724X0.05512*%
%ADD13R,0.05512X0.04724*%
%ADD14R,0.07087X0.05118*%
%ADD15R,0.05906X0.05118*%
%ADD16R,0.02362X0.04528*%
%ADD17R,0.05118X0.02362*%
%ADD18R,0.07087X0.05906*%
G04:AMPARAMS|DCode=19|XSize=59.06mil|YSize=70.87mil|CornerRadius=0mil|HoleSize=0mil|Usage=FLASHONLY|Rotation=126.000|XOffset=0mil|YOffset=0mil|HoleType=Round|Shape=Rectangle|*
%AMROTATEDRECTD19*
4,1,4,0.04602,-0.00306,-0.01131,-0.04472,-0.04602,0.00306,0.01131,0.04472,0.04602,-0.00306,0.0*
%
%ADD19ROTATEDRECTD19*%

G04:AMPARAMS|DCode=20|XSize=59.06mil|YSize=70.87mil|CornerRadius=0mil|HoleSize=0mil|Usage=FLASHONLY|Rotation=162.000|XOffset=0mil|YOffset=0mil|HoleType=Round|Shape=Rectangle|*
%AMROTATEDRECTD20*
4,1,4,0.03903,0.02457,0.01713,-0.04282,-0.03903,-0.02457,-0.01713,0.04282,0.03903,0.02457,0.0*
%
%ADD20ROTATEDRECTD20*%

G04:AMPARAMS|DCode=21|XSize=59.06mil|YSize=70.87mil|CornerRadius=0mil|HoleSize=0mil|Usage=FLASHONLY|Rotation=198.000|XOffset=0mil|YOffset=0mil|HoleType=Round|Shape=Rectangle|*
%AMROTATEDRECTD21*
4,1,4,0.01713,0.04282,0.03903,-0.02457,-0.01713,-0.04282,-0.03903,0.02457,0.01713,0.04282,0.0*
%
%ADD21ROTATEDRECTD21*%

G04:AMPARAMS|DCode=22|XSize=59.06mil|YSize=70.87mil|CornerRadius=0mil|HoleSize=0mil|Usage=FLASHONLY|Rotation=234.000|XOffset=0mil|YOffset=0mil|HoleType=Round|Shape=Rectangle|*
%AMROTATEDRECTD22*
4,1,4,-0.01131,0.04472,0.04602,0.00306,0.01131,-0.04472,-0.04602,-0.00306,-0.01131,0.04472,0.0*
%
%ADD22ROTATEDRECTD22*%

G04:AMPARAMS|DCode=23|XSize=59.06mil|YSize=51.18mil|CornerRadius=0mil|HoleSize=0mil|Usage=FLASHONLY|Rotation=216.000|XOffset=0mil|YOffset=0mil|HoleType=Round|Shape=Rectangle|*
%AMROTATEDRECTD23*
4,1,4,0.00885,0.03806,0.03893,-0.00335,-0.00885,-0.03806,-0.03893,0.00335,0.00885,0.03806,0.0*
%
%ADD23ROTATEDRECTD23*%

G04:AMPARAMS|DCode=24|XSize=59.06mil|YSize=51.18mil|CornerRadius=0mil|HoleSize=0mil|Usage=FLASHONLY|Rotation=252.000|XOffset=0mil|YOffset=0mil|HoleType=Round|Shape=Rectangle|*
%AMROTATEDRECTD24*
4,1,4,-0.01521,0.03599,0.03346,0.02017,0.01521,-0.03599,-0.03346,-0.02017,-0.01521,0.03599,0.0*
%
%ADD24ROTATEDRECTD24*%

G04:AMPARAMS|DCode=25|XSize=59.06mil|YSize=51.18mil|CornerRadius=0mil|HoleSize=0mil|Usage=FLASHONLY|Rotation=288.000|XOffset=0mil|YOffset=0mil|HoleType=Round|Shape=Rectangle|*
%AMROTATEDRECTD25*
4,1,4,-0.03346,0.02017,0.01521,0.03599,0.03346,-0.02017,-0.01521,-0.03599,-0.03346,0.02017,0.0*
%
%ADD25ROTATEDRECTD25*%

G04:AMPARAMS|DCode=26|XSize=59.06mil|YSize=51.18mil|CornerRadius=0mil|HoleSize=0mil|Usage=FLASHONLY|Rotation=324.000|XOffset=0mil|YOffset=0mil|HoleType=Round|Shape=Rectangle|*
%AMROTATEDRECTD26*
4,1,4,-0.03893,-0.00335,-0.00885,0.03806,0.03893,0.00335,0.00885,-0.03806,-0.03893,-0.00335,0.0*
%
%ADD26ROTATEDRECTD26*%

%ADD27R,0.05118X0.07087*%
%ADD28R,0.04724X0.02362*%
%ADD29R,0.09449X0.12992*%
%ADD30R,0.07900X0.08661*%
%ADD31C,0.01000*%
%ADD32C,0.02000*%
%ADD33C,0.01500*%
%ADD34C,0.02500*%
%ADD35R,0.05906X0.05906*%
%ADD36C,0.05906*%
%ADD37C,0.15748*%
%ADD38C,0.09646*%
%ADD39C,0.06200*%
%ADD40R,0.06200X0.06200*%
%ADD41C,0.11500*%
%ADD42C,0.06900*%
%ADD43R,0.06900X0.06900*%
%ADD44C,0.09449*%
%ADD45C,0.03200*%
%ADD46C,0.05000*%
G36*
X8040Y163656D02*
X16060Y163065D01*
X24042Y162080D01*
X31966Y160705D01*
X39813Y158943D01*
X47564Y156798D01*
X55201Y154276D01*
X62704Y151381D01*
X70056Y148122D01*
X77240Y144506D01*
X84238Y140542D01*
X91032Y136239D01*
X97607Y131608D01*
X103948Y126661D01*
X110037Y121408D01*
X115862Y115862D01*
X121408Y110037D01*
X126661Y103948D01*
X131608Y97607D01*
X136239Y91032D01*
X140542Y84238D01*
X144506Y77240D01*
X148122Y70056D01*
X151381Y62704D01*
X154276Y55201D01*
X156798Y47564D01*
X158943Y39813D01*
X160705Y31966D01*
X162080Y24042D01*
X163065Y16060D01*
X163656Y8040D01*
X163854Y0D01*
X163656Y-8040D01*
X163065Y-16060D01*
X162080Y-24042D01*
X160705Y-31966D01*
X158943Y-39813D01*
X156798Y-47564D01*
X154276Y-55201D01*
X151381Y-62704D01*
X148122Y-70056D01*
X144506Y-77240D01*
X140542Y-84238D01*
X136239Y-91032D01*
X131608Y-97607D01*
X126661Y-103948D01*
X121408Y-110037D01*
X115862Y-115862D01*
X110037Y-121408D01*
X103948Y-126661D01*
X97607Y-131608D01*
X91032Y-136239D01*
X84238Y-140542D01*
X77240Y-144506D01*
X70056Y-148122D01*
X62704Y-151381D01*
X55201Y-154276D01*
X49009Y-156321D01*
X48747Y-155895D01*
X48768Y-155875D01*
X49862Y-154237D01*
X50616Y-152417D01*
X51000Y-150485D01*
Y-148515D01*
X50616Y-146583D01*
X49862Y-144763D01*
X48768Y-143125D01*
X47375Y-141733D01*
X45737Y-140638D01*
X43917Y-139884D01*
X41985Y-139500D01*
X41000Y-139500D01*
X40015Y-139500D01*
X38083Y-139884D01*
X36263Y-140638D01*
X34625Y-141733D01*
X33233Y-143125D01*
X32138Y-144763D01*
X31384Y-146583D01*
X31000Y-148515D01*
X31000Y-149500D01*
X31000Y-150485D01*
X31384Y-152417D01*
X32138Y-154237D01*
X33233Y-155875D01*
X34625Y-157267D01*
X36263Y-158362D01*
X37619Y-158923D01*
X37574Y-159446D01*
X31966Y-160705D01*
X24042Y-162080D01*
X16060Y-163065D01*
X8040Y-163656D01*
X0Y-163854D01*
X-8040Y-163656D01*
X-16060Y-163065D01*
X-24042Y-162080D01*
X-31966Y-160705D01*
X-37574Y-159446D01*
X-37619Y-158923D01*
X-36263Y-158362D01*
X-34625Y-157267D01*
X-33233Y-155875D01*
X-32138Y-154237D01*
X-31384Y-152417D01*
X-31000Y-150485D01*
Y-148515D01*
X-31384Y-146583D01*
X-32138Y-144763D01*
X-33233Y-143125D01*
X-34625Y-141733D01*
X-36263Y-140638D01*
X-38083Y-139884D01*
X-40015Y-139500D01*
X-41000Y-139500D01*
X-41985Y-139500D01*
X-43917Y-139884D01*
X-45737Y-140638D01*
X-47375Y-141733D01*
X-48768Y-143125D01*
X-49862Y-144763D01*
X-50616Y-146583D01*
X-51000Y-148515D01*
X-51000Y-149500D01*
X-51000Y-150485D01*
X-50616Y-152417D01*
X-49862Y-154237D01*
X-48768Y-155875D01*
X-48747Y-155895D01*
X-49009Y-156321D01*
X-55201Y-154276D01*
X-62704Y-151381D01*
X-70056Y-148122D01*
X-77240Y-144506D01*
X-84238Y-140542D01*
X-91032Y-136239D01*
X-97607Y-131608D01*
X-103948Y-126661D01*
X-110037Y-121408D01*
X-115862Y-115862D01*
X-121408Y-110037D01*
X-126661Y-103948D01*
X-131608Y-97607D01*
X-136239Y-91032D01*
X-140542Y-84238D01*
X-144506Y-77240D01*
X-148122Y-70056D01*
X-151381Y-62704D01*
X-154276Y-55201D01*
X-156798Y-47564D01*
X-158943Y-39813D01*
X-160705Y-31966D01*
X-162080Y-24042D01*
X-163065Y-16060D01*
X-163656Y-8040D01*
X-163854Y0D01*
X-163656Y8040D01*
X-163065Y16060D01*
X-162080Y24042D01*
X-160705Y31966D01*
X-158943Y39813D01*
X-156798Y47564D01*
X-154276Y55201D01*
X-151381Y62704D01*
X-148122Y70056D01*
X-144506Y77240D01*
X-140542Y84238D01*
X-136239Y91032D01*
X-131608Y97607D01*
X-126661Y103948D01*
X-121408Y110037D01*
X-115862Y115862D01*
X-110037Y121408D01*
X-103948Y126661D01*
X-97607Y131608D01*
X-91032Y136239D01*
X-84238Y140542D01*
X-77240Y144506D01*
X-70056Y148122D01*
X-62704Y151381D01*
X-55201Y154276D01*
X-47564Y156798D01*
X-39813Y158943D01*
X-31966Y160705D01*
X-24042Y162080D01*
X-16060Y163065D01*
X-8040Y163656D01*
X0Y163854D01*
X8040Y163656D01*
D02*
G37*
%LPC*%
G36*
X-1756Y147098D02*
X-10842D01*
Y145456D01*
X-11343Y145286D01*
X-11504Y145496D01*
X-12235Y146057D01*
X-13086Y146410D01*
X-14000Y146530D01*
X-14914Y146410D01*
X-15765Y146057D01*
X-16496Y145496D01*
X-17057Y144765D01*
X-17410Y143914D01*
X-17530Y143000D01*
X-17410Y142086D01*
X-17057Y141235D01*
X-16496Y140504D01*
X-15765Y139943D01*
X-14914Y139590D01*
X-14000Y139470D01*
X-13086Y139590D01*
X-12235Y139943D01*
X-11504Y140504D01*
X-11343Y140714D01*
X-10842Y140544D01*
Y139193D01*
X-1756D01*
Y147098D01*
D02*
G37*
G36*
X10842Y147098D02*
X6799D01*
Y143646D01*
X10842D01*
Y147098D01*
D02*
G37*
G36*
X5799D02*
X1756D01*
Y143646D01*
X5799D01*
Y147098D01*
D02*
G37*
G36*
X21453Y146405D02*
X18000D01*
Y143347D01*
X21453D01*
Y146405D01*
D02*
G37*
G36*
X17000D02*
X13547D01*
Y143347D01*
X17000D01*
Y146405D01*
D02*
G37*
G36*
X10842Y142646D02*
X6799D01*
Y139193D01*
X10842D01*
Y142646D01*
D02*
G37*
G36*
X5799D02*
X1756D01*
Y139193D01*
X5799D01*
Y142646D01*
D02*
G37*
G36*
X21453Y142347D02*
X13547D01*
Y139713D01*
X13547D01*
Y134208D01*
X13177Y133873D01*
X9924Y134193D01*
X9898Y134190D01*
X9874Y134197D01*
X3327Y134518D01*
X3302Y134514D01*
X3277Y134519D01*
X-0Y134519D01*
X-3277Y134519D01*
X-3302Y134514D01*
X-3327Y134518D01*
X-9874Y134197D01*
X-9899Y134190D01*
X-9924Y134193D01*
X-16447Y133551D01*
X-16471Y133543D01*
X-16496Y133544D01*
X-22980Y132583D01*
X-23004Y132574D01*
X-23029D01*
X-29458Y131296D01*
X-29481Y131286D01*
X-29507Y131284D01*
X-35865Y129692D01*
X-35888Y129681D01*
X-35913Y129679D01*
X-42185Y127776D01*
X-42208Y127764D01*
X-42233Y127760D01*
X-48404Y125552D01*
X-48426Y125539D01*
X-48451Y125534D01*
X-52106Y124020D01*
X-52437Y123799D01*
X-52658Y123468D01*
X-52735Y123078D01*
Y101100D01*
X-52812Y100715D01*
X-53030Y100388D01*
X-54443Y98975D01*
X-54942Y99008D01*
X-55181Y99319D01*
X-55492Y99558D01*
X-55525Y100057D01*
X-54563Y101018D01*
X-54342Y101349D01*
X-54265Y101739D01*
Y121064D01*
X-54287Y121175D01*
X-54290Y121287D01*
X-54325Y121368D01*
X-54342Y121454D01*
X-54405Y121548D01*
X-54451Y121651D01*
X-54514Y121712D01*
X-54563Y121785D01*
X-54657Y121848D01*
X-54739Y121925D01*
X-55161Y122193D01*
X-55266Y122234D01*
X-55363Y122292D01*
X-55450Y122304D01*
X-55532Y122336D01*
X-55645Y122333D01*
X-55757Y122350D01*
X-55842Y122329D01*
X-55930Y122326D01*
X-56033Y122281D01*
X-56143Y122253D01*
X-57097Y121802D01*
X-57359Y122231D01*
X-57004Y122504D01*
X-56443Y123235D01*
X-56090Y124086D01*
X-55970Y125000D01*
X-56090Y125914D01*
X-56443Y126765D01*
X-57004Y127496D01*
X-57735Y128057D01*
X-58586Y128410D01*
X-59500Y128530D01*
X-60414Y128410D01*
X-61265Y128057D01*
X-61996Y127496D01*
X-62557Y126765D01*
X-62910Y125914D01*
X-63030Y125000D01*
X-62952Y124408D01*
X-63557Y123976D01*
X-64516Y125295D01*
X-64515Y125295D01*
X-66313Y127770D01*
X-69511Y125447D01*
X-72709Y123124D01*
X-71161Y120993D01*
X-71161Y120993D01*
X-67931Y116546D01*
X-68031Y116057D01*
X-71968Y113697D01*
X-71987Y113680D01*
X-72010Y113670D01*
X-77460Y110028D01*
X-77478Y110010D01*
X-77501Y110000D01*
X-82766Y106095D01*
X-82783Y106076D01*
X-82805Y106064D01*
X-87872Y101906D01*
X-87888Y101886D01*
X-87910Y101873D01*
X-92766Y97472D01*
X-92782Y97451D01*
X-92803Y97437D01*
X-97437Y92803D01*
X-97451Y92781D01*
X-97472Y92766D01*
X-101874Y87910D01*
X-101877Y87903D01*
X-102050Y87861D01*
X-102424Y87917D01*
X-102866Y88984D01*
X-103751Y90516D01*
X-104828Y91920D01*
X-106080Y93172D01*
X-107484Y94249D01*
X-109016Y95134D01*
X-110651Y95811D01*
X-112361Y96269D01*
X-114115Y96500D01*
X-115000Y96500D01*
X-115885Y96500D01*
X-117639Y96269D01*
X-119349Y95811D01*
X-120984Y95134D01*
X-122516Y94249D01*
X-123920Y93172D01*
X-125172Y91920D01*
X-126249Y90516D01*
X-127134Y88984D01*
X-127811Y87349D01*
X-128269Y85639D01*
X-128500Y83885D01*
X-128500Y83000D01*
X-128500Y82115D01*
X-128269Y80361D01*
X-127811Y78651D01*
X-127134Y77016D01*
X-126249Y75484D01*
X-125172Y74080D01*
X-123920Y72828D01*
X-122516Y71751D01*
X-120984Y70866D01*
X-119349Y70189D01*
X-117639Y69731D01*
X-115885Y69500D01*
X-115683D01*
X-115437Y69065D01*
X-117066Y66346D01*
X-117075Y66322D01*
X-117091Y66302D01*
X-119687Y61445D01*
X-125841Y63445D01*
Y63445D01*
X-128750Y64390D01*
X-129972Y60631D01*
X-131193Y56872D01*
X-128688Y56058D01*
Y56058D01*
X-123482Y54366D01*
X-123272Y53912D01*
X-125534Y48451D01*
X-125539Y48426D01*
X-125552Y48404D01*
X-127760Y42233D01*
X-127764Y42208D01*
X-127776Y42185D01*
X-129679Y35913D01*
X-129681Y35888D01*
X-129692Y35865D01*
X-131285Y29507D01*
X-131286Y29481D01*
X-131296Y29458D01*
X-132574Y23029D01*
Y23004D01*
X-132583Y22980D01*
X-133545Y16496D01*
X-133543Y16471D01*
X-133551Y16447D01*
X-134193Y9924D01*
X-134191Y9899D01*
X-134197Y9874D01*
X-134518Y3327D01*
X-134515Y3302D01*
X-134520Y3277D01*
X-134520Y0D01*
X-134520Y-3277D01*
X-134515Y-3302D01*
X-134518Y-3327D01*
X-134288Y-8021D01*
X-134246Y-8190D01*
X-134211Y-8361D01*
X-134197Y-8382D01*
X-134191Y-8406D01*
X-134087Y-8547D01*
X-133990Y-8692D01*
X-133969Y-8706D01*
X-133954Y-8726D01*
X-133805Y-8816D01*
X-133660Y-8913D01*
X-133635Y-8918D01*
X-133613Y-8931D01*
X-133440Y-8956D01*
X-133270Y-8990D01*
X-105600D01*
X-105313Y-9048D01*
X-105069Y-9211D01*
X-100467Y-13812D01*
X-100458Y-13818D01*
X-100393Y-14352D01*
X-100572Y-14555D01*
X-101143Y-14578D01*
X-105412Y-10308D01*
X-105743Y-10087D01*
X-106133Y-10010D01*
X-132687D01*
X-132712Y-10015D01*
X-132737Y-10011D01*
X-132906Y-10053D01*
X-133078Y-10087D01*
X-133099Y-10102D01*
X-133123Y-10108D01*
X-133263Y-10211D01*
X-133408Y-10308D01*
X-133423Y-10330D01*
X-133443Y-10345D01*
X-133779Y-10715D01*
X-133792Y-10737D01*
X-133811Y-10753D01*
X-133894Y-10907D01*
X-133983Y-11056D01*
X-133987Y-11082D01*
X-133999Y-11104D01*
X-134016Y-11277D01*
X-134042Y-11450D01*
X-134035Y-11474D01*
X-134038Y-11500D01*
X-133551Y-16447D01*
X-133543Y-16471D01*
X-133545Y-16496D01*
X-132931Y-20635D01*
X-139100Y-22639D01*
Y-22639D01*
X-142009Y-23585D01*
X-140787Y-27344D01*
X-139566Y-31103D01*
X-137061Y-30289D01*
Y-30289D01*
X-131848Y-28596D01*
X-131417Y-28848D01*
X-131296Y-29458D01*
X-131286Y-29481D01*
X-131285Y-29507D01*
X-129692Y-35865D01*
X-129681Y-35888D01*
X-129679Y-35913D01*
X-127776Y-42185D01*
X-127764Y-42208D01*
X-127760Y-42233D01*
X-125552Y-48404D01*
X-125539Y-48426D01*
X-125534Y-48451D01*
X-123026Y-54506D01*
X-123012Y-54527D01*
X-123006Y-54552D01*
X-120203Y-60477D01*
X-120188Y-60498D01*
X-120181Y-60522D01*
X-117091Y-66303D01*
X-117075Y-66322D01*
X-117066Y-66346D01*
X-115437Y-69065D01*
X-115683Y-69500D01*
X-115885D01*
X-117639Y-69731D01*
X-119349Y-70189D01*
X-120984Y-70866D01*
X-122516Y-71751D01*
X-123920Y-72828D01*
X-125172Y-74080D01*
X-126249Y-75484D01*
X-127134Y-77016D01*
X-127811Y-78651D01*
X-128269Y-80361D01*
X-128500Y-82115D01*
X-128500Y-83000D01*
X-128500Y-83885D01*
X-128269Y-85639D01*
X-127811Y-87349D01*
X-127134Y-88984D01*
X-126249Y-90516D01*
X-125172Y-91920D01*
X-123920Y-93172D01*
X-122516Y-94249D01*
X-120984Y-95134D01*
X-119349Y-95811D01*
X-117639Y-96269D01*
X-115885Y-96500D01*
X-115000Y-96500D01*
X-114115D01*
X-112361Y-96269D01*
X-110651Y-95811D01*
X-109016Y-95134D01*
X-107484Y-94249D01*
X-106080Y-93172D01*
X-104828Y-91920D01*
X-103751Y-90516D01*
X-102866Y-88984D01*
X-102424Y-87917D01*
X-102050Y-87861D01*
X-101877Y-87903D01*
X-101874Y-87910D01*
X-97472Y-92766D01*
X-97451Y-92781D01*
X-97437Y-92803D01*
X-95413Y-94827D01*
X-99227Y-100076D01*
X-99227Y-100076D01*
X-101025Y-102551D01*
X-97827Y-104875D01*
X-94629Y-107198D01*
X-93081Y-105067D01*
X-93081Y-105067D01*
X-89849Y-100618D01*
X-89351Y-100567D01*
X-87910Y-101874D01*
X-87888Y-101886D01*
X-87872Y-101906D01*
X-82805Y-106064D01*
X-82783Y-106076D01*
X-82766Y-106095D01*
X-77501Y-110000D01*
X-77478Y-110010D01*
X-77460Y-110028D01*
X-72010Y-113670D01*
X-71987Y-113680D01*
X-71968Y-113697D01*
X-66346Y-117066D01*
X-66322Y-117075D01*
X-66303Y-117091D01*
X-63113Y-118796D01*
X-51830Y-134593D01*
X-51768Y-134651D01*
X-51721Y-134721D01*
X-51624Y-134785D01*
X-51540Y-134865D01*
X-51461Y-134895D01*
X-51390Y-134942D01*
X-51276Y-134965D01*
X-51168Y-135006D01*
X-51083Y-135003D01*
X-51000Y-135020D01*
X-49187D01*
X-48887Y-135744D01*
X-48174Y-136674D01*
X-47244Y-137387D01*
X-46162Y-137836D01*
X-45000Y-137988D01*
X-43838Y-137836D01*
X-42756Y-137387D01*
X-41826Y-136674D01*
X-41113Y-135744D01*
X-40813Y-135020D01*
X-39000D01*
X-38818Y-134983D01*
X-38635Y-134952D01*
X-34419Y-133335D01*
X-34408Y-133328D01*
X-34394Y-133325D01*
X-34240Y-133222D01*
X-34083Y-133123D01*
X-34075Y-133112D01*
X-34063Y-133104D01*
X-33960Y-132950D01*
X-33853Y-132798D01*
X-33850Y-132785D01*
X-33842Y-132773D01*
X-33806Y-132591D01*
X-33765Y-132410D01*
X-33767Y-132397D01*
X-33765Y-132383D01*
Y-127407D01*
Y-121949D01*
X-33500D01*
Y-118587D01*
X-32500D01*
Y-121949D01*
X-32235D01*
Y-129805D01*
X-32221Y-129880D01*
X-32224Y-129955D01*
X-32182Y-130073D01*
X-32158Y-130196D01*
X-32116Y-130258D01*
X-32090Y-130330D01*
X-32006Y-130422D01*
X-31937Y-130526D01*
X-31874Y-130568D01*
X-31823Y-130624D01*
X-31710Y-130678D01*
X-31606Y-130747D01*
X-31532Y-130762D01*
X-31464Y-130795D01*
X-29507Y-131285D01*
X-29481Y-131286D01*
X-29458Y-131296D01*
X-23029Y-132574D01*
X-23004D01*
X-22980Y-132583D01*
X-21453Y-132809D01*
Y-134624D01*
X-24243D01*
X-24492Y-134299D01*
X-25035Y-133882D01*
X-25668Y-133621D01*
X-26346Y-133531D01*
X-27025Y-133621D01*
X-27658Y-133882D01*
X-28201Y-134299D01*
X-28618Y-134842D01*
X-28879Y-135475D01*
X-28969Y-136153D01*
X-28879Y-136832D01*
X-28618Y-137465D01*
X-28201Y-138008D01*
X-27658Y-138425D01*
X-27025Y-138687D01*
X-26346Y-138776D01*
X-25668Y-138687D01*
X-25035Y-138425D01*
X-24492Y-138008D01*
X-24243Y-137683D01*
X-21453D01*
Y-139713D01*
Y-142347D01*
X-17500D01*
X-13547D01*
Y-139713D01*
Y-134209D01*
X-13177Y-133873D01*
X-9924Y-134193D01*
X-9899Y-134191D01*
X-9874Y-134197D01*
X-3327Y-134518D01*
X-3302Y-134515D01*
X-3277Y-134520D01*
X0Y-134520D01*
X3277Y-134520D01*
X3302Y-134515D01*
X3327Y-134518D01*
X9874Y-134197D01*
X9899Y-134191D01*
X9924Y-134193D01*
X12436Y-133946D01*
X12467Y-134179D01*
X12729Y-134811D01*
X13146Y-135354D01*
X13689Y-135771D01*
X14321Y-136033D01*
X15000Y-136122D01*
X15679Y-136033D01*
X16311Y-135771D01*
X16613Y-135539D01*
X17524D01*
Y-138043D01*
X24642D01*
Y-132825D01*
X26442Y-131025D01*
X26884Y-130363D01*
X27039Y-129583D01*
Y-125921D01*
X33480D01*
X33706Y-126328D01*
Y-128050D01*
X32799Y-128957D01*
X28941D01*
Y-138043D01*
X36059D01*
Y-135794D01*
X41151D01*
X41826Y-136674D01*
X42756Y-137387D01*
X43838Y-137836D01*
X45000Y-137988D01*
X46162Y-137836D01*
X47244Y-137387D01*
X48174Y-136674D01*
X48887Y-135744D01*
X49336Y-134662D01*
X49488Y-133500D01*
X49336Y-132338D01*
X48887Y-131256D01*
X48174Y-130326D01*
X47244Y-129613D01*
X46162Y-129165D01*
X45000Y-129012D01*
X43838Y-129165D01*
X42756Y-129613D01*
X41826Y-130326D01*
X41151Y-131206D01*
X37692D01*
X37500Y-130744D01*
X37622Y-130622D01*
X38120Y-129878D01*
X38252Y-129211D01*
X38293Y-129116D01*
X38513Y-128874D01*
X38794Y-128775D01*
X38845Y-128778D01*
X38916Y-128752D01*
X38992Y-128745D01*
X40846Y-128182D01*
X40891Y-128158D01*
X40940Y-128149D01*
X41065Y-128066D01*
X41197Y-127995D01*
X41229Y-127956D01*
X41238Y-127950D01*
X49450D01*
Y-125296D01*
X49533Y-125124D01*
X49866Y-124864D01*
X49964Y-124845D01*
X50065D01*
X50157Y-124806D01*
X50256Y-124787D01*
X54506Y-123026D01*
X54527Y-123012D01*
X54552Y-123006D01*
X60477Y-120203D01*
X60932Y-120363D01*
X64236Y-124911D01*
X64515Y-125295D01*
X66313Y-127770D01*
X69511Y-125447D01*
X72709Y-123124D01*
X71440Y-121377D01*
X71161Y-120993D01*
X70882Y-120608D01*
X67931Y-116547D01*
X68031Y-116057D01*
X71968Y-113697D01*
X71987Y-113680D01*
X72010Y-113670D01*
X77460Y-110029D01*
X77478Y-110011D01*
X77501Y-110000D01*
X82766Y-106095D01*
X82783Y-106076D01*
X82805Y-106064D01*
X87872Y-101906D01*
X87888Y-101887D01*
X87910Y-101874D01*
X92766Y-97472D01*
X92782Y-97452D01*
X92803Y-97437D01*
X97437Y-92803D01*
X97452Y-92782D01*
X97472Y-92766D01*
X101874Y-87910D01*
X101877Y-87903D01*
X102050Y-87861D01*
X102424Y-87917D01*
X102866Y-88984D01*
X103751Y-90516D01*
X104828Y-91920D01*
X106080Y-93172D01*
X107484Y-94249D01*
X109016Y-95134D01*
X110651Y-95811D01*
X112361Y-96269D01*
X114115Y-96500D01*
X115000Y-96500D01*
X115885D01*
X117639Y-96269D01*
X119349Y-95811D01*
X120984Y-95134D01*
X122516Y-94249D01*
X123920Y-93172D01*
X125172Y-91920D01*
X126249Y-90516D01*
X127134Y-88984D01*
X127811Y-87349D01*
X128269Y-85639D01*
X128500Y-83885D01*
Y-83000D01*
X128500Y-82115D01*
X128269Y-80361D01*
X127811Y-78651D01*
X127134Y-77016D01*
X126249Y-75484D01*
X125172Y-74080D01*
X123920Y-72828D01*
X122516Y-71751D01*
X120984Y-70866D01*
X119349Y-70189D01*
X117639Y-69731D01*
X115885Y-69500D01*
X115712D01*
X115577Y-69433D01*
X115551Y-69415D01*
X115291Y-69158D01*
X115286Y-69000D01*
X115294Y-68883D01*
X115275Y-68823D01*
X115271Y-68760D01*
X115213Y-68636D01*
X115170Y-68505D01*
X114923Y-68070D01*
X114833Y-67966D01*
X114757Y-67852D01*
X114704Y-67817D01*
X114663Y-67769D01*
X114540Y-67707D01*
X114426Y-67631D01*
X114364Y-67618D01*
X114308Y-67590D01*
X114171Y-67580D01*
X114036Y-67553D01*
X93756D01*
Y-67543D01*
X90000D01*
Y-66543D01*
X93756D01*
Y-66533D01*
X116357D01*
X116503Y-66504D01*
X116653Y-66490D01*
X116697Y-66466D01*
X116747Y-66456D01*
X116871Y-66373D01*
X117003Y-66302D01*
X117035Y-66263D01*
X117078Y-66235D01*
X117161Y-66110D01*
X117256Y-65995D01*
X119687Y-61445D01*
X126245Y-63576D01*
Y-63576D01*
X128750Y-64390D01*
X129972Y-60631D01*
X131193Y-56872D01*
X128284Y-55926D01*
Y-55926D01*
X123482Y-54366D01*
X123272Y-53912D01*
X125534Y-48451D01*
X125539Y-48426D01*
X125552Y-48404D01*
X127760Y-42233D01*
X127764Y-42208D01*
X127776Y-42185D01*
X129679Y-35913D01*
X129681Y-35888D01*
X129692Y-35865D01*
X131285Y-29507D01*
X131286Y-29481D01*
X131296Y-29458D01*
X132574Y-23029D01*
Y-23004D01*
X132583Y-22980D01*
X133545Y-16496D01*
X133543Y-16471D01*
X133551Y-16447D01*
X134193Y-9924D01*
X134191Y-9899D01*
X134197Y-9874D01*
X134518Y-3327D01*
X134515Y-3302D01*
X134520Y-3277D01*
X134520Y0D01*
X134520Y3277D01*
X134515Y3302D01*
X134518Y3327D01*
X134197Y9874D01*
X134191Y9899D01*
X134193Y9924D01*
X133551Y16447D01*
X133543Y16471D01*
X133545Y16496D01*
X132931Y20635D01*
X139100Y22639D01*
Y22639D01*
X142009Y23585D01*
X140787Y27344D01*
X139566Y31103D01*
X137061Y30289D01*
Y30289D01*
X131848Y28596D01*
X131417Y28848D01*
X131296Y29458D01*
X131286Y29481D01*
X131285Y29507D01*
X129692Y35865D01*
X129681Y35888D01*
X129679Y35913D01*
X127776Y42185D01*
X127764Y42208D01*
X127760Y42233D01*
X125552Y48404D01*
X125539Y48426D01*
X125534Y48451D01*
X123026Y54506D01*
X123012Y54527D01*
X123006Y54552D01*
X120203Y60477D01*
X120188Y60498D01*
X120181Y60522D01*
X117091Y66302D01*
X117075Y66322D01*
X117066Y66346D01*
X115437Y69065D01*
X115683Y69500D01*
X115885D01*
X117639Y69731D01*
X119349Y70189D01*
X120984Y70866D01*
X122516Y71751D01*
X123920Y72828D01*
X125172Y74080D01*
X126249Y75484D01*
X127134Y77016D01*
X127811Y78651D01*
X128269Y80361D01*
X128500Y82115D01*
Y83000D01*
X128500Y83885D01*
X128269Y85639D01*
X127811Y87349D01*
X127134Y88984D01*
X126249Y90516D01*
X125172Y91920D01*
X123920Y93172D01*
X122516Y94249D01*
X120984Y95134D01*
X119349Y95811D01*
X117639Y96269D01*
X115885Y96500D01*
X115000Y96500D01*
X114115Y96500D01*
X112361Y96269D01*
X110651Y95811D01*
X109016Y95134D01*
X107484Y94249D01*
X106080Y93172D01*
X104828Y91920D01*
X103751Y90516D01*
X102866Y88984D01*
X102424Y87916D01*
X102050Y87861D01*
X101877Y87903D01*
X101873Y87910D01*
X97472Y92766D01*
X97451Y92781D01*
X97437Y92803D01*
X95413Y94827D01*
X99227Y100076D01*
X99227Y100076D01*
X101025Y102551D01*
X97827Y104875D01*
X94629Y107198D01*
X93081Y105067D01*
X93081Y105067D01*
X89849Y100618D01*
X89351Y100567D01*
X87910Y101873D01*
X87888Y101886D01*
X87872Y101906D01*
X82805Y106064D01*
X82783Y106076D01*
X82766Y106095D01*
X77501Y110000D01*
X77478Y110010D01*
X77460Y110028D01*
X72010Y113670D01*
X71987Y113680D01*
X71968Y113697D01*
X66346Y117066D01*
X66322Y117075D01*
X66302Y117091D01*
X60522Y120181D01*
X60497Y120188D01*
X60477Y120203D01*
X54552Y123005D01*
X54527Y123012D01*
X54506Y123026D01*
X48451Y125534D01*
X48426Y125539D01*
X48404Y125552D01*
X42233Y127760D01*
X42208Y127764D01*
X42185Y127776D01*
X35913Y129678D01*
X35888Y129681D01*
X35865Y129692D01*
X29506Y131284D01*
X29481Y131286D01*
X29458Y131295D01*
X23029Y132574D01*
X23004D01*
X22980Y132583D01*
X21453Y132809D01*
Y134624D01*
X23192D01*
X23289Y134388D01*
X23850Y133657D01*
X24581Y133096D01*
X25433Y132744D01*
X26346Y132623D01*
X27260Y132744D01*
X28112Y133096D01*
X28843Y133657D01*
X29404Y134388D01*
X29756Y135240D01*
X29877Y136153D01*
X29756Y137067D01*
X29404Y137919D01*
X28843Y138650D01*
X28112Y139211D01*
X27260Y139563D01*
X26346Y139684D01*
X25433Y139563D01*
X24581Y139211D01*
X23850Y138650D01*
X23289Y137919D01*
X23192Y137683D01*
X21453D01*
Y139287D01*
X21453D01*
Y142347D01*
D02*
G37*
G36*
X-68699Y131054D02*
X-71493Y129025D01*
X-69695Y126550D01*
X-66901Y128579D01*
X-68699Y131054D01*
D02*
G37*
G36*
X-72302Y128437D02*
X-75095Y126407D01*
X-73297Y123933D01*
X-70504Y125962D01*
X-72302Y128437D01*
D02*
G37*
G36*
X-77691Y125378D02*
X-80962Y123002D01*
X-78932Y120208D01*
X-75661Y122585D01*
X-77691Y125378D01*
D02*
G37*
G36*
X-81771Y122414D02*
X-85042Y120037D01*
X-83012Y117244D01*
X-79741Y119620D01*
X-81771Y122414D01*
D02*
G37*
G36*
X-75073Y121776D02*
X-78344Y119399D01*
X-76315Y116606D01*
X-73044Y118982D01*
X-75073Y121776D01*
D02*
G37*
G36*
X73000Y127530D02*
X72086Y127410D01*
X71235Y127057D01*
X70504Y126496D01*
X69943Y125765D01*
X69590Y124914D01*
X69470Y124000D01*
X69590Y123086D01*
X69943Y122235D01*
X70504Y121504D01*
X71235Y120943D01*
X72086Y120590D01*
X73000Y120470D01*
X73560Y120544D01*
X73838Y120076D01*
X73044Y118983D01*
X80395Y113642D01*
X85042Y120037D01*
X77690Y125378D01*
X76982Y124402D01*
X76460Y124535D01*
X76410Y124914D01*
X76057Y125765D01*
X75496Y126496D01*
X74765Y127057D01*
X73914Y127410D01*
X73000Y127530D01*
D02*
G37*
G36*
X-79153Y118811D02*
X-82424Y116435D01*
X-80395Y113642D01*
X-77124Y116018D01*
X-79153Y118811D01*
D02*
G37*
G36*
X87883Y117973D02*
X85853Y115180D01*
X89124Y112803D01*
X91154Y115596D01*
X87883Y117973D01*
D02*
G37*
G36*
X-87883Y117973D02*
X-95234Y112632D01*
X-94377Y111452D01*
X-94655Y110985D01*
X-95000Y111030D01*
X-95914Y110910D01*
X-96765Y110557D01*
X-97496Y109996D01*
X-98057Y109265D01*
X-98410Y108414D01*
X-98530Y107500D01*
X-98410Y106586D01*
X-98057Y105735D01*
X-97496Y105004D01*
X-96765Y104443D01*
X-95914Y104090D01*
X-95000Y103970D01*
X-94086Y104090D01*
X-93235Y104443D01*
X-92504Y105004D01*
X-91943Y105735D01*
X-91590Y106586D01*
X-91563Y106790D01*
X-91079Y106913D01*
X-90587Y106236D01*
X-83236Y111577D01*
X-87883Y117973D01*
D02*
G37*
G36*
X91963Y115009D02*
X89933Y112215D01*
X93204Y109839D01*
X95234Y112632D01*
X91963Y115009D01*
D02*
G37*
G36*
X85265Y114371D02*
X83236Y111577D01*
X86507Y109201D01*
X88537Y111994D01*
X85265Y114371D01*
D02*
G37*
G36*
X89346Y111406D02*
X87316Y108613D01*
X90587Y106236D01*
X92617Y109030D01*
X89346Y111406D01*
D02*
G37*
G36*
X97015Y110482D02*
X95217Y108007D01*
X98010Y105977D01*
X99808Y108452D01*
X97015Y110482D01*
D02*
G37*
G36*
X100617Y107864D02*
X98819Y105390D01*
X101613Y103360D01*
X103411Y105835D01*
X100617Y107864D01*
D02*
G37*
G36*
X-132611Y65645D02*
X-133678Y62361D01*
X-130768Y61415D01*
X-129701Y64699D01*
X-132611Y65645D01*
D02*
G37*
G36*
X-133987Y61410D02*
X-135054Y58126D01*
X-132144Y57181D01*
X-131077Y60465D01*
X-133987Y61410D01*
D02*
G37*
G36*
X-136548Y55768D02*
X-137798Y51922D01*
X-134514Y50855D01*
X-133265Y54701D01*
X-136548Y55768D01*
D02*
G37*
G36*
X-132314Y54392D02*
X-133563Y50546D01*
X-130279Y49479D01*
X-129030Y53325D01*
X-132314Y54392D01*
D02*
G37*
G36*
X-138107Y50971D02*
X-139356Y47126D01*
X-136073Y46059D01*
X-134823Y49904D01*
X-138107Y50971D01*
D02*
G37*
G36*
X132000Y60530D02*
X131086Y60410D01*
X130235Y60057D01*
X129504Y59496D01*
X128943Y58765D01*
X128590Y57914D01*
X128470Y57000D01*
X128590Y56086D01*
X128943Y55235D01*
X129504Y54504D01*
X129961Y54153D01*
X129865Y53596D01*
X129030Y53325D01*
X131838Y44683D01*
X139356Y47126D01*
X136548Y55768D01*
X135648Y55475D01*
X135309Y55843D01*
X135410Y56086D01*
X135530Y57000D01*
X135410Y57914D01*
X135057Y58765D01*
X134496Y59496D01*
X133765Y60057D01*
X132914Y60410D01*
X132000Y60530D01*
D02*
G37*
G36*
X-133872Y49595D02*
X-135122Y45750D01*
X-131838Y44683D01*
X-130588Y48528D01*
X-133872Y49595D01*
D02*
G37*
G36*
X140442Y43786D02*
X137158Y42719D01*
X138407Y38874D01*
X141691Y39941D01*
X140442Y43786D01*
D02*
G37*
G36*
X136207Y42410D02*
X132923Y41343D01*
X134172Y37498D01*
X137456Y38565D01*
X136207Y42410D01*
D02*
G37*
G36*
X142000Y38989D02*
X138716Y37923D01*
X139966Y34077D01*
X143249Y35144D01*
X142000Y38989D01*
D02*
G37*
G36*
X137765Y37614D02*
X134481Y36547D01*
X135731Y32701D01*
X139015Y33768D01*
X137765Y37614D01*
D02*
G37*
G36*
X-140442Y43786D02*
X-143249Y35144D01*
X-141960Y34725D01*
X-141939Y34192D01*
X-142265Y34057D01*
X-142996Y33496D01*
X-143557Y32765D01*
X-143910Y31914D01*
X-144030Y31000D01*
X-143910Y30086D01*
X-143557Y29235D01*
X-142996Y28504D01*
X-142265Y27943D01*
X-141414Y27590D01*
X-140500Y27470D01*
X-139586Y27590D01*
X-138735Y27943D01*
X-138004Y28504D01*
X-137443Y29235D01*
X-137090Y30086D01*
X-136970Y31000D01*
X-137090Y31914D01*
X-137427Y32726D01*
X-137328Y32927D01*
X-137160Y33165D01*
X-135731Y32701D01*
X-132923Y41343D01*
X-140442Y43786D01*
D02*
G37*
G36*
X143426Y32358D02*
X140517Y31412D01*
X141584Y28128D01*
X144493Y29074D01*
X143426Y32358D01*
D02*
G37*
G36*
X144802Y28123D02*
X141893Y27178D01*
X142960Y23894D01*
X145869Y24839D01*
X144802Y28123D01*
D02*
G37*
G36*
X-142960Y-23894D02*
X-145869Y-24839D01*
X-144802Y-28123D01*
X-141893Y-27178D01*
X-142960Y-23894D01*
D02*
G37*
G36*
X-141584Y-28128D02*
X-144493Y-29074D01*
X-143426Y-32358D01*
X-140517Y-31412D01*
X-141584Y-28128D01*
D02*
G37*
G36*
X140500Y-27470D02*
X139586Y-27590D01*
X138735Y-27943D01*
X138004Y-28504D01*
X137443Y-29235D01*
X137090Y-30086D01*
X136970Y-31000D01*
X137090Y-31914D01*
X137427Y-32726D01*
X137328Y-32927D01*
X137160Y-33165D01*
X135731Y-32701D01*
X132923Y-41343D01*
X140442Y-43786D01*
X143249Y-35144D01*
X141960Y-34725D01*
X141939Y-34192D01*
X142265Y-34057D01*
X142996Y-33496D01*
X143557Y-32765D01*
X143910Y-31914D01*
X144030Y-31000D01*
X143910Y-30086D01*
X143557Y-29235D01*
X142996Y-28504D01*
X142265Y-27943D01*
X141414Y-27590D01*
X140500Y-27470D01*
D02*
G37*
G36*
X-135731Y-32701D02*
X-139015Y-33768D01*
X-137765Y-37614D01*
X-134481Y-36547D01*
X-135731Y-32701D01*
D02*
G37*
G36*
X-139966Y-34077D02*
X-143249Y-35144D01*
X-142000Y-38989D01*
X-138716Y-37923D01*
X-139966Y-34077D01*
D02*
G37*
G36*
X-134172Y-37498D02*
X-137456Y-38565D01*
X-136207Y-42410D01*
X-132923Y-41343D01*
X-134172Y-37498D01*
D02*
G37*
G36*
X-138407Y-38874D02*
X-141691Y-39941D01*
X-140442Y-43786D01*
X-137158Y-42719D01*
X-138407Y-38874D01*
D02*
G37*
G36*
X131838Y-44683D02*
X130588Y-48528D01*
X133872Y-49595D01*
X135122Y-45750D01*
X131838Y-44683D01*
D02*
G37*
G36*
X136073Y-46059D02*
X134823Y-49904D01*
X138107Y-50971D01*
X139356Y-47126D01*
X136073Y-46059D01*
D02*
G37*
G36*
X130279Y-49479D02*
X129030Y-53325D01*
X132314Y-54392D01*
X133563Y-50546D01*
X130279Y-49479D01*
D02*
G37*
G36*
X134514Y-50855D02*
X133265Y-54701D01*
X136548Y-55768D01*
X137798Y-51922D01*
X134514Y-50855D01*
D02*
G37*
G36*
X-131838Y-44683D02*
X-139356Y-47126D01*
X-136548Y-55768D01*
X-134769Y-55190D01*
X-134467Y-55617D01*
X-134557Y-55735D01*
X-134910Y-56586D01*
X-135030Y-57500D01*
X-134910Y-58414D01*
X-134557Y-59265D01*
X-133996Y-59996D01*
X-133265Y-60557D01*
X-132414Y-60910D01*
X-131500Y-61030D01*
X-130586Y-60910D01*
X-129735Y-60557D01*
X-129004Y-59996D01*
X-128443Y-59265D01*
X-128090Y-58414D01*
X-127970Y-57500D01*
X-128090Y-56586D01*
X-128443Y-55735D01*
X-129004Y-55004D01*
X-129735Y-54443D01*
X-130226Y-54239D01*
X-130205Y-53707D01*
X-129030Y-53325D01*
X-131838Y-44683D01*
D02*
G37*
G36*
X132144Y-57181D02*
X131077Y-60464D01*
X133987Y-61410D01*
X135054Y-58126D01*
X132144Y-57181D01*
D02*
G37*
G36*
X130768Y-61415D02*
X129701Y-64699D01*
X132611Y-65645D01*
X133678Y-62361D01*
X130768Y-61415D01*
D02*
G37*
G36*
X95000Y-103970D02*
X94086Y-104090D01*
X93235Y-104443D01*
X92504Y-105004D01*
X91943Y-105735D01*
X91590Y-106586D01*
X91563Y-106790D01*
X91079Y-106913D01*
X90587Y-106236D01*
X83236Y-111577D01*
X87883Y-117973D01*
X95234Y-112632D01*
X94377Y-111452D01*
X94655Y-110985D01*
X95000Y-111030D01*
X95914Y-110910D01*
X96765Y-110557D01*
X97496Y-109996D01*
X98057Y-109265D01*
X98410Y-108414D01*
X98530Y-107500D01*
X98410Y-106586D01*
X98057Y-105735D01*
X97496Y-105004D01*
X96765Y-104443D01*
X95914Y-104090D01*
X95000Y-103970D01*
D02*
G37*
G36*
X-101613Y-103360D02*
X-103411Y-105835D01*
X-100617Y-107864D01*
X-98819Y-105390D01*
X-101613Y-103360D01*
D02*
G37*
G36*
X-98010Y-105977D02*
X-99808Y-108452D01*
X-97015Y-110482D01*
X-95217Y-108007D01*
X-98010Y-105977D01*
D02*
G37*
G36*
X-90587Y-106236D02*
X-92617Y-109030D01*
X-89346Y-111406D01*
X-87316Y-108613D01*
X-90587Y-106236D01*
D02*
G37*
G36*
X-86507Y-109201D02*
X-88537Y-111994D01*
X-85265Y-114371D01*
X-83236Y-111577D01*
X-86507Y-109201D01*
D02*
G37*
G36*
X-93204Y-109839D02*
X-95234Y-112632D01*
X-91963Y-115009D01*
X-89933Y-112215D01*
X-93204Y-109839D01*
D02*
G37*
G36*
X-89124Y-112803D02*
X-91154Y-115596D01*
X-87883Y-117973D01*
X-85853Y-115180D01*
X-89124Y-112803D01*
D02*
G37*
G36*
X80395Y-113642D02*
X77124Y-116018D01*
X79153Y-118811D01*
X82424Y-116435D01*
X80395Y-113642D01*
D02*
G37*
G36*
X76315Y-116606D02*
X73044Y-118982D01*
X75073Y-121776D01*
X78344Y-119399D01*
X76315Y-116606D01*
D02*
G37*
G36*
X83012Y-117244D02*
X79741Y-119620D01*
X81771Y-122414D01*
X85042Y-120037D01*
X83012Y-117244D01*
D02*
G37*
G36*
X78932Y-120208D02*
X75661Y-122585D01*
X77691Y-125378D01*
X80962Y-123002D01*
X78932Y-120208D01*
D02*
G37*
G36*
X-80395Y-113642D02*
X-85042Y-120037D01*
X-77690Y-125378D01*
X-73044Y-118983D01*
X-80395Y-113642D01*
D02*
G37*
G36*
X73297Y-123933D02*
X70504Y-125962D01*
X72302Y-128437D01*
X75095Y-126407D01*
X73297Y-123933D01*
D02*
G37*
G36*
X69695Y-126550D02*
X66901Y-128579D01*
X68699Y-131054D01*
X71493Y-129025D01*
X69695Y-126550D01*
D02*
G37*
G36*
X-1756Y-139193D02*
X-5799D01*
Y-142646D01*
X-1756D01*
Y-139193D01*
D02*
G37*
G36*
X-6799D02*
X-10842D01*
Y-142646D01*
X-6799D01*
Y-139193D01*
D02*
G37*
G36*
X-13547Y-143347D02*
X-17000D01*
Y-146405D01*
X-13547D01*
Y-143347D01*
D02*
G37*
G36*
X-18000D02*
X-21453D01*
Y-146405D01*
X-18000D01*
Y-143347D01*
D02*
G37*
G36*
X10842Y-139193D02*
X1756D01*
Y-147098D01*
X10842D01*
Y-145109D01*
X11134Y-144982D01*
X11343Y-144970D01*
X11858Y-145642D01*
X12589Y-146203D01*
X13441Y-146555D01*
X14354Y-146676D01*
X15268Y-146555D01*
X16119Y-146203D01*
X16851Y-145642D01*
X17412Y-144911D01*
X17764Y-144059D01*
X17885Y-143146D01*
X17764Y-142232D01*
X17412Y-141381D01*
X16851Y-140649D01*
X16119Y-140088D01*
X15268Y-139736D01*
X14354Y-139615D01*
X13441Y-139736D01*
X12589Y-140088D01*
X11858Y-140649D01*
X11343Y-141321D01*
X11134Y-141309D01*
X10842Y-141182D01*
Y-139193D01*
D02*
G37*
G36*
X-1756Y-143646D02*
X-5799D01*
Y-147098D01*
X-1756D01*
Y-143646D01*
D02*
G37*
G36*
X-6799D02*
X-10842D01*
Y-147098D01*
X-6799D01*
Y-143646D01*
D02*
G37*
G36*
X-14500Y-148443D02*
Y-150500D01*
X-12443D01*
X-12467Y-150321D01*
X-12729Y-149689D01*
X-13146Y-149146D01*
X-13689Y-148729D01*
X-14321Y-148467D01*
X-14500Y-148443D01*
D02*
G37*
G36*
X-15500D02*
X-15679Y-148467D01*
X-16311Y-148729D01*
X-16854Y-149146D01*
X-17271Y-149689D01*
X-17533Y-150321D01*
X-17557Y-150500D01*
X-15500D01*
Y-148443D01*
D02*
G37*
G36*
X-12443Y-151500D02*
X-14500D01*
Y-153557D01*
X-14321Y-153533D01*
X-13689Y-153271D01*
X-13146Y-152854D01*
X-12729Y-152311D01*
X-12467Y-151679D01*
X-12443Y-151500D01*
D02*
G37*
G36*
X-15500D02*
X-17557D01*
X-17533Y-151679D01*
X-17271Y-152311D01*
X-16854Y-152854D01*
X-16311Y-153271D01*
X-15679Y-153533D01*
X-15500Y-153557D01*
Y-151500D01*
D02*
G37*
%LPD*%
G36*
X9824Y133178D02*
X13547Y132812D01*
Y132595D01*
X15751D01*
X16347Y132536D01*
X22830Y131574D01*
X29259Y130295D01*
X35617Y128703D01*
X41889Y126800D01*
X48060Y124592D01*
X54116Y122084D01*
X60041Y119281D01*
X65822Y116192D01*
X71444Y112822D01*
X76894Y109180D01*
X82158Y105276D01*
X87225Y101118D01*
X89026Y99486D01*
X88897Y99308D01*
X89997Y98509D01*
X89835Y98009D01*
X89086Y97910D01*
X88235Y97557D01*
X87504Y96996D01*
X86943Y96265D01*
X86590Y95414D01*
X86470Y94500D01*
X86590Y93586D01*
X86943Y92735D01*
X87504Y92004D01*
X88235Y91443D01*
X89086Y91090D01*
X90000Y90970D01*
X90914Y91090D01*
X91765Y91443D01*
X92496Y92004D01*
X93057Y92735D01*
X93410Y93586D01*
X93530Y94500D01*
X93515Y94613D01*
X93964Y94834D01*
X96716Y92081D01*
X101118Y87225D01*
X101900Y86272D01*
X101731Y85639D01*
X101500Y83885D01*
X101500Y83000D01*
X101500Y82115D01*
X101731Y80361D01*
X102189Y78651D01*
X102866Y77016D01*
X103751Y75484D01*
X104828Y74080D01*
X106080Y72828D01*
X107484Y71751D01*
X109016Y70866D01*
X110651Y70189D01*
X112361Y69731D01*
X113976Y69518D01*
X116192Y65822D01*
X119281Y60041D01*
X122084Y54116D01*
X124592Y48061D01*
X126800Y41889D01*
X128703Y35617D01*
X130296Y29259D01*
X130514Y28162D01*
X130291Y28090D01*
X130902Y26210D01*
X130957Y25934D01*
X130251Y25685D01*
X129765Y26057D01*
X128914Y26410D01*
X128000Y26530D01*
X127086Y26410D01*
X126235Y26057D01*
X125504Y25496D01*
X124943Y24765D01*
X124590Y23914D01*
X124470Y23000D01*
X124590Y22086D01*
X124943Y21235D01*
X125504Y20504D01*
X126235Y19943D01*
X127086Y19590D01*
X128000Y19470D01*
X128914Y19590D01*
X129765Y19943D01*
X130496Y20504D01*
X131057Y21235D01*
X131240Y21676D01*
X131755Y21613D01*
X132536Y16347D01*
X133178Y9824D01*
X133500Y3277D01*
X133500Y0D01*
X133500Y-3277D01*
X133178Y-9824D01*
X132536Y-16347D01*
X131574Y-22830D01*
X130296Y-29259D01*
X128703Y-35617D01*
X126800Y-41889D01*
X124592Y-48061D01*
X122159Y-53936D01*
X121918Y-53858D01*
X121414Y-55411D01*
X121328Y-55476D01*
X120824Y-55378D01*
X120557Y-54735D01*
X119996Y-54004D01*
X119265Y-53443D01*
X118414Y-53090D01*
X117500Y-52970D01*
X116586Y-53090D01*
X115735Y-53443D01*
X115004Y-54004D01*
X114443Y-54735D01*
X114090Y-55586D01*
X113970Y-56500D01*
X114090Y-57414D01*
X114443Y-58265D01*
X115004Y-58996D01*
X115735Y-59557D01*
X116586Y-59910D01*
X117500Y-60030D01*
X118414Y-59910D01*
X118883Y-59716D01*
X119166Y-59947D01*
X119247Y-60106D01*
X116357Y-65514D01*
X93756D01*
Y-63819D01*
X93756Y-63681D01*
Y-63319D01*
X93756Y-63181D01*
Y-56595D01*
X86244D01*
Y-58427D01*
X83590D01*
X82581Y-57419D01*
X82085Y-57087D01*
X81500Y-56971D01*
X75804D01*
X75581Y-56432D01*
X74924Y-55576D01*
X74068Y-54919D01*
X73070Y-54505D01*
X72000Y-54365D01*
X70930Y-54505D01*
X69932Y-54919D01*
X69076Y-55576D01*
X68419Y-56432D01*
X68006Y-57430D01*
X67865Y-58500D01*
X68006Y-59570D01*
X68419Y-60568D01*
X69076Y-61424D01*
X69932Y-62081D01*
X70930Y-62494D01*
X72000Y-62635D01*
X73070Y-62494D01*
X74068Y-62081D01*
X74924Y-61424D01*
X75581Y-60568D01*
X75804Y-60029D01*
X80866D01*
X81875Y-61038D01*
X82371Y-61370D01*
X82957Y-61486D01*
X86244D01*
Y-63181D01*
X86244Y-63319D01*
Y-63681D01*
X86244Y-63819D01*
Y-65259D01*
X83457D01*
X82774Y-65395D01*
X82195Y-65782D01*
X81261Y-66716D01*
X76100D01*
Y-64400D01*
X67900D01*
Y-72600D01*
X76100D01*
Y-70284D01*
X82000D01*
X82683Y-70148D01*
X83262Y-69762D01*
X84196Y-68828D01*
X86244D01*
Y-70406D01*
X93756D01*
Y-68573D01*
X114036D01*
X114282Y-69008D01*
X113976Y-69518D01*
X112361Y-69731D01*
X110651Y-70189D01*
X109016Y-70866D01*
X107484Y-71751D01*
X106080Y-72828D01*
X104828Y-74080D01*
X103751Y-75484D01*
X102866Y-77016D01*
X102189Y-78651D01*
X101731Y-80361D01*
X101500Y-82115D01*
X101500Y-83000D01*
X101500Y-83885D01*
X101731Y-85639D01*
X101900Y-86272D01*
X101118Y-87225D01*
X96716Y-92082D01*
X92082Y-96716D01*
X87225Y-101118D01*
X82158Y-105276D01*
X76894Y-109181D01*
X71444Y-112822D01*
X67111Y-115419D01*
X66977Y-115234D01*
X65205Y-116522D01*
X65071Y-116594D01*
X64779Y-116230D01*
X64910Y-115914D01*
X65030Y-115000D01*
X64910Y-114086D01*
X64557Y-113235D01*
X63996Y-112504D01*
X63265Y-111943D01*
X62414Y-111590D01*
X61500Y-111470D01*
X60586Y-111590D01*
X59735Y-111943D01*
X59004Y-112504D01*
X58443Y-113235D01*
X58090Y-114086D01*
X57970Y-115000D01*
X58090Y-115914D01*
X58443Y-116765D01*
X59004Y-117496D01*
X59735Y-118057D01*
X60586Y-118410D01*
X60647Y-118418D01*
X60737Y-118910D01*
X60041Y-119282D01*
X54116Y-122084D01*
X49866Y-123845D01*
X49450Y-123567D01*
Y-119050D01*
X40550D01*
Y-127207D01*
X38696Y-127769D01*
X38294Y-127471D01*
Y-123740D01*
Y-120000D01*
Y-113500D01*
X38120Y-112622D01*
X37622Y-111878D01*
X31794Y-106050D01*
Y-95331D01*
X34450D01*
Y-84669D01*
X24550D01*
Y-95331D01*
X27206D01*
Y-107000D01*
X27380Y-107878D01*
X27878Y-108622D01*
X32873Y-113617D01*
X32681Y-114079D01*
X26756D01*
Y-118196D01*
X26256Y-118434D01*
X25780Y-118116D01*
X25000Y-117961D01*
X23244D01*
Y-114079D01*
X21921D01*
Y-90000D01*
Y-79963D01*
X27123Y-74761D01*
X27565Y-74099D01*
X27720Y-73319D01*
Y-70996D01*
X31405D01*
Y-56004D01*
X19957D01*
Y-70996D01*
X23642D01*
Y-72474D01*
X18440Y-77676D01*
X17998Y-78338D01*
X17843Y-79118D01*
Y-87961D01*
X10850D01*
Y-84669D01*
X950D01*
Y-95331D01*
X10850D01*
Y-92039D01*
X17843D01*
Y-114079D01*
X16520D01*
Y-117353D01*
X16020Y-117402D01*
X15884Y-116720D01*
X15442Y-116058D01*
X14780Y-115616D01*
X14000Y-115461D01*
X11252D01*
X11094Y-115256D01*
X11341Y-114756D01*
X15905D01*
Y-107244D01*
X14582D01*
Y-106657D01*
X14814Y-106354D01*
X15076Y-105722D01*
X15166Y-105043D01*
X15076Y-104365D01*
X14814Y-103732D01*
X14398Y-103189D01*
X13855Y-102772D01*
X13222Y-102510D01*
X12543Y-102421D01*
X11865Y-102510D01*
X11232Y-102772D01*
X10689Y-103189D01*
X10272Y-103732D01*
X10010Y-104365D01*
X9921Y-105043D01*
X10010Y-105722D01*
X10272Y-106354D01*
X10504Y-106657D01*
Y-107244D01*
X9181D01*
X9181Y-107244D01*
X8819D01*
Y-107244D01*
X8681Y-107244D01*
X2094D01*
Y-108961D01*
X500D01*
X-280Y-109116D01*
X-942Y-109558D01*
X-2388Y-111004D01*
X-3744D01*
Y-109819D01*
X-3744Y-109681D01*
Y-109319D01*
X-3744Y-109181D01*
Y-102594D01*
X-11256D01*
Y-103961D01*
X-13386D01*
X-13689Y-103729D01*
X-14321Y-103467D01*
X-15000Y-103378D01*
X-15679Y-103467D01*
X-16311Y-103729D01*
X-16854Y-104146D01*
X-17271Y-104689D01*
X-17533Y-105321D01*
X-17622Y-106000D01*
X-17533Y-106679D01*
X-17271Y-107311D01*
X-16854Y-107854D01*
X-16311Y-108271D01*
X-15679Y-108533D01*
X-15000Y-108622D01*
X-14321Y-108533D01*
X-13689Y-108271D01*
X-13386Y-108039D01*
X-11256D01*
Y-109181D01*
X-11256Y-109319D01*
Y-109681D01*
X-11256Y-109819D01*
Y-116405D01*
X-3744D01*
Y-115083D01*
X-1543D01*
X-763Y-114927D01*
X-101Y-114485D01*
X1345Y-113039D01*
X2094D01*
Y-114756D01*
X4282D01*
X4366Y-114891D01*
X4111Y-115429D01*
X3821Y-115467D01*
X3189Y-115729D01*
X2646Y-116146D01*
X2229Y-116689D01*
X1967Y-117321D01*
X1878Y-118000D01*
X1967Y-118679D01*
X2229Y-119311D01*
X2298Y-119402D01*
X2052Y-119902D01*
X1756D01*
Y-127807D01*
X10842D01*
Y-119902D01*
X11175Y-119539D01*
X11961D01*
Y-123740D01*
X12116Y-124521D01*
X12558Y-125182D01*
X13220Y-125624D01*
X14000Y-125779D01*
X16520D01*
Y-125921D01*
X22961D01*
Y-128738D01*
X22742Y-128957D01*
X17524D01*
Y-131461D01*
X16613D01*
X16311Y-131229D01*
X15679Y-130967D01*
X15000Y-130878D01*
X14321Y-130967D01*
X13689Y-131229D01*
X13146Y-131646D01*
X12729Y-132189D01*
X12467Y-132821D01*
X12454Y-132919D01*
X9824Y-133178D01*
X3277Y-133500D01*
X0Y-133500D01*
X-3277Y-133500D01*
X-9824Y-133178D01*
X-13547Y-132812D01*
Y-132595D01*
X-15753D01*
X-16347Y-132536D01*
X-22830Y-131574D01*
X-29259Y-130296D01*
X-31216Y-129805D01*
Y-121949D01*
X-29244D01*
Y-115362D01*
X-29244Y-115224D01*
Y-114862D01*
X-29244Y-114724D01*
Y-113029D01*
X-26756D01*
Y-114724D01*
X-26756Y-114862D01*
Y-115224D01*
X-26756Y-115362D01*
Y-121949D01*
X-21801D01*
X-18814Y-124936D01*
X-18318Y-125267D01*
X-17732Y-125384D01*
X-10842D01*
Y-127807D01*
X-1756D01*
Y-119902D01*
X-10842D01*
Y-122325D01*
X-17099D01*
X-19244Y-120180D01*
Y-115362D01*
X-19244Y-115224D01*
Y-114862D01*
X-19244Y-114724D01*
Y-108138D01*
X-26756D01*
Y-109971D01*
X-29244D01*
Y-108138D01*
X-31471D01*
Y-103063D01*
X-31101Y-102693D01*
X-27819D01*
Y-96165D01*
X-32181D01*
Y-99447D01*
X-34081Y-101348D01*
X-34413Y-101844D01*
X-34529Y-102429D01*
Y-108138D01*
X-36756D01*
Y-114724D01*
X-36756Y-114862D01*
Y-115224D01*
X-36756Y-115362D01*
Y-121949D01*
X-34784D01*
Y-127407D01*
Y-132383D01*
X-39000Y-134000D01*
X-40198D01*
D01*
X-45000D01*
X-49927D01*
D01*
X-51000D01*
X-62422Y-118009D01*
X-65822Y-116192D01*
X-71444Y-112822D01*
X-76894Y-109181D01*
X-82158Y-105276D01*
X-87225Y-101118D01*
X-89026Y-99486D01*
X-88897Y-99308D01*
X-90534Y-98119D01*
X-90664Y-98001D01*
X-90300Y-97491D01*
X-90000Y-97530D01*
X-89086Y-97410D01*
X-88235Y-97057D01*
X-87504Y-96496D01*
X-86943Y-95765D01*
X-86590Y-94914D01*
X-86470Y-94000D01*
X-86590Y-93086D01*
X-86943Y-92235D01*
X-87504Y-91504D01*
X-88235Y-90943D01*
X-89086Y-90590D01*
X-90000Y-90470D01*
X-90914Y-90590D01*
X-91765Y-90943D01*
X-92496Y-91504D01*
X-93057Y-92235D01*
X-93410Y-93086D01*
X-93530Y-94000D01*
X-93445Y-94646D01*
X-93919Y-94879D01*
X-96716Y-92082D01*
X-101118Y-87225D01*
X-101900Y-86272D01*
X-101731Y-85639D01*
X-101500Y-83885D01*
Y-83000D01*
X-101500Y-82115D01*
X-101731Y-80361D01*
X-102189Y-78651D01*
X-102866Y-77016D01*
X-103751Y-75484D01*
X-104828Y-74080D01*
X-106080Y-72828D01*
X-107484Y-71751D01*
X-109016Y-70866D01*
X-110651Y-70189D01*
X-112361Y-69731D01*
X-113976Y-69518D01*
X-116192Y-65822D01*
X-119281Y-60041D01*
X-122084Y-54116D01*
X-124592Y-48061D01*
X-126800Y-41889D01*
X-128703Y-35617D01*
X-130296Y-29259D01*
X-130514Y-28162D01*
X-130291Y-28090D01*
X-130902Y-26209D01*
X-130957Y-25934D01*
X-130251Y-25685D01*
X-129765Y-26057D01*
X-128914Y-26410D01*
X-128000Y-26530D01*
X-127086Y-26410D01*
X-126235Y-26057D01*
X-125504Y-25496D01*
X-124943Y-24765D01*
X-124590Y-23914D01*
X-124470Y-23000D01*
X-124590Y-22086D01*
X-124943Y-21235D01*
X-125504Y-20504D01*
X-126235Y-19943D01*
X-127086Y-19590D01*
X-128000Y-19470D01*
X-128914Y-19590D01*
X-129765Y-19943D01*
X-130496Y-20504D01*
X-131057Y-21235D01*
X-131240Y-21676D01*
X-131755Y-21613D01*
X-132536Y-16347D01*
X-133023Y-11400D01*
X-132687Y-11029D01*
X-106133D01*
X-101271Y-15891D01*
X-101495Y-16430D01*
X-101635Y-17500D01*
X-101495Y-18570D01*
X-101081Y-19568D01*
X-100424Y-20424D01*
X-99568Y-21081D01*
X-98570Y-21495D01*
X-97500Y-21635D01*
X-96430Y-21495D01*
X-95432Y-21081D01*
X-94576Y-20424D01*
X-93919Y-19568D01*
X-93506Y-18570D01*
X-93365Y-17500D01*
X-93506Y-16430D01*
X-93919Y-15432D01*
X-94576Y-14576D01*
X-95432Y-13919D01*
X-95716Y-13801D01*
Y16761D01*
X-91241Y21236D01*
X-91032Y21149D01*
X-90000Y21013D01*
X-88968Y21149D01*
X-88007Y21547D01*
X-87181Y22181D01*
X-86547Y23007D01*
X-86149Y23968D01*
X-86060Y24646D01*
X-86029Y24877D01*
X-85529Y24844D01*
Y15156D01*
X-86029Y15123D01*
X-86060Y15354D01*
X-86149Y16032D01*
X-86547Y16993D01*
X-87181Y17819D01*
X-88007Y18453D01*
X-88968Y18851D01*
X-90000Y18987D01*
X-91032Y18851D01*
X-91993Y18453D01*
X-92819Y17819D01*
X-93453Y16993D01*
X-93851Y16032D01*
X-93987Y15000D01*
X-93851Y13968D01*
X-93453Y13007D01*
X-92819Y12181D01*
X-91993Y11547D01*
X-91032Y11149D01*
X-90000Y11013D01*
X-88968Y11149D01*
X-88007Y11547D01*
X-87181Y12181D01*
X-86547Y13007D01*
X-86149Y13968D01*
X-86060Y14646D01*
X-86029Y14877D01*
X-85529Y14844D01*
Y11172D01*
X-85413Y10586D01*
X-85081Y10090D01*
X-59029Y-15962D01*
Y-35520D01*
X-68541Y-45031D01*
X-72118D01*
Y-50968D01*
X-66575D01*
Y-47391D01*
X-65887Y-46704D01*
X-65425Y-46895D01*
Y-50968D01*
X-64183D01*
Y-54031D01*
X-65425D01*
Y-59969D01*
X-59882D01*
X-59882Y-59969D01*
Y-59969D01*
X-59475Y-60188D01*
X-52658Y-67005D01*
X-52737Y-67228D01*
X-52916Y-67454D01*
X-53500Y-67378D01*
X-54179Y-67467D01*
X-54811Y-67729D01*
X-55354Y-68146D01*
X-55604Y-68471D01*
X-59882D01*
Y-67032D01*
X-65425D01*
Y-71105D01*
X-65887Y-71296D01*
X-66575Y-70609D01*
Y-67032D01*
X-72118D01*
Y-68471D01*
X-74382D01*
Y-67032D01*
X-79925D01*
Y-72969D01*
X-74382D01*
Y-71529D01*
X-72118D01*
Y-72969D01*
X-68541D01*
X-63928Y-77581D01*
X-63432Y-77913D01*
X-62846Y-78029D01*
X-52634D01*
X-49039Y-81624D01*
X-49336Y-82338D01*
X-49488Y-83500D01*
X-49336Y-84662D01*
X-48887Y-85744D01*
X-48174Y-86674D01*
X-47244Y-87387D01*
X-46162Y-87836D01*
X-45000Y-87988D01*
X-43838Y-87836D01*
X-42756Y-87387D01*
X-41826Y-86674D01*
X-41113Y-85744D01*
X-40664Y-84662D01*
X-40512Y-83500D01*
X-40664Y-82338D01*
X-41113Y-81256D01*
X-41826Y-80326D01*
X-42756Y-79613D01*
X-43838Y-79164D01*
X-45000Y-79012D01*
X-46162Y-79164D01*
X-46876Y-79461D01*
X-50919Y-75419D01*
X-51415Y-75087D01*
X-52000Y-74971D01*
X-62213D01*
X-63753Y-73430D01*
X-63562Y-72969D01*
X-59882D01*
Y-71529D01*
X-55604D01*
X-55354Y-71854D01*
X-54811Y-72271D01*
X-54179Y-72533D01*
X-53500Y-72622D01*
X-52821Y-72533D01*
X-52189Y-72271D01*
X-51646Y-71854D01*
X-51229Y-71311D01*
X-50967Y-70679D01*
X-50878Y-70000D01*
X-50955Y-69415D01*
X-50728Y-69237D01*
X-50505Y-69158D01*
X-48679Y-70984D01*
X-48887Y-71256D01*
X-49336Y-72338D01*
X-49488Y-73500D01*
X-49336Y-74662D01*
X-48887Y-75744D01*
X-48174Y-76674D01*
X-47244Y-77387D01*
X-46162Y-77836D01*
X-45000Y-77988D01*
X-43838Y-77836D01*
X-42756Y-77387D01*
X-41826Y-76674D01*
X-41113Y-75744D01*
X-40664Y-74662D01*
X-40512Y-73500D01*
X-40664Y-72338D01*
X-41113Y-71256D01*
X-41826Y-70326D01*
X-42756Y-69613D01*
X-43838Y-69165D01*
X-45000Y-69012D01*
X-46162Y-69165D01*
X-46169Y-69168D01*
X-47569Y-67768D01*
X-47244Y-67387D01*
X-46162Y-67835D01*
X-45000Y-67988D01*
X-43838Y-67835D01*
X-42756Y-67387D01*
X-41826Y-66674D01*
X-41113Y-65744D01*
X-40664Y-64662D01*
X-40512Y-63500D01*
X-40664Y-62338D01*
X-41113Y-61256D01*
X-41826Y-60326D01*
X-42756Y-59613D01*
X-43838Y-59165D01*
X-45000Y-59012D01*
X-46162Y-59165D01*
X-47244Y-59613D01*
X-48174Y-60326D01*
X-48887Y-61256D01*
X-49183Y-61971D01*
X-50538D01*
X-53971Y-58538D01*
Y-14500D01*
X-54087Y-13915D01*
X-54419Y-13419D01*
X-80471Y12633D01*
Y46000D01*
X-80587Y46585D01*
X-80919Y47081D01*
X-86676Y52839D01*
X-86547Y53007D01*
X-86149Y53968D01*
X-86013Y55000D01*
X-86149Y56032D01*
X-86547Y56993D01*
X-87181Y57819D01*
X-88007Y58453D01*
X-88968Y58851D01*
X-90000Y58987D01*
X-91032Y58851D01*
X-91993Y58453D01*
X-92819Y57819D01*
X-93453Y56993D01*
X-93851Y56032D01*
X-93987Y55000D01*
X-93851Y53968D01*
X-93453Y53007D01*
X-92819Y52181D01*
X-91993Y51547D01*
X-91032Y51149D01*
X-90000Y51013D01*
X-89272Y51109D01*
X-83529Y45366D01*
Y31346D01*
X-83991Y31154D01*
X-86341Y33504D01*
X-86149Y33968D01*
X-86013Y35000D01*
X-86149Y36032D01*
X-86547Y36993D01*
X-87181Y37819D01*
X-88007Y38453D01*
X-88968Y38851D01*
X-90000Y38987D01*
X-91032Y38851D01*
X-91993Y38453D01*
X-92819Y37819D01*
X-93453Y36993D01*
X-93851Y36032D01*
X-93987Y35000D01*
X-93851Y33968D01*
X-93453Y33007D01*
X-92819Y32181D01*
X-91993Y31547D01*
X-91032Y31149D01*
X-90000Y31013D01*
X-88968Y31149D01*
X-88504Y31341D01*
X-85529Y28367D01*
Y25156D01*
X-86029Y25123D01*
X-86060Y25354D01*
X-86149Y26032D01*
X-86547Y26993D01*
X-87181Y27819D01*
X-88007Y28453D01*
X-88968Y28851D01*
X-90000Y28987D01*
X-91032Y28851D01*
X-91993Y28453D01*
X-92819Y27819D01*
X-93453Y26993D01*
X-93851Y26032D01*
X-93987Y25000D01*
X-93851Y23968D01*
X-93764Y23759D01*
X-98762Y18762D01*
X-99148Y18183D01*
X-99284Y17500D01*
Y-12900D01*
X-99746Y-13091D01*
X-104419Y-8419D01*
X-104915Y-8087D01*
X-105500Y-7971D01*
X-133270D01*
X-133500Y-3277D01*
X-133500Y0D01*
X-133500Y3277D01*
X-133178Y9824D01*
X-132536Y16347D01*
X-131574Y22830D01*
X-130296Y29259D01*
X-128703Y35617D01*
X-126800Y41889D01*
X-124592Y48061D01*
X-122159Y53936D01*
X-121918Y53858D01*
X-121414Y55411D01*
X-121328Y55476D01*
X-120824Y55378D01*
X-120557Y54735D01*
X-119996Y54004D01*
X-119265Y53443D01*
X-118414Y53090D01*
X-117500Y52970D01*
X-116586Y53090D01*
X-115735Y53443D01*
X-115004Y54004D01*
X-114443Y54735D01*
X-114090Y55586D01*
X-113970Y56500D01*
X-114090Y57414D01*
X-114443Y58265D01*
X-115004Y58996D01*
X-115735Y59557D01*
X-116586Y59910D01*
X-117500Y60030D01*
X-118414Y59910D01*
X-118882Y59716D01*
X-119166Y59947D01*
X-119247Y60106D01*
X-116192Y65822D01*
X-113976Y69518D01*
X-112361Y69731D01*
X-110651Y70189D01*
X-109016Y70866D01*
X-107484Y71751D01*
X-106080Y72828D01*
X-104828Y74080D01*
X-103751Y75484D01*
X-102866Y77016D01*
X-102189Y78651D01*
X-101731Y80361D01*
X-101500Y82115D01*
Y83000D01*
X-101500Y83885D01*
X-101731Y85639D01*
X-101900Y86272D01*
X-101118Y87225D01*
X-96716Y92081D01*
X-92082Y96716D01*
X-87225Y101118D01*
X-82158Y105276D01*
X-76894Y109181D01*
X-71444Y112822D01*
X-67111Y115419D01*
X-66977Y115234D01*
X-65206Y116521D01*
X-60041Y119281D01*
X-55707Y121332D01*
X-55284Y121064D01*
Y101739D01*
X-56759Y100264D01*
X-56968Y100351D01*
X-58000Y100487D01*
X-59032Y100351D01*
X-59993Y99953D01*
X-60819Y99319D01*
X-61453Y98493D01*
X-61851Y97532D01*
X-61987Y96500D01*
X-61851Y95468D01*
X-61453Y94507D01*
X-60819Y93681D01*
X-59993Y93047D01*
X-59032Y92649D01*
X-58000Y92513D01*
X-56968Y92649D01*
X-56007Y93047D01*
X-55181Y93681D01*
X-54547Y94507D01*
X-54149Y95468D01*
X-54013Y96500D01*
X-54149Y97532D01*
X-54236Y97741D01*
X-52238Y99738D01*
X-51851Y100317D01*
X-51716Y101000D01*
Y123078D01*
X-48061Y124592D01*
X-41889Y126800D01*
X-35617Y128703D01*
X-29259Y130296D01*
X-22830Y131574D01*
X-16347Y132536D01*
X-9824Y133178D01*
X-3277Y133500D01*
X-0Y133500D01*
X3277Y133500D01*
X9824Y133178D01*
D02*
G37*
G36*
X-93058Y22492D02*
X-92819Y22181D01*
X-92508Y21942D01*
X-92475Y21443D01*
X-96437Y17482D01*
X-96658Y17151D01*
X-96735Y16761D01*
Y-13086D01*
X-97000Y-13318D01*
Y-17500D01*
X-98000D01*
Y-13294D01*
X-98179Y-13131D01*
X-98277Y-12963D01*
X-98265Y-12900D01*
Y17400D01*
X-98188Y17785D01*
X-97970Y18112D01*
X-93557Y22525D01*
X-93058Y22492D01*
D02*
G37*
%LPC*%
G36*
X-1756Y127807D02*
X-10842D01*
Y125784D01*
X-11457D01*
X-12004Y126496D01*
X-12735Y127057D01*
X-13586Y127410D01*
X-14500Y127530D01*
X-15414Y127410D01*
X-16265Y127057D01*
X-16996Y126496D01*
X-17557Y125765D01*
X-17910Y124914D01*
X-18030Y124000D01*
X-17910Y123086D01*
X-17557Y122235D01*
X-16996Y121504D01*
X-16265Y120943D01*
X-15414Y120590D01*
X-14500Y120470D01*
X-13586Y120590D01*
X-12735Y120943D01*
X-12004Y121504D01*
X-11457Y122216D01*
X-10842D01*
Y119902D01*
X-1756D01*
Y127807D01*
D02*
G37*
G36*
X10842Y127807D02*
X1756D01*
Y119902D01*
X10842D01*
Y122325D01*
X12699D01*
X12797Y122089D01*
X13358Y121358D01*
X14089Y120797D01*
X14941Y120444D01*
X15854Y120324D01*
X16768Y120444D01*
X17619Y120797D01*
X18350Y121358D01*
X18912Y122089D01*
X19264Y122941D01*
X19385Y123854D01*
X19264Y124768D01*
X18912Y125619D01*
X18350Y126350D01*
X17619Y126911D01*
X16768Y127264D01*
X15854Y127384D01*
X14941Y127264D01*
X14089Y126911D01*
X13358Y126350D01*
X12797Y125619D01*
X12699Y125384D01*
X10842D01*
Y127807D01*
D02*
G37*
G36*
X-61500Y112030D02*
X-62414Y111910D01*
X-63265Y111557D01*
X-63996Y110996D01*
X-64557Y110265D01*
X-64910Y109414D01*
X-64996Y108757D01*
X-65518Y108624D01*
X-66351Y109771D01*
X-73703Y104430D01*
X-69056Y98035D01*
X-61705Y103375D01*
X-62619Y104634D01*
X-62508Y104879D01*
X-62324Y105078D01*
X-61500Y104970D01*
X-60586Y105090D01*
X-59735Y105443D01*
X-59004Y106004D01*
X-58443Y106735D01*
X-58090Y107586D01*
X-57970Y108500D01*
X-58090Y109414D01*
X-58443Y110265D01*
X-59004Y110996D01*
X-59735Y111557D01*
X-60586Y111910D01*
X-61500Y112030D01*
D02*
G37*
G36*
X62000D02*
X61086Y111910D01*
X60235Y111557D01*
X59504Y110996D01*
X58943Y110265D01*
X58590Y109414D01*
X58470Y108500D01*
X58590Y107586D01*
X58943Y106735D01*
X59504Y106004D01*
X60235Y105443D01*
X61086Y105090D01*
X62000Y104970D01*
X62271Y105006D01*
X62549Y104538D01*
X61705Y103375D01*
X69056Y98035D01*
X73703Y104430D01*
X66351Y109771D01*
X65911Y109165D01*
X65426Y109288D01*
X65410Y109414D01*
X65057Y110265D01*
X64496Y110996D01*
X63765Y111557D01*
X62914Y111910D01*
X62000Y112030D01*
D02*
G37*
G36*
X-76544Y102366D02*
X-83895Y97025D01*
X-82913Y95674D01*
X-82914Y95669D01*
X-83233Y95264D01*
X-83586Y95410D01*
X-84500Y95530D01*
X-85414Y95410D01*
X-86265Y95057D01*
X-86996Y94496D01*
X-87557Y93765D01*
X-87910Y92914D01*
X-88030Y92000D01*
X-87910Y91086D01*
X-87557Y90235D01*
X-86996Y89504D01*
X-86265Y88943D01*
X-85414Y88590D01*
X-84500Y88470D01*
X-83586Y88590D01*
X-82735Y88943D01*
X-82004Y89504D01*
X-81443Y90235D01*
X-81090Y91086D01*
X-80970Y92000D01*
X-80999Y92225D01*
X-80603Y92495D01*
X-79248Y90629D01*
X-71897Y95970D01*
X-76544Y102366D01*
D02*
G37*
G36*
X76544Y102366D02*
X71897Y95970D01*
X73991Y94449D01*
X74065Y93954D01*
X73678Y93441D01*
X73000Y93530D01*
X72086Y93410D01*
X71235Y93057D01*
X70504Y92496D01*
X69943Y91765D01*
X69590Y90914D01*
X69470Y90000D01*
X69590Y89086D01*
X69943Y88235D01*
X70504Y87504D01*
X71235Y86943D01*
X72086Y86590D01*
X73000Y86470D01*
X73914Y86590D01*
X74765Y86943D01*
X75496Y87504D01*
X76057Y88235D01*
X76410Y89086D01*
X76530Y90000D01*
X76410Y90914D01*
X76124Y91604D01*
X76754Y92441D01*
X79248Y90629D01*
X83895Y97025D01*
X76544Y102366D01*
D02*
G37*
G36*
X58500Y100487D02*
X57468Y100351D01*
X56507Y99953D01*
X55681Y99319D01*
X55047Y98493D01*
X54649Y97532D01*
X54513Y96500D01*
X54649Y95468D01*
X55047Y94507D01*
X55681Y93681D01*
X56507Y93047D01*
X57468Y92649D01*
X58500Y92513D01*
X59532Y92649D01*
X60493Y93047D01*
X61319Y93681D01*
X61953Y94507D01*
X62351Y95468D01*
X62487Y96500D01*
X62351Y97532D01*
X61953Y98493D01*
X61319Y99319D01*
X60493Y99953D01*
X59532Y100351D01*
X58500Y100487D01*
D02*
G37*
G36*
X0Y102741D02*
X-1142Y102628D01*
X-2239Y102295D01*
X-3251Y101755D01*
X-4137Y101027D01*
X-4865Y100140D01*
X-5406Y99129D01*
X-5739Y98031D01*
X-5851Y96890D01*
X-5739Y95748D01*
X-5406Y94651D01*
X-4865Y93639D01*
X-4137Y92752D01*
X-3251Y92025D01*
X-2239Y91484D01*
X-1142Y91151D01*
X0Y91039D01*
X1142Y91151D01*
X2239Y91484D01*
X3251Y92025D01*
X4137Y92752D01*
X4865Y93639D01*
X5406Y94651D01*
X5739Y95748D01*
X5851Y96890D01*
X5739Y98031D01*
X5406Y99129D01*
X4865Y100140D01*
X4137Y101027D01*
X3251Y101755D01*
X2239Y102295D01*
X1142Y102628D01*
X0Y102741D01*
D02*
G37*
G36*
X58500Y90487D02*
X57468Y90351D01*
X56507Y89953D01*
X55681Y89319D01*
X55047Y88493D01*
X54649Y87532D01*
X54513Y86500D01*
X54649Y85468D01*
X55047Y84507D01*
X55681Y83681D01*
X56507Y83047D01*
X57468Y82649D01*
X58500Y82513D01*
X59532Y82649D01*
X60493Y83047D01*
X61319Y83681D01*
X61953Y84507D01*
X62351Y85468D01*
X62487Y86500D01*
X62351Y87532D01*
X61953Y88493D01*
X61319Y89319D01*
X60493Y89953D01*
X59532Y90351D01*
X58500Y90487D01*
D02*
G37*
G36*
X-58000D02*
X-59032Y90351D01*
X-59993Y89953D01*
X-60819Y89319D01*
X-61453Y88493D01*
X-61851Y87532D01*
X-61987Y86500D01*
X-61851Y85468D01*
X-61453Y84507D01*
X-60819Y83681D01*
X-59993Y83047D01*
X-59032Y82649D01*
X-58000Y82513D01*
X-56968Y82649D01*
X-56007Y83047D01*
X-55181Y83681D01*
X-54547Y84507D01*
X-54149Y85468D01*
X-54013Y86500D01*
X-54149Y87532D01*
X-54547Y88493D01*
X-55181Y89319D01*
X-56007Y89953D01*
X-56968Y90351D01*
X-58000Y90487D01*
D02*
G37*
G36*
X58500Y80487D02*
X57468Y80351D01*
X56507Y79953D01*
X55681Y79319D01*
X55047Y78493D01*
X54649Y77532D01*
X54513Y76500D01*
X54649Y75468D01*
X55047Y74507D01*
X55681Y73681D01*
X56507Y73047D01*
X57468Y72649D01*
X58500Y72513D01*
X59532Y72649D01*
X60493Y73047D01*
X61319Y73681D01*
X61953Y74507D01*
X62351Y75468D01*
X62487Y76500D01*
X62351Y77532D01*
X61953Y78493D01*
X61319Y79319D01*
X60493Y79953D01*
X59532Y80351D01*
X58500Y80487D01*
D02*
G37*
G36*
X-58000D02*
X-59032Y80351D01*
X-59993Y79953D01*
X-60819Y79319D01*
X-61453Y78493D01*
X-61851Y77532D01*
X-61987Y76500D01*
X-61851Y75468D01*
X-61453Y74507D01*
X-60819Y73681D01*
X-59993Y73047D01*
X-59032Y72649D01*
X-58000Y72513D01*
X-56968Y72649D01*
X-56007Y73047D01*
X-55181Y73681D01*
X-54547Y74507D01*
X-54149Y75468D01*
X-54013Y76500D01*
X-54149Y77532D01*
X-54547Y78493D01*
X-55181Y79319D01*
X-56007Y79953D01*
X-56968Y80351D01*
X-58000Y80487D01*
D02*
G37*
G36*
X58500Y70487D02*
X57468Y70351D01*
X56507Y69953D01*
X55681Y69319D01*
X55047Y68493D01*
X54649Y67532D01*
X54513Y66500D01*
X54649Y65468D01*
X55047Y64507D01*
X55681Y63681D01*
X56507Y63047D01*
X57468Y62649D01*
X58500Y62513D01*
X59532Y62649D01*
X60493Y63047D01*
X61319Y63681D01*
X61953Y64507D01*
X62351Y65468D01*
X62487Y66500D01*
X62351Y67532D01*
X61953Y68493D01*
X61319Y69319D01*
X60493Y69953D01*
X59532Y70351D01*
X58500Y70487D01*
D02*
G37*
G36*
X-58000D02*
X-59032Y70351D01*
X-59993Y69953D01*
X-60819Y69319D01*
X-61453Y68493D01*
X-61851Y67532D01*
X-61987Y66500D01*
X-61851Y65468D01*
X-61453Y64507D01*
X-60819Y63681D01*
X-59993Y63047D01*
X-59032Y62649D01*
X-58000Y62513D01*
X-56968Y62649D01*
X-56007Y63047D01*
X-55181Y63681D01*
X-54547Y64507D01*
X-54149Y65468D01*
X-54013Y66500D01*
X-54149Y67532D01*
X-54547Y68493D01*
X-55181Y69319D01*
X-56007Y69953D01*
X-56968Y70351D01*
X-58000Y70487D01*
D02*
G37*
G36*
X-86047Y68953D02*
X-93953D01*
Y61047D01*
X-86047D01*
Y68953D01*
D02*
G37*
G36*
X-90000Y48987D02*
X-91032Y48851D01*
X-91993Y48453D01*
X-92819Y47819D01*
X-93453Y46993D01*
X-93851Y46032D01*
X-93987Y45000D01*
X-93851Y43968D01*
X-93453Y43007D01*
X-92819Y42181D01*
X-91993Y41547D01*
X-91032Y41149D01*
X-90000Y41013D01*
X-88968Y41149D01*
X-88007Y41547D01*
X-87181Y42181D01*
X-86547Y43007D01*
X-86149Y43968D01*
X-86013Y45000D01*
X-86149Y46032D01*
X-86547Y46993D01*
X-87181Y47819D01*
X-88007Y48453D01*
X-88968Y48851D01*
X-90000Y48987D01*
D02*
G37*
G36*
X113500Y54530D02*
X112586Y54410D01*
X111735Y54057D01*
X111004Y53496D01*
X110443Y52765D01*
X110090Y51914D01*
X109970Y51000D01*
X110090Y50086D01*
X110443Y49235D01*
X111004Y48504D01*
X111471Y48145D01*
X111375Y47589D01*
X110683Y47363D01*
X113491Y38722D01*
X121009Y41164D01*
X118201Y49806D01*
X117143Y49463D01*
X116804Y49830D01*
X116910Y50086D01*
X117030Y51000D01*
X116910Y51914D01*
X116557Y52765D01*
X115996Y53496D01*
X115265Y54057D01*
X114414Y54410D01*
X113500Y54530D01*
D02*
G37*
G36*
X-118201Y49806D02*
X-121009Y41164D01*
X-113490Y38722D01*
X-113019Y40173D01*
X-112498Y40158D01*
X-111996Y39504D01*
X-111265Y38943D01*
X-110414Y38590D01*
X-109500Y38470D01*
X-108586Y38590D01*
X-107735Y38943D01*
X-107004Y39504D01*
X-106443Y40235D01*
X-106090Y41086D01*
X-105970Y42000D01*
X-106090Y42914D01*
X-106443Y43765D01*
X-107004Y44496D01*
X-107735Y45057D01*
X-108586Y45410D01*
X-109500Y45530D01*
X-110414Y45410D01*
X-110850Y45229D01*
X-111255Y45603D01*
X-110683Y47363D01*
X-118201Y49806D01*
D02*
G37*
G36*
X-74500Y38921D02*
Y35500D01*
X-71079D01*
X-71149Y36032D01*
X-71547Y36993D01*
X-72181Y37819D01*
X-73007Y38453D01*
X-73968Y38851D01*
X-74500Y38921D01*
D02*
G37*
G36*
X-75500D02*
X-76032Y38851D01*
X-76993Y38453D01*
X-77819Y37819D01*
X-78453Y36993D01*
X-78851Y36032D01*
X-78921Y35500D01*
X-75500D01*
Y38921D01*
D02*
G37*
G36*
X122094Y37825D02*
X114576Y35382D01*
X115138Y33651D01*
X114734Y33277D01*
X114414Y33410D01*
X113500Y33530D01*
X112586Y33410D01*
X111735Y33057D01*
X111004Y32496D01*
X110443Y31765D01*
X110090Y30914D01*
X109970Y30000D01*
X110090Y29086D01*
X110443Y28235D01*
X111004Y27504D01*
X111735Y26943D01*
X112586Y26590D01*
X113500Y26470D01*
X114414Y26590D01*
X115265Y26943D01*
X115996Y27504D01*
X116427Y28065D01*
X116973Y28003D01*
X117384Y26740D01*
X124902Y29183D01*
X122094Y37825D01*
D02*
G37*
G36*
X41985Y32500D02*
X41000Y32500D01*
X40015Y32500D01*
X38083Y32116D01*
X36263Y31362D01*
X34625Y30268D01*
X33233Y28875D01*
X32138Y27237D01*
X31384Y25417D01*
X31000Y23485D01*
X31000Y22500D01*
X31000Y21515D01*
X31384Y19583D01*
X32138Y17763D01*
X33233Y16125D01*
X34625Y14732D01*
X36263Y13638D01*
X38083Y12884D01*
X40015Y12500D01*
X41000Y12500D01*
X41985Y12500D01*
X43917Y12884D01*
X45737Y13638D01*
X47375Y14732D01*
X48768Y16125D01*
X49862Y17763D01*
X50616Y19583D01*
X51000Y21515D01*
Y23485D01*
X50616Y25417D01*
X49862Y27237D01*
X48768Y28875D01*
X47375Y30268D01*
X45737Y31362D01*
X43917Y32116D01*
X41985Y32500D01*
D02*
G37*
G36*
X-40015D02*
X-41000Y32500D01*
X-41985Y32500D01*
X-43917Y32116D01*
X-45737Y31362D01*
X-47375Y30268D01*
X-48768Y28875D01*
X-49862Y27237D01*
X-50616Y25417D01*
X-51000Y23485D01*
X-51000Y22500D01*
X-51000Y21515D01*
X-50616Y19583D01*
X-49862Y17763D01*
X-48768Y16125D01*
X-47375Y14732D01*
X-45737Y13638D01*
X-43917Y12884D01*
X-41985Y12500D01*
X-41000Y12500D01*
X-40015Y12500D01*
X-38083Y12884D01*
X-36263Y13638D01*
X-34625Y14732D01*
X-33233Y16125D01*
X-32138Y17763D01*
X-31384Y19583D01*
X-31000Y21515D01*
Y23485D01*
X-31384Y25417D01*
X-32138Y27237D01*
X-33233Y28875D01*
X-34625Y30268D01*
X-36263Y31362D01*
X-38083Y32116D01*
X-40015Y32500D01*
D02*
G37*
G36*
X-71079Y34500D02*
X-74500D01*
Y31079D01*
X-73968Y31149D01*
X-73007Y31547D01*
X-72181Y32181D01*
X-71547Y33007D01*
X-71149Y33968D01*
X-71079Y34500D01*
D02*
G37*
G36*
X-75500D02*
X-78921D01*
X-78851Y33968D01*
X-78453Y33007D01*
X-77819Y32181D01*
X-76993Y31547D01*
X-76032Y31149D01*
X-75500Y31079D01*
Y34500D01*
D02*
G37*
G36*
X-122094Y37825D02*
X-124902Y29183D01*
X-123522Y28734D01*
X-123281Y28199D01*
X-123408Y27923D01*
X-123426Y27905D01*
X-124265Y27557D01*
X-124996Y26996D01*
X-125557Y26265D01*
X-125910Y25414D01*
X-126030Y24500D01*
X-125910Y23586D01*
X-125557Y22735D01*
X-124996Y22004D01*
X-124265Y21443D01*
X-123414Y21090D01*
X-122500Y20970D01*
X-121586Y21090D01*
X-120735Y21443D01*
X-120004Y22004D01*
X-119443Y22735D01*
X-119090Y23586D01*
X-118970Y24500D01*
X-119090Y25414D01*
X-119443Y26265D01*
X-119810Y26744D01*
X-119561Y27447D01*
X-117384Y26740D01*
X-114576Y35382D01*
X-122094Y37825D01*
D02*
G37*
G36*
X58500Y60487D02*
X57468Y60351D01*
X56507Y59953D01*
X55681Y59319D01*
X55047Y58493D01*
X54649Y57532D01*
X54513Y56500D01*
X54649Y55468D01*
X55047Y54507D01*
X55681Y53681D01*
X56507Y53047D01*
X57468Y52649D01*
X58500Y52513D01*
X59532Y52649D01*
X59996Y52841D01*
X77807Y35030D01*
X77709Y34540D01*
X77613Y34500D01*
X76417Y33583D01*
X75500Y32387D01*
X74923Y30994D01*
X74726Y29500D01*
X74923Y28006D01*
X75500Y26613D01*
X76417Y25417D01*
X77613Y24500D01*
X79006Y23923D01*
X80500Y23726D01*
X81994Y23923D01*
X83387Y24500D01*
X84583Y25417D01*
X85500Y26613D01*
X86077Y28006D01*
X86274Y29500D01*
X86077Y30994D01*
X85500Y32387D01*
X84583Y33583D01*
X83387Y34500D01*
X81994Y35077D01*
X81911Y35088D01*
X81581Y35581D01*
X62159Y55004D01*
X62351Y55468D01*
X62487Y56500D01*
X62351Y57532D01*
X61953Y58493D01*
X61319Y59319D01*
X60493Y59953D01*
X59532Y60351D01*
X58500Y60487D01*
D02*
G37*
G36*
X62500Y35274D02*
X61006Y35077D01*
X59613Y34500D01*
X58417Y33583D01*
X57500Y32387D01*
X56923Y30994D01*
X56726Y29500D01*
X56923Y28006D01*
X57500Y26613D01*
X58417Y25417D01*
X59613Y24500D01*
X61006Y23923D01*
X62500Y23726D01*
X63994Y23923D01*
X65387Y24500D01*
X66583Y25417D01*
X67500Y26613D01*
X68077Y28006D01*
X68274Y29500D01*
X68077Y30994D01*
X67500Y32387D01*
X66583Y33583D01*
X65387Y34500D01*
X63994Y35077D01*
X62500Y35274D01*
D02*
G37*
G36*
X-75000Y28987D02*
X-76032Y28851D01*
X-76993Y28453D01*
X-77819Y27819D01*
X-78453Y26993D01*
X-78851Y26032D01*
X-78987Y25000D01*
X-78851Y23968D01*
X-78453Y23007D01*
X-77819Y22181D01*
X-76993Y21547D01*
X-76032Y21149D01*
X-75000Y21013D01*
X-73968Y21149D01*
X-73007Y21547D01*
X-72181Y22181D01*
X-71547Y23007D01*
X-71149Y23968D01*
X-71013Y25000D01*
X-71149Y26032D01*
X-71547Y26993D01*
X-72181Y27819D01*
X-73007Y28453D01*
X-73968Y28851D01*
X-75000Y28987D01*
D02*
G37*
G36*
X-26744Y6905D02*
X-30000D01*
Y4043D01*
X-26744D01*
Y6905D01*
D02*
G37*
G36*
X-31000D02*
X-34256D01*
Y4043D01*
X-31000D01*
Y6905D01*
D02*
G37*
G36*
X45000Y10988D02*
X43838Y10836D01*
X42756Y10387D01*
X41826Y9674D01*
X41113Y8744D01*
X40664Y7662D01*
X40512Y6500D01*
X40664Y5338D01*
X41113Y4256D01*
X41826Y3326D01*
X42756Y2613D01*
X43838Y2165D01*
X45000Y2012D01*
X46162Y2165D01*
X47244Y2613D01*
X48174Y3326D01*
X48887Y4256D01*
X49336Y5338D01*
X49488Y6500D01*
X49336Y7662D01*
X48887Y8744D01*
X48174Y9674D01*
X47244Y10387D01*
X46162Y10836D01*
X45000Y10988D01*
D02*
G37*
G36*
X-45000D02*
X-46162Y10836D01*
X-47244Y10387D01*
X-48174Y9674D01*
X-48887Y8744D01*
X-49336Y7662D01*
X-49488Y6500D01*
X-49336Y5338D01*
X-48887Y4256D01*
X-48174Y3326D01*
X-47244Y2613D01*
X-46162Y2165D01*
X-45000Y2012D01*
X-43838Y2165D01*
X-42756Y2613D01*
X-41826Y3326D01*
X-41113Y4256D01*
X-40664Y5338D01*
X-40512Y6500D01*
X-40664Y7662D01*
X-41113Y8744D01*
X-41826Y9674D01*
X-42756Y10387D01*
X-43838Y10836D01*
X-45000Y10988D01*
D02*
G37*
G36*
X80500Y9274D02*
X79006Y9077D01*
X77613Y8500D01*
X76417Y7583D01*
X75500Y6387D01*
X74923Y4994D01*
X74726Y3500D01*
X74923Y2006D01*
X75500Y613D01*
X76417Y-583D01*
X77613Y-1500D01*
X79006Y-2077D01*
X80500Y-2274D01*
X81994Y-2077D01*
X83387Y-1500D01*
X84583Y-583D01*
X85500Y613D01*
X86077Y2006D01*
X86274Y3500D01*
X86077Y4994D01*
X85500Y6387D01*
X84583Y7583D01*
X83387Y8500D01*
X81994Y9077D01*
X80500Y9274D01*
D02*
G37*
G36*
X62500D02*
X61006Y9077D01*
X59613Y8500D01*
X58417Y7583D01*
X57500Y6387D01*
X56923Y4994D01*
X56726Y3500D01*
X56923Y2006D01*
X57500Y613D01*
X58417Y-583D01*
X59613Y-1500D01*
X61006Y-2077D01*
X62500Y-2274D01*
X63994Y-2077D01*
X65387Y-1500D01*
X66583Y-583D01*
X67500Y613D01*
X68077Y2006D01*
X68274Y3500D01*
X68077Y4994D01*
X67500Y6387D01*
X66583Y7583D01*
X65387Y8500D01*
X63994Y9077D01*
X62500Y9274D01*
D02*
G37*
G36*
X45000Y988D02*
X43838Y836D01*
X42756Y387D01*
X41826Y-326D01*
X41113Y-1256D01*
X40664Y-2338D01*
X40512Y-3500D01*
X40664Y-4662D01*
X41113Y-5744D01*
X41826Y-6674D01*
X42756Y-7387D01*
X43838Y-7835D01*
X45000Y-7988D01*
X46162Y-7835D01*
X47244Y-7387D01*
X48174Y-6674D01*
X48887Y-5744D01*
X49336Y-4662D01*
X49488Y-3500D01*
X49336Y-2338D01*
X48887Y-1256D01*
X48174Y-326D01*
X47244Y387D01*
X46162Y836D01*
X45000Y988D01*
D02*
G37*
G36*
Y-9012D02*
X43838Y-9165D01*
X42756Y-9613D01*
X41826Y-10326D01*
X41113Y-11256D01*
X40664Y-12338D01*
X40512Y-13500D01*
X40664Y-14662D01*
X41113Y-15744D01*
X41826Y-16674D01*
X42756Y-17387D01*
X43838Y-17835D01*
X45000Y-17988D01*
X46162Y-17835D01*
X47244Y-17387D01*
X48174Y-16674D01*
X48887Y-15744D01*
X49336Y-14662D01*
X49488Y-13500D01*
X49336Y-12338D01*
X48887Y-11256D01*
X48174Y-10326D01*
X47244Y-9613D01*
X46162Y-9165D01*
X45000Y-9012D01*
D02*
G37*
G36*
X-67500Y-13365D02*
X-68570Y-13506D01*
X-69568Y-13919D01*
X-70424Y-14576D01*
X-71081Y-15432D01*
X-71304Y-15971D01*
X-73000D01*
X-73585Y-16087D01*
X-74081Y-16419D01*
X-100215Y-42552D01*
X-100547Y-43049D01*
X-100663Y-43634D01*
Y-50319D01*
X-102693D01*
Y-54681D01*
X-95575D01*
Y-50319D01*
X-97605D01*
Y-44267D01*
X-72366Y-19029D01*
X-71304D01*
X-71081Y-19568D01*
X-70424Y-20424D01*
X-69568Y-21081D01*
X-68570Y-21495D01*
X-67500Y-21635D01*
X-66430Y-21495D01*
X-65432Y-21081D01*
X-64576Y-20424D01*
X-63919Y-19568D01*
X-63506Y-18570D01*
X-63365Y-17500D01*
X-63506Y-16430D01*
X-63919Y-15432D01*
X-64576Y-14576D01*
X-65432Y-13919D01*
X-66430Y-13506D01*
X-67500Y-13365D01*
D02*
G37*
G36*
X21161Y-17776D02*
X15453D01*
X14602Y-17945D01*
X13880Y-18428D01*
X13398Y-19149D01*
X13229Y-20000D01*
X13398Y-20851D01*
X13880Y-21573D01*
X14602Y-22055D01*
X15453Y-22224D01*
X21161D01*
X22012Y-22055D01*
X22734Y-21573D01*
X23216Y-20851D01*
X23385Y-20000D01*
X23216Y-19149D01*
X22734Y-18428D01*
X22012Y-17945D01*
X21161Y-17776D01*
D02*
G37*
G36*
X-69500Y61529D02*
X-79000D01*
X-79585Y61413D01*
X-80081Y61081D01*
X-81081Y60081D01*
X-81413Y59585D01*
X-81529Y59000D01*
Y50000D01*
X-81413Y49415D01*
X-81081Y48919D01*
X-78659Y46496D01*
X-78851Y46032D01*
X-78987Y45000D01*
X-78851Y43968D01*
X-78453Y43007D01*
X-77819Y42181D01*
X-76993Y41547D01*
X-76032Y41149D01*
X-75000Y41013D01*
X-73968Y41149D01*
X-73007Y41547D01*
X-72181Y42181D01*
X-71547Y43007D01*
X-71149Y43968D01*
X-71013Y45000D01*
X-71149Y46032D01*
X-71547Y46993D01*
X-72181Y47819D01*
X-73007Y48453D01*
X-73968Y48851D01*
X-75000Y48987D01*
X-76032Y48851D01*
X-76496Y48659D01*
X-78384Y50547D01*
X-78262Y51047D01*
X-71047D01*
Y53471D01*
X-68133D01*
X-61029Y46367D01*
Y1000D01*
X-60913Y415D01*
X-60581Y-81D01*
X-49039Y-11624D01*
X-49336Y-12338D01*
X-49488Y-13500D01*
X-49336Y-14662D01*
X-48887Y-15744D01*
X-48174Y-16674D01*
X-47244Y-17387D01*
X-46162Y-17835D01*
X-45000Y-17988D01*
X-43838Y-17835D01*
X-42756Y-17387D01*
X-41826Y-16674D01*
X-41113Y-15744D01*
X-40817Y-15029D01*
X-35634D01*
X-34073Y-16590D01*
Y-29285D01*
X-33956Y-29870D01*
X-33625Y-30367D01*
X-28029Y-35962D01*
Y-39500D01*
X-27913Y-40085D01*
X-27581Y-40581D01*
X-23362Y-44801D01*
Y-49756D01*
X-16776D01*
X-16638Y-49756D01*
X-16276D01*
X-16138Y-49756D01*
X-13413D01*
Y-46000D01*
Y-42244D01*
X-16138D01*
X-16276Y-42244D01*
X-16638D01*
X-16776Y-42244D01*
X-17555D01*
X-17804Y-41744D01*
X-17643Y-41529D01*
X-13000D01*
X-12415Y-41413D01*
X-11919Y-41081D01*
X-9919Y-39081D01*
X-9587Y-38585D01*
X-9471Y-38000D01*
Y-32000D01*
X-9587Y-31415D01*
X-9919Y-30919D01*
X-11919Y-28919D01*
X-12415Y-28587D01*
X-13000Y-28471D01*
X-13851D01*
X-13880Y-28427D01*
X-14602Y-27945D01*
X-15453Y-27776D01*
X-21161D01*
X-22012Y-27945D01*
X-22734Y-28427D01*
X-23216Y-29149D01*
X-23385Y-30000D01*
X-23216Y-30851D01*
X-22734Y-31572D01*
X-22012Y-32055D01*
X-21161Y-32224D01*
X-15453D01*
X-14602Y-32055D01*
X-13880Y-31572D01*
X-13422Y-31740D01*
X-12529Y-32634D01*
Y-37367D01*
X-13634Y-38471D01*
X-18500D01*
X-19085Y-38587D01*
X-19581Y-38919D01*
X-21081Y-40419D01*
X-21413Y-40915D01*
X-21529Y-41500D01*
Y-41601D01*
X-22029Y-41808D01*
X-24971Y-38866D01*
Y-36711D01*
X-24471Y-36436D01*
X-24000Y-36529D01*
X-22763D01*
X-22734Y-36573D01*
X-22012Y-37055D01*
X-21161Y-37224D01*
X-15453D01*
X-14602Y-37055D01*
X-13880Y-36573D01*
X-13398Y-35851D01*
X-13229Y-35000D01*
X-13398Y-34149D01*
X-13880Y-33428D01*
X-14602Y-32945D01*
X-15453Y-32776D01*
X-21161D01*
X-22012Y-32945D01*
X-22734Y-33428D01*
X-22763Y-33471D01*
X-23367D01*
X-29014Y-27823D01*
Y-10770D01*
X-28533Y-10679D01*
X-28271Y-11311D01*
X-27854Y-11854D01*
X-27311Y-12271D01*
X-26679Y-12533D01*
X-26000Y-12622D01*
X-25321Y-12533D01*
X-24689Y-12271D01*
X-24146Y-11854D01*
X-23896Y-11529D01*
X-22763D01*
X-22734Y-11573D01*
X-22012Y-12055D01*
X-21161Y-12224D01*
X-19837D01*
Y-12776D01*
X-21161D01*
X-22012Y-12945D01*
X-22734Y-13428D01*
X-23216Y-14149D01*
X-23385Y-15000D01*
X-23216Y-15851D01*
X-22734Y-16572D01*
X-22012Y-17055D01*
X-21161Y-17224D01*
X-19837D01*
Y-17776D01*
X-21161D01*
X-22012Y-17945D01*
X-22734Y-18428D01*
X-23216Y-19149D01*
X-23385Y-20000D01*
X-23216Y-20851D01*
X-22734Y-21573D01*
X-22012Y-22055D01*
X-21161Y-22224D01*
X-15453D01*
X-14602Y-22055D01*
X-13880Y-21573D01*
X-13398Y-20851D01*
X-13229Y-20000D01*
X-13398Y-19149D01*
X-13880Y-18428D01*
X-14602Y-17945D01*
X-15453Y-17776D01*
X-16778D01*
Y-17224D01*
X-15453D01*
X-14602Y-17055D01*
X-13880Y-16572D01*
X-13398Y-15851D01*
X-13229Y-15000D01*
X-13398Y-14149D01*
X-13880Y-13428D01*
X-14602Y-12945D01*
X-15453Y-12776D01*
X-16778D01*
Y-12224D01*
X-15453D01*
X-14602Y-12055D01*
X-13880Y-11573D01*
X-13398Y-10851D01*
X-13229Y-10000D01*
X-13398Y-9149D01*
X-13880Y-8427D01*
X-14602Y-7945D01*
X-15453Y-7776D01*
X-16778D01*
Y-7224D01*
X-15453D01*
X-14602Y-7055D01*
X-13880Y-6572D01*
X-13398Y-5851D01*
X-13229Y-5000D01*
X-13398Y-4149D01*
X-13880Y-3427D01*
X-14602Y-2945D01*
X-15453Y-2776D01*
X-16778D01*
Y-2224D01*
X-15453D01*
X-14602Y-2055D01*
X-13880Y-1572D01*
X-13398Y-851D01*
X-13229Y0D01*
X-13398Y851D01*
X-13880Y1572D01*
X-14602Y2055D01*
X-15453Y2224D01*
X-21161D01*
X-22012Y2055D01*
X-22734Y1572D01*
X-23216Y851D01*
X-23385Y0D01*
X-23216Y-851D01*
X-22734Y-1572D01*
X-22012Y-2055D01*
X-21161Y-2224D01*
X-19837D01*
Y-2776D01*
X-21161D01*
X-22012Y-2945D01*
X-22734Y-3427D01*
X-23216Y-4149D01*
X-23385Y-5000D01*
X-23216Y-5851D01*
X-22734Y-6572D01*
X-22012Y-7055D01*
X-21161Y-7224D01*
X-19837D01*
Y-7776D01*
X-21161D01*
X-22012Y-7945D01*
X-22734Y-8427D01*
X-22763Y-8471D01*
X-23896D01*
X-24146Y-8146D01*
X-24689Y-7729D01*
X-25321Y-7467D01*
X-26000Y-7378D01*
X-26679Y-7467D01*
X-27311Y-7729D01*
X-27854Y-8146D01*
X-28271Y-8689D01*
X-28533Y-9321D01*
X-29014Y-9230D01*
Y-6905D01*
X-26744D01*
Y-319D01*
X-26744Y-181D01*
Y181D01*
X-26744Y319D01*
Y3043D01*
X-30500D01*
X-34256D01*
Y319D01*
X-34256Y181D01*
Y-181D01*
X-34256Y-319D01*
Y-1971D01*
X-40817D01*
X-41113Y-1256D01*
X-41826Y-326D01*
X-42756Y387D01*
X-43838Y836D01*
X-45000Y988D01*
X-46162Y836D01*
X-47244Y387D01*
X-48174Y-326D01*
X-48887Y-1256D01*
X-49183Y-1971D01*
X-51538D01*
X-55971Y2462D01*
Y48000D01*
X-56087Y48585D01*
X-56419Y49081D01*
X-68419Y61081D01*
X-68915Y61413D01*
X-69500Y61529D01*
D02*
G37*
G36*
X0Y24394D02*
X-1142Y24282D01*
X-2239Y23949D01*
X-3251Y23408D01*
X-4137Y22681D01*
X-4865Y21794D01*
X-5406Y20782D01*
X-5739Y19685D01*
X-5851Y18543D01*
X-5739Y17402D01*
X-5406Y16304D01*
X-4865Y15293D01*
X-4137Y14406D01*
X-3251Y13678D01*
X-2239Y13138D01*
X-1529Y12922D01*
Y-18867D01*
X-6134Y-23471D01*
X-13851D01*
X-13880Y-23427D01*
X-14602Y-22945D01*
X-15453Y-22776D01*
X-21161D01*
X-22012Y-22945D01*
X-22734Y-23427D01*
X-23216Y-24149D01*
X-23385Y-25000D01*
X-23216Y-25851D01*
X-22734Y-26572D01*
X-22012Y-27055D01*
X-21161Y-27224D01*
X-15453D01*
X-14602Y-27055D01*
X-13880Y-26572D01*
X-13851Y-26529D01*
X-5500D01*
X-4915Y-26413D01*
X-4419Y-26081D01*
X1081Y-20582D01*
X1413Y-20085D01*
X1529Y-19500D01*
Y12922D01*
X2239Y13138D01*
X3251Y13678D01*
X4137Y14406D01*
X4865Y15293D01*
X5406Y16304D01*
X5739Y17402D01*
X5851Y18543D01*
X5739Y19685D01*
X5406Y20782D01*
X4865Y21794D01*
X4137Y22681D01*
X3251Y23408D01*
X2239Y23949D01*
X1142Y24282D01*
X0Y24394D01*
D02*
G37*
G36*
X122000Y-21470D02*
X121086Y-21590D01*
X120235Y-21943D01*
X119504Y-22504D01*
X118943Y-23235D01*
X118590Y-24086D01*
X118470Y-25000D01*
X118590Y-25914D01*
X118921Y-26714D01*
X118836Y-26878D01*
X118595Y-27133D01*
X117384Y-26740D01*
X114576Y-35382D01*
X122094Y-37825D01*
X124902Y-29183D01*
X123475Y-28719D01*
X123453Y-28186D01*
X123765Y-28057D01*
X124496Y-27496D01*
X125057Y-26765D01*
X125410Y-25914D01*
X125530Y-25000D01*
X125410Y-24086D01*
X125057Y-23235D01*
X124496Y-22504D01*
X123765Y-21943D01*
X122914Y-21590D01*
X122000Y-21470D01*
D02*
G37*
G36*
X21161Y-22776D02*
X15453D01*
X14602Y-22945D01*
X13880Y-23427D01*
X13398Y-24149D01*
X13229Y-25000D01*
X13398Y-25851D01*
X13880Y-26572D01*
X14602Y-27055D01*
X15453Y-27224D01*
X21161D01*
X22012Y-27055D01*
X22734Y-26572D01*
X23216Y-25851D01*
X23385Y-25000D01*
X23216Y-24149D01*
X22734Y-23427D01*
X22012Y-22945D01*
X21161Y-22776D01*
D02*
G37*
G36*
X45000Y-19012D02*
X43838Y-19164D01*
X42756Y-19613D01*
X41826Y-20326D01*
X41113Y-21256D01*
X40664Y-22338D01*
X40512Y-23500D01*
X40664Y-24662D01*
X41113Y-25744D01*
X41826Y-26674D01*
X42756Y-27387D01*
X43838Y-27836D01*
X45000Y-27988D01*
X46162Y-27836D01*
X47244Y-27387D01*
X48174Y-26674D01*
X48887Y-25744D01*
X49336Y-24662D01*
X49488Y-23500D01*
X49336Y-22338D01*
X48887Y-21256D01*
X48174Y-20326D01*
X47244Y-19613D01*
X46162Y-19164D01*
X45000Y-19012D01*
D02*
G37*
G36*
X-113000Y-26470D02*
X-113914Y-26590D01*
X-114765Y-26943D01*
X-115496Y-27504D01*
X-116057Y-28235D01*
X-116234Y-28661D01*
X-116766Y-28640D01*
X-117384Y-26740D01*
X-124902Y-29183D01*
X-122094Y-37825D01*
X-114576Y-35382D01*
X-115246Y-33318D01*
X-114819Y-33016D01*
X-114765Y-33057D01*
X-113914Y-33410D01*
X-113000Y-33530D01*
X-112086Y-33410D01*
X-111235Y-33057D01*
X-110504Y-32496D01*
X-109943Y-31765D01*
X-109590Y-30914D01*
X-109470Y-30000D01*
X-109590Y-29086D01*
X-109943Y-28235D01*
X-110504Y-27504D01*
X-111235Y-26943D01*
X-112086Y-26590D01*
X-113000Y-26470D01*
D02*
G37*
G36*
X21161Y2224D02*
X15453D01*
X14602Y2055D01*
X13880Y1572D01*
X13398Y851D01*
X13229Y0D01*
X13398Y-851D01*
X13880Y-1572D01*
X14602Y-2055D01*
X15453Y-2224D01*
X16778D01*
Y-2776D01*
X15453D01*
X14602Y-2945D01*
X13880Y-3427D01*
X13398Y-4149D01*
X13229Y-5000D01*
X13398Y-5851D01*
X13880Y-6572D01*
X14602Y-7055D01*
X15453Y-7224D01*
X16778D01*
Y-7776D01*
X15453D01*
X14602Y-7945D01*
X13880Y-8427D01*
X13398Y-9149D01*
X13229Y-10000D01*
X13398Y-10851D01*
X13880Y-11573D01*
X14602Y-12055D01*
X15453Y-12224D01*
X16778D01*
Y-12776D01*
X15453D01*
X14602Y-12945D01*
X13880Y-13428D01*
X13398Y-14149D01*
X13229Y-15000D01*
X13398Y-15851D01*
X13880Y-16572D01*
X14602Y-17055D01*
X15453Y-17224D01*
X21161D01*
X22012Y-17055D01*
X22734Y-16572D01*
X22763Y-16529D01*
X23896D01*
X24146Y-16854D01*
X24689Y-17271D01*
X25321Y-17533D01*
X26000Y-17622D01*
X26679Y-17533D01*
X27311Y-17271D01*
X27854Y-16854D01*
X28271Y-16311D01*
X28409Y-15978D01*
X28457Y-15862D01*
X28944Y-15992D01*
X28928Y-16119D01*
X28878Y-16500D01*
X28967Y-17179D01*
X29229Y-17811D01*
X29646Y-18354D01*
X29971Y-18604D01*
Y-19748D01*
X27547D01*
Y-26866D01*
Y-29500D01*
X31500D01*
X35453D01*
Y-26866D01*
Y-19748D01*
X33029D01*
Y-18604D01*
X33354Y-18354D01*
X33771Y-17811D01*
X34033Y-17179D01*
X34122Y-16500D01*
X34033Y-15821D01*
X33771Y-15189D01*
X33354Y-14646D01*
X32811Y-14229D01*
X32179Y-13967D01*
X31500Y-13878D01*
X30821Y-13967D01*
X30189Y-14229D01*
X29646Y-14646D01*
X29229Y-15189D01*
X29091Y-15522D01*
X29043Y-15638D01*
X28556Y-15508D01*
X28572Y-15381D01*
X28622Y-15000D01*
X28533Y-14321D01*
X28271Y-13689D01*
X27854Y-13146D01*
X27311Y-12729D01*
X26679Y-12467D01*
X26000Y-12378D01*
X25321Y-12467D01*
X24689Y-12729D01*
X24146Y-13146D01*
X23896Y-13471D01*
X22763D01*
X22734Y-13428D01*
X22012Y-12945D01*
X21161Y-12776D01*
X19837D01*
Y-12224D01*
X21161D01*
X22012Y-12055D01*
X22734Y-11573D01*
X23216Y-10851D01*
X23385Y-10000D01*
X23216Y-9149D01*
X22734Y-8427D01*
X22012Y-7945D01*
X21161Y-7776D01*
X19837D01*
Y-7224D01*
X21161D01*
X22012Y-7055D01*
X22734Y-6572D01*
X23216Y-5851D01*
X23385Y-5000D01*
X23216Y-4149D01*
X22734Y-3427D01*
X22012Y-2945D01*
X21161Y-2776D01*
X19837D01*
Y-2224D01*
X21161D01*
X22012Y-2055D01*
X22734Y-1572D01*
X23216Y-851D01*
X23385Y0D01*
X23216Y851D01*
X22734Y1572D01*
X22012Y2055D01*
X21161Y2224D01*
D02*
G37*
G36*
Y-27776D02*
X18807D01*
Y-29500D01*
X23286D01*
X23216Y-29149D01*
X22734Y-28427D01*
X22012Y-27945D01*
X21161Y-27776D01*
D02*
G37*
G36*
X17807D02*
X15453D01*
X14602Y-27945D01*
X13880Y-28427D01*
X13398Y-29149D01*
X13328Y-29500D01*
X17807D01*
Y-27776D01*
D02*
G37*
G36*
X23286Y-30500D02*
X18807D01*
Y-32224D01*
X21161D01*
X22012Y-32055D01*
X22734Y-31572D01*
X23216Y-30851D01*
X23286Y-30500D01*
D02*
G37*
G36*
X17807D02*
X13328D01*
X13398Y-30851D01*
X13880Y-31572D01*
X14602Y-32055D01*
X15453Y-32224D01*
X17807D01*
Y-30500D01*
D02*
G37*
G36*
X35453Y-30500D02*
X32000D01*
Y-33559D01*
X35453D01*
Y-30500D01*
D02*
G37*
G36*
X31000D02*
X27547D01*
Y-33559D01*
X31000D01*
Y-30500D01*
D02*
G37*
G36*
X21161Y-32776D02*
X15453D01*
X14602Y-32945D01*
X13880Y-33428D01*
X13398Y-34149D01*
X13229Y-35000D01*
X13398Y-35851D01*
X13880Y-36573D01*
X14602Y-37055D01*
X15453Y-37224D01*
X21161D01*
X22012Y-37055D01*
X22734Y-36573D01*
X23216Y-35851D01*
X23385Y-35000D01*
X23216Y-34149D01*
X22734Y-33428D01*
X22012Y-32945D01*
X21161Y-32776D01*
D02*
G37*
G36*
X45000Y-29012D02*
X43838Y-29164D01*
X42756Y-29613D01*
X41826Y-30326D01*
X41113Y-31256D01*
X40664Y-32338D01*
X40512Y-33500D01*
X40664Y-34662D01*
X41113Y-35744D01*
X41826Y-36674D01*
X42756Y-37387D01*
X43838Y-37835D01*
X45000Y-37988D01*
X46162Y-37835D01*
X47244Y-37387D01*
X48174Y-36674D01*
X48887Y-35744D01*
X49336Y-34662D01*
X49488Y-33500D01*
X49336Y-32338D01*
X48887Y-31256D01*
X48174Y-30326D01*
X47244Y-29613D01*
X46162Y-29164D01*
X45000Y-29012D01*
D02*
G37*
G36*
X-45000D02*
X-46162Y-29164D01*
X-47244Y-29613D01*
X-48174Y-30326D01*
X-48887Y-31256D01*
X-49336Y-32338D01*
X-49488Y-33500D01*
X-49336Y-34662D01*
X-48887Y-35744D01*
X-48174Y-36674D01*
X-47244Y-37387D01*
X-46162Y-37835D01*
X-45000Y-37988D01*
X-43838Y-37835D01*
X-42756Y-37387D01*
X-41826Y-36674D01*
X-41113Y-35744D01*
X-40664Y-34662D01*
X-40512Y-33500D01*
X-40664Y-32338D01*
X-41113Y-31256D01*
X-41826Y-30326D01*
X-42756Y-29613D01*
X-43838Y-29164D01*
X-45000Y-29012D01*
D02*
G37*
G36*
X-44500Y-39077D02*
Y-43000D01*
X-40577D01*
X-40664Y-42338D01*
X-41113Y-41256D01*
X-41826Y-40326D01*
X-42756Y-39613D01*
X-43838Y-39165D01*
X-44500Y-39077D01*
D02*
G37*
G36*
X-45500D02*
X-46162Y-39165D01*
X-47244Y-39613D01*
X-48174Y-40326D01*
X-48887Y-41256D01*
X-49336Y-42338D01*
X-49423Y-43000D01*
X-45500D01*
Y-39077D01*
D02*
G37*
G36*
X-12413Y-42244D02*
Y-45500D01*
X-9551D01*
Y-42244D01*
X-12413D01*
D02*
G37*
G36*
X-40577Y-44000D02*
X-44500D01*
Y-47923D01*
X-43838Y-47835D01*
X-42756Y-47387D01*
X-41826Y-46674D01*
X-41113Y-45744D01*
X-40664Y-44662D01*
X-40577Y-44000D01*
D02*
G37*
G36*
X-45500D02*
X-49423D01*
X-49336Y-44662D01*
X-48887Y-45744D01*
X-48174Y-46674D01*
X-47244Y-47387D01*
X-46162Y-47835D01*
X-45500Y-47923D01*
Y-44000D01*
D02*
G37*
G36*
X45000Y-39012D02*
X43838Y-39165D01*
X42756Y-39613D01*
X41826Y-40326D01*
X41113Y-41256D01*
X40664Y-42338D01*
X40512Y-43500D01*
X40664Y-44662D01*
X41113Y-45744D01*
X41826Y-46674D01*
X42756Y-47387D01*
X43838Y-47835D01*
X45000Y-47988D01*
X46162Y-47835D01*
X47244Y-47387D01*
X48174Y-46674D01*
X48887Y-45744D01*
X49336Y-44662D01*
X49488Y-43500D01*
X49336Y-42338D01*
X48887Y-41256D01*
X48174Y-40326D01*
X47244Y-39613D01*
X46162Y-39165D01*
X45000Y-39012D01*
D02*
G37*
G36*
X-9551Y-46500D02*
X-12413D01*
Y-49756D01*
X-9551D01*
Y-46500D01*
D02*
G37*
G36*
X107500Y-37970D02*
X106586Y-38090D01*
X105735Y-38443D01*
X105004Y-39004D01*
X104443Y-39735D01*
X104090Y-40586D01*
X103970Y-41500D01*
X104090Y-42414D01*
X104443Y-43265D01*
X105004Y-43996D01*
X105735Y-44557D01*
X106586Y-44910D01*
X107500Y-45030D01*
X108414Y-44910D01*
X109265Y-44557D01*
X109996Y-43996D01*
X110032Y-43950D01*
X111621Y-44476D01*
X110683Y-47363D01*
X118201Y-49806D01*
X121009Y-41164D01*
X113490Y-38722D01*
X112676Y-41230D01*
X112230Y-41455D01*
X110969Y-41038D01*
X110910Y-40586D01*
X110557Y-39735D01*
X109996Y-39004D01*
X109265Y-38443D01*
X108414Y-38090D01*
X107500Y-37970D01*
D02*
G37*
G36*
X-90866Y-40244D02*
X-91545Y-40333D01*
X-92177Y-40595D01*
X-92721Y-41012D01*
X-93137Y-41555D01*
X-93399Y-42187D01*
X-93489Y-42866D01*
X-93399Y-43545D01*
X-93137Y-44177D01*
X-92721Y-44721D01*
X-92396Y-44970D01*
Y-46579D01*
X-94425D01*
Y-50941D01*
X-87307D01*
Y-46579D01*
X-89337D01*
Y-44970D01*
X-89012Y-44721D01*
X-88595Y-44177D01*
X-88333Y-43545D01*
X-88244Y-42866D01*
X-88333Y-42187D01*
X-88595Y-41555D01*
X-89012Y-41012D01*
X-89555Y-40595D01*
X-90187Y-40333D01*
X-90866Y-40244D01*
D02*
G37*
G36*
X72000Y-44365D02*
X70930Y-44506D01*
X69932Y-44919D01*
X69076Y-45576D01*
X68419Y-46432D01*
X68006Y-47430D01*
X67865Y-48500D01*
X68006Y-49570D01*
X68419Y-50568D01*
X69076Y-51424D01*
X69932Y-52081D01*
X70930Y-52495D01*
X72000Y-52635D01*
X73070Y-52495D01*
X74068Y-52081D01*
X74924Y-51424D01*
X75581Y-50568D01*
X75994Y-49570D01*
X76135Y-48500D01*
X75994Y-47430D01*
X75581Y-46432D01*
X74924Y-45576D01*
X74068Y-44919D01*
X73070Y-44506D01*
X72000Y-44365D01*
D02*
G37*
G36*
X-76244Y-45594D02*
X-83756D01*
Y-52181D01*
X-83756Y-52319D01*
Y-52681D01*
X-83756Y-52819D01*
Y-54711D01*
X-87307D01*
Y-54059D01*
X-94425D01*
Y-58421D01*
X-87307D01*
Y-57770D01*
X-83756D01*
Y-59405D01*
X-76244D01*
Y-55990D01*
X-75744Y-55838D01*
X-75581Y-56081D01*
X-73581Y-58081D01*
X-73085Y-58413D01*
X-72500Y-58529D01*
X-72118D01*
Y-59969D01*
X-66575D01*
Y-54031D01*
X-72118D01*
Y-54566D01*
X-72580Y-54757D01*
X-72971Y-54366D01*
Y-50000D01*
X-73087Y-49415D01*
X-73419Y-48919D01*
X-74462Y-47875D01*
X-74958Y-47544D01*
X-75543Y-47427D01*
X-76244D01*
Y-45594D01*
D02*
G37*
G36*
X-113491Y-38722D02*
X-121009Y-41164D01*
X-118201Y-49806D01*
X-115974Y-49083D01*
X-115715Y-49788D01*
X-116057Y-50235D01*
X-116410Y-51086D01*
X-116530Y-52000D01*
X-116410Y-52914D01*
X-116057Y-53765D01*
X-115496Y-54496D01*
X-114765Y-55057D01*
X-113914Y-55410D01*
X-113000Y-55530D01*
X-112086Y-55410D01*
X-111235Y-55057D01*
X-110504Y-54496D01*
X-109943Y-53765D01*
X-109590Y-52914D01*
X-109470Y-52000D01*
X-109590Y-51086D01*
X-109943Y-50235D01*
X-110504Y-49504D01*
X-111235Y-48943D01*
X-112072Y-48596D01*
X-112091Y-48580D01*
X-112206Y-48333D01*
X-111960Y-47778D01*
X-110683Y-47363D01*
X-113491Y-38722D01*
D02*
G37*
G36*
X-40550Y-49050D02*
X-49450D01*
Y-57950D01*
X-40550D01*
Y-49050D01*
D02*
G37*
G36*
X45000Y-49012D02*
X43838Y-49165D01*
X42756Y-49613D01*
X41826Y-50326D01*
X41113Y-51256D01*
X40664Y-52338D01*
X40512Y-53500D01*
X40664Y-54662D01*
X41113Y-55744D01*
X41826Y-56674D01*
X42756Y-57387D01*
X43838Y-57836D01*
X45000Y-57988D01*
X46162Y-57836D01*
X47244Y-57387D01*
X48174Y-56674D01*
X48887Y-55744D01*
X49336Y-54662D01*
X49488Y-53500D01*
X49336Y-52338D01*
X48887Y-51256D01*
X48174Y-50326D01*
X47244Y-49613D01*
X46162Y-49165D01*
X45000Y-49012D01*
D02*
G37*
G36*
Y-59012D02*
X43838Y-59165D01*
X42756Y-59613D01*
X41826Y-60326D01*
X41113Y-61256D01*
X40664Y-62338D01*
X40512Y-63500D01*
X40664Y-64662D01*
X41113Y-65744D01*
X41826Y-66674D01*
X42756Y-67387D01*
X43838Y-67835D01*
X45000Y-67988D01*
X46162Y-67835D01*
X47244Y-67387D01*
X48174Y-66674D01*
X48887Y-65744D01*
X49336Y-64662D01*
X49488Y-63500D01*
X49336Y-62338D01*
X48887Y-61256D01*
X48174Y-60326D01*
X47244Y-59613D01*
X46162Y-59165D01*
X45000Y-59012D01*
D02*
G37*
G36*
X-81075Y-67032D02*
X-86618D01*
Y-68471D01*
X-87896D01*
X-88146Y-68146D01*
X-88689Y-67729D01*
X-89321Y-67467D01*
X-90000Y-67378D01*
X-90679Y-67467D01*
X-91311Y-67729D01*
X-91854Y-68146D01*
X-92271Y-68689D01*
X-92533Y-69321D01*
X-92622Y-70000D01*
X-92533Y-70679D01*
X-92271Y-71311D01*
X-91854Y-71854D01*
X-91311Y-72271D01*
X-90679Y-72533D01*
X-90000Y-72622D01*
X-89321Y-72533D01*
X-88689Y-72271D01*
X-88146Y-71854D01*
X-87896Y-71529D01*
X-86618D01*
Y-72969D01*
X-81075D01*
Y-67032D01*
D02*
G37*
G36*
X45000Y-69012D02*
X43838Y-69165D01*
X42756Y-69613D01*
X41826Y-70326D01*
X41113Y-71256D01*
X40664Y-72338D01*
X40512Y-73500D01*
X40664Y-74662D01*
X41113Y-75744D01*
X41826Y-76674D01*
X42756Y-77387D01*
X43838Y-77836D01*
X45000Y-77988D01*
X46162Y-77836D01*
X47244Y-77387D01*
X48174Y-76674D01*
X48887Y-75744D01*
X49336Y-74662D01*
X49488Y-73500D01*
X49336Y-72338D01*
X48887Y-71256D01*
X48174Y-70326D01*
X47244Y-69613D01*
X46162Y-69165D01*
X45000Y-69012D01*
D02*
G37*
G36*
X-25957Y-76244D02*
Y-79500D01*
X-23095D01*
Y-76244D01*
X-25957D01*
D02*
G37*
G36*
X4043Y-56004D02*
X-7406D01*
Y-70996D01*
X-3720D01*
Y-72836D01*
X-8942Y-78058D01*
X-9384Y-78720D01*
X-9539Y-79500D01*
Y-80732D01*
X-12043D01*
Y-82461D01*
X-13386D01*
X-13689Y-82229D01*
X-14321Y-81967D01*
X-15000Y-81878D01*
X-15679Y-81967D01*
X-16311Y-82229D01*
X-16854Y-82646D01*
X-17271Y-83189D01*
X-17533Y-83821D01*
X-17622Y-84500D01*
X-17533Y-85179D01*
X-17271Y-85811D01*
X-16854Y-86354D01*
X-16311Y-86771D01*
X-15679Y-87033D01*
X-15000Y-87122D01*
X-14321Y-87033D01*
X-13689Y-86771D01*
X-13386Y-86539D01*
X-12043D01*
Y-87850D01*
X-2957D01*
Y-80732D01*
X-5190D01*
X-5348Y-80232D01*
X-239Y-75123D01*
X203Y-74462D01*
X358Y-73681D01*
Y-70996D01*
X4043D01*
Y-56004D01*
D02*
G37*
G36*
X-23095Y-80500D02*
X-25957D01*
Y-83756D01*
X-23095D01*
Y-80500D01*
D02*
G37*
G36*
X-45000Y-19012D02*
X-46162Y-19164D01*
X-47244Y-19613D01*
X-48174Y-20326D01*
X-48887Y-21256D01*
X-49336Y-22338D01*
X-49488Y-23500D01*
X-49336Y-24662D01*
X-48887Y-25744D01*
X-48174Y-26674D01*
X-47244Y-27387D01*
X-46162Y-27836D01*
X-45000Y-27988D01*
X-43838Y-27836D01*
X-43123Y-27539D01*
X-35073Y-35590D01*
Y-76244D01*
X-36906D01*
Y-83756D01*
X-35073D01*
Y-87307D01*
X-35921D01*
Y-93835D01*
X-31559D01*
Y-87307D01*
X-32014D01*
Y-83756D01*
X-30319D01*
X-30181Y-83756D01*
X-29819D01*
X-29681Y-83756D01*
X-26957D01*
Y-80000D01*
Y-76244D01*
X-29681D01*
X-29819Y-76244D01*
X-30181D01*
X-30319Y-76244D01*
X-32014D01*
Y-34957D01*
X-32130Y-34371D01*
X-32462Y-33875D01*
X-40961Y-25376D01*
X-40664Y-24662D01*
X-40512Y-23500D01*
X-40664Y-22338D01*
X-41113Y-21256D01*
X-41826Y-20326D01*
X-42756Y-19613D01*
X-43838Y-19164D01*
X-45000Y-19012D01*
D02*
G37*
G36*
X-59882Y-79532D02*
X-65425D01*
Y-83605D01*
X-65887Y-83796D01*
X-66575Y-83109D01*
Y-79532D01*
X-72118D01*
Y-80971D01*
X-74382D01*
Y-79532D01*
X-79925D01*
Y-85469D01*
X-74382D01*
Y-84029D01*
X-72118D01*
Y-85469D01*
X-68541D01*
X-59428Y-94581D01*
X-58932Y-94913D01*
X-58346Y-95029D01*
X-49183D01*
X-48887Y-95744D01*
X-48174Y-96674D01*
X-47244Y-97387D01*
X-46162Y-97835D01*
X-45000Y-97988D01*
X-43838Y-97835D01*
X-42756Y-97387D01*
X-41826Y-96674D01*
X-41113Y-95744D01*
X-40664Y-94662D01*
X-40512Y-93500D01*
X-40664Y-92338D01*
X-41113Y-91256D01*
X-41826Y-90326D01*
X-42756Y-89613D01*
X-43838Y-89165D01*
X-45000Y-89012D01*
X-46162Y-89165D01*
X-47244Y-89613D01*
X-48174Y-90326D01*
X-48887Y-91256D01*
X-49183Y-91971D01*
X-57713D01*
X-63753Y-85930D01*
X-63562Y-85469D01*
X-59882D01*
Y-84029D01*
X-59104D01*
X-58854Y-84354D01*
X-58311Y-84771D01*
X-57679Y-85033D01*
X-57000Y-85122D01*
X-56321Y-85033D01*
X-55689Y-84771D01*
X-55146Y-84354D01*
X-54729Y-83811D01*
X-54467Y-83179D01*
X-54378Y-82500D01*
X-54467Y-81821D01*
X-54729Y-81189D01*
X-55146Y-80646D01*
X-55689Y-80229D01*
X-56321Y-79967D01*
X-57000Y-79878D01*
X-57679Y-79967D01*
X-58311Y-80229D01*
X-58854Y-80646D01*
X-59104Y-80971D01*
X-59882D01*
Y-79532D01*
D02*
G37*
G36*
X-90000Y-73724D02*
X-90679Y-73813D01*
X-91311Y-74075D01*
X-91854Y-74492D01*
X-92271Y-75035D01*
X-92533Y-75668D01*
X-92622Y-76346D01*
X-92533Y-77025D01*
X-92271Y-77658D01*
X-91854Y-78201D01*
X-91311Y-78618D01*
X-90679Y-78879D01*
X-90000Y-78969D01*
X-89594Y-78915D01*
X-86618Y-81891D01*
Y-85469D01*
X-81075D01*
Y-79532D01*
X-84652D01*
X-87431Y-76753D01*
X-87378Y-76346D01*
X-87467Y-75668D01*
X-87729Y-75035D01*
X-88146Y-74492D01*
X-88689Y-74075D01*
X-89321Y-73813D01*
X-90000Y-73724D01*
D02*
G37*
G36*
X49450Y-79050D02*
X40550D01*
Y-87950D01*
X49450D01*
Y-79050D01*
D02*
G37*
G36*
X-24079Y-87307D02*
X-25760D01*
Y-90071D01*
X-24079D01*
Y-87307D01*
D02*
G37*
G36*
X-26760D02*
X-28441D01*
Y-90071D01*
X-26760D01*
Y-87307D01*
D02*
G37*
G36*
X-74000Y-87970D02*
X-74914Y-88090D01*
X-75765Y-88443D01*
X-76496Y-89004D01*
X-77057Y-89735D01*
X-77410Y-90586D01*
X-77501Y-91280D01*
X-77999Y-91537D01*
X-79248Y-90629D01*
X-83895Y-97025D01*
X-76544Y-102366D01*
X-71897Y-95970D01*
X-72784Y-95326D01*
X-72716Y-94757D01*
X-72235Y-94557D01*
X-71504Y-93996D01*
X-70943Y-93265D01*
X-70590Y-92414D01*
X-70470Y-91500D01*
X-70590Y-90586D01*
X-70943Y-89735D01*
X-71504Y-89004D01*
X-72235Y-88443D01*
X-73086Y-88090D01*
X-74000Y-87970D01*
D02*
G37*
G36*
X84000Y-88470D02*
X83086Y-88590D01*
X82235Y-88943D01*
X81504Y-89504D01*
X80943Y-90235D01*
X80590Y-91086D01*
X80530Y-91543D01*
X80008Y-91676D01*
X79248Y-90629D01*
X71897Y-95970D01*
X76544Y-102366D01*
X83895Y-97025D01*
X83088Y-95914D01*
X83366Y-95447D01*
X84000Y-95530D01*
X84914Y-95410D01*
X85765Y-95057D01*
X86496Y-94496D01*
X87057Y-93765D01*
X87410Y-92914D01*
X87530Y-92000D01*
X87410Y-91086D01*
X87057Y-90235D01*
X86496Y-89504D01*
X85765Y-88943D01*
X84914Y-88590D01*
X84000Y-88470D01*
D02*
G37*
G36*
X45500Y-89077D02*
Y-93000D01*
X49423D01*
X49336Y-92338D01*
X48887Y-91256D01*
X48174Y-90326D01*
X47244Y-89613D01*
X46162Y-89165D01*
X45500Y-89077D01*
D02*
G37*
G36*
X44500D02*
X43838Y-89165D01*
X42756Y-89613D01*
X41826Y-90326D01*
X41113Y-91256D01*
X40664Y-92338D01*
X40577Y-93000D01*
X44500D01*
Y-89077D01*
D02*
G37*
G36*
X-24079Y-91071D02*
X-25760D01*
Y-93835D01*
X-24079D01*
Y-91071D01*
D02*
G37*
G36*
X-26760D02*
X-28441D01*
Y-93835D01*
X-26760D01*
Y-91071D01*
D02*
G37*
G36*
X49423Y-94000D02*
X45500D01*
Y-97923D01*
X46162Y-97835D01*
X47244Y-97387D01*
X48174Y-96674D01*
X48887Y-95744D01*
X49336Y-94662D01*
X49423Y-94000D01*
D02*
G37*
G36*
X44500D02*
X40577D01*
X40664Y-94662D01*
X41113Y-95744D01*
X41826Y-96674D01*
X42756Y-97387D01*
X43838Y-97835D01*
X44500Y-97923D01*
Y-94000D01*
D02*
G37*
G36*
X-2957Y-92150D02*
X-12043D01*
Y-99268D01*
X-6825D01*
X-5151Y-100942D01*
X-5151Y-100942D01*
X-4489Y-101384D01*
X-3709Y-101539D01*
X-2114D01*
X-1811Y-101771D01*
X-1179Y-102033D01*
X-500Y-102122D01*
X179Y-102033D01*
X811Y-101771D01*
X1354Y-101354D01*
X1771Y-100811D01*
X2033Y-100179D01*
X2122Y-99500D01*
X2033Y-98821D01*
X1771Y-98189D01*
X1354Y-97646D01*
X811Y-97229D01*
X179Y-96967D01*
X-500Y-96878D01*
X-1179Y-96967D01*
X-1811Y-97229D01*
X-2114Y-97461D01*
X-2864D01*
X-2957Y-97368D01*
Y-92150D01*
D02*
G37*
G36*
X45000Y-99012D02*
X43838Y-99164D01*
X42756Y-99613D01*
X41826Y-100326D01*
X41113Y-101256D01*
X40664Y-102338D01*
X40512Y-103500D01*
X40664Y-104662D01*
X41113Y-105744D01*
X41826Y-106674D01*
X42756Y-107387D01*
X43838Y-107835D01*
X45000Y-107988D01*
X46162Y-107835D01*
X47244Y-107387D01*
X48174Y-106674D01*
X48887Y-105744D01*
X49336Y-104662D01*
X49488Y-103500D01*
X49336Y-102338D01*
X48887Y-101256D01*
X48174Y-100326D01*
X47244Y-99613D01*
X46162Y-99164D01*
X45000Y-99012D01*
D02*
G37*
G36*
X-45000D02*
X-46162Y-99164D01*
X-47244Y-99613D01*
X-48174Y-100326D01*
X-48887Y-101256D01*
X-49336Y-102338D01*
X-49488Y-103500D01*
X-49336Y-104662D01*
X-48887Y-105744D01*
X-48174Y-106674D01*
X-47244Y-107387D01*
X-46162Y-107835D01*
X-45000Y-107988D01*
X-43838Y-107835D01*
X-42756Y-107387D01*
X-41826Y-106674D01*
X-41113Y-105744D01*
X-40664Y-104662D01*
X-40512Y-103500D01*
X-40664Y-102338D01*
X-41113Y-101256D01*
X-41826Y-100326D01*
X-42756Y-99613D01*
X-43838Y-99164D01*
X-45000Y-99012D01*
D02*
G37*
G36*
X63500Y-94970D02*
X62586Y-95090D01*
X61735Y-95443D01*
X61004Y-96004D01*
X60443Y-96735D01*
X60090Y-97586D01*
X59970Y-98500D01*
X60090Y-99414D01*
X60443Y-100265D01*
X61004Y-100996D01*
X61735Y-101557D01*
X62586Y-101910D01*
X62827Y-101942D01*
X62960Y-102463D01*
X61705Y-103375D01*
X66351Y-109771D01*
X73703Y-104430D01*
X69056Y-98035D01*
X67441Y-99207D01*
X66974Y-98929D01*
X67030Y-98500D01*
X66910Y-97586D01*
X66557Y-96735D01*
X65996Y-96004D01*
X65265Y-95443D01*
X64414Y-95090D01*
X63500Y-94970D01*
D02*
G37*
G36*
X-69056Y-98035D02*
X-73703Y-104430D01*
X-66351Y-109771D01*
X-65345Y-108387D01*
X-64851Y-108314D01*
X-64477Y-108598D01*
X-64530Y-109000D01*
X-64410Y-109914D01*
X-64057Y-110765D01*
X-63496Y-111496D01*
X-62765Y-112057D01*
X-61914Y-112410D01*
X-61000Y-112530D01*
X-60086Y-112410D01*
X-59235Y-112057D01*
X-58504Y-111496D01*
X-57943Y-110765D01*
X-57590Y-109914D01*
X-57470Y-109000D01*
X-57590Y-108086D01*
X-57943Y-107235D01*
X-58504Y-106504D01*
X-59235Y-105943D01*
X-60086Y-105590D01*
X-61000Y-105470D01*
X-61914Y-105590D01*
X-62317Y-105757D01*
X-63037Y-105210D01*
X-61705Y-103375D01*
X-69056Y-98035D01*
D02*
G37*
G36*
X45000Y-109012D02*
X43838Y-109165D01*
X42756Y-109613D01*
X41826Y-110326D01*
X41113Y-111256D01*
X40664Y-112338D01*
X40512Y-113500D01*
X40664Y-114662D01*
X41113Y-115744D01*
X41826Y-116674D01*
X42756Y-117387D01*
X43838Y-117835D01*
X45000Y-117988D01*
X46162Y-117835D01*
X47244Y-117387D01*
X48174Y-116674D01*
X48887Y-115744D01*
X49336Y-114662D01*
X49488Y-113500D01*
X49336Y-112338D01*
X48887Y-111256D01*
X48174Y-110326D01*
X47244Y-109613D01*
X46162Y-109165D01*
X45000Y-109012D01*
D02*
G37*
G36*
X-45000D02*
X-46162Y-109165D01*
X-47244Y-109613D01*
X-48174Y-110326D01*
X-48887Y-111256D01*
X-49336Y-112338D01*
X-49488Y-113500D01*
X-49336Y-114662D01*
X-48887Y-115744D01*
X-48174Y-116674D01*
X-47244Y-117387D01*
X-46162Y-117835D01*
X-45000Y-117988D01*
X-43838Y-117835D01*
X-42756Y-117387D01*
X-41826Y-116674D01*
X-41113Y-115744D01*
X-40664Y-114662D01*
X-40512Y-113500D01*
X-40664Y-112338D01*
X-41113Y-111256D01*
X-41826Y-110326D01*
X-42756Y-109613D01*
X-43838Y-109165D01*
X-45000Y-109012D01*
D02*
G37*
G36*
X-40550Y-119050D02*
X-49450D01*
Y-121836D01*
Y-127950D01*
X-40550D01*
Y-127207D01*
Y-125657D01*
Y-119050D01*
D02*
G37*
G36*
X-44500Y-129077D02*
Y-133000D01*
X-40577D01*
X-40664Y-132338D01*
X-41113Y-131256D01*
X-41826Y-130326D01*
X-42756Y-129613D01*
X-43838Y-129165D01*
X-44500Y-129077D01*
D02*
G37*
G36*
X-45500D02*
X-46162Y-129165D01*
X-47244Y-129613D01*
X-48174Y-130326D01*
X-48887Y-131256D01*
X-49336Y-132338D01*
X-49423Y-133000D01*
X-45500D01*
Y-129077D01*
D02*
G37*
%LPD*%
G54D10*
X-83846Y-82500D02*
D03*
X-77153D02*
D03*
X-62653D02*
D03*
X-69346D02*
D03*
X-62653Y-70000D02*
D03*
X-69346D02*
D03*
X-83846D02*
D03*
X-77153D02*
D03*
X-69346Y-48000D02*
D03*
X-62653D02*
D03*
X-69346Y-57000D02*
D03*
X-62653D02*
D03*
G54D11*
X18307Y-35000D02*
D03*
Y-30000D02*
D03*
Y-25000D02*
D03*
Y-20000D02*
D03*
Y-15000D02*
D03*
Y-10000D02*
D03*
Y-5000D02*
D03*
Y0D02*
D03*
X-18307Y-35000D02*
D03*
Y-30000D02*
D03*
Y-25000D02*
D03*
Y-20000D02*
D03*
Y-15000D02*
D03*
Y-10000D02*
D03*
Y-5000D02*
D03*
Y0D02*
D03*
G54D12*
X-12913Y-46000D02*
D03*
X-20000D02*
D03*
X-26457Y-80000D02*
D03*
X-33543D02*
D03*
X5457Y-111000D02*
D03*
X12543D02*
D03*
G54D13*
X-30500Y3543D02*
D03*
Y-3543D02*
D03*
X-33000Y-118587D02*
D03*
Y-111500D02*
D03*
X-80000Y-56043D02*
D03*
Y-48957D02*
D03*
X90000Y-67043D02*
D03*
Y-59957D02*
D03*
X-7500Y-105957D02*
D03*
Y-113043D02*
D03*
X-23000Y-118587D02*
D03*
Y-111500D02*
D03*
G54D14*
X-7500Y-95709D02*
D03*
Y-84291D02*
D03*
G54D15*
X31500Y-30000D02*
D03*
Y-23307D02*
D03*
X-17500Y-142847D02*
D03*
Y-136153D02*
D03*
X17500Y142847D02*
D03*
X17500Y136153D02*
D03*
G54D16*
X-26260Y-90571D02*
D03*
X-33740D02*
D03*
X-30000Y-99429D02*
D03*
G54D17*
X-90866Y-56240D02*
D03*
Y-48760D02*
D03*
X-99134Y-52500D02*
D03*
G54D18*
X6299Y-123854D02*
D03*
X-6299Y-123854D02*
D03*
X-6299Y-143146D02*
D03*
X6299Y-143146D02*
D03*
X-6299Y123854D02*
D03*
X6299Y123854D02*
D03*
X6299Y143146D02*
D03*
X-6299Y143146D02*
D03*
G54D19*
X77896Y-96498D02*
D03*
X67704Y-103903D02*
D03*
X79043Y-119510D02*
D03*
X89235Y-112105D02*
D03*
X-77896Y96498D02*
D03*
X-67704Y103903D02*
D03*
X-79043Y119510D02*
D03*
X-89235Y112105D02*
D03*
G54D20*
X119739Y-32282D02*
D03*
X115846Y-44264D02*
D03*
X134193Y-50225D02*
D03*
X138086Y-38243D02*
D03*
X-119739Y32282D02*
D03*
X-115846Y44264D02*
D03*
X-134193Y50225D02*
D03*
X-138086Y38243D02*
D03*
G54D21*
X115846Y44264D02*
D03*
X119739Y32282D02*
D03*
X138086Y38244D02*
D03*
X134193Y50225D02*
D03*
X-115846Y-44264D02*
D03*
X-119739Y-32282D02*
D03*
X-138086Y-38244D02*
D03*
X-134193Y-50225D02*
D03*
G54D22*
X67704Y103903D02*
D03*
X77896Y96498D02*
D03*
X89235Y112105D02*
D03*
X79043Y119510D02*
D03*
X-67704Y-103903D02*
D03*
X-77896Y-96498D02*
D03*
X-89235Y-112105D02*
D03*
X-79043Y-119510D02*
D03*
G54D23*
X69805Y-125852D02*
D03*
X65871Y-120437D02*
D03*
X-69805Y125852D02*
D03*
X-65871Y120437D02*
D03*
G54D24*
X130447Y-60786D02*
D03*
X124082Y-58717D02*
D03*
X-130447Y60786D02*
D03*
X-124082Y58717D02*
D03*
G54D25*
X141263Y27498D02*
D03*
X134897Y25430D02*
D03*
X-141263Y-27498D02*
D03*
X-134897Y-25430D02*
D03*
G54D26*
X98121Y105279D02*
D03*
X94187Y99864D02*
D03*
X-98121Y-105279D02*
D03*
X-94187Y-99864D02*
D03*
G54D27*
X21083Y-133500D02*
D03*
X32500D02*
D03*
G54D28*
X30118Y-116260D02*
D03*
Y-120000D02*
D03*
Y-123740D02*
D03*
X19882D02*
D03*
Y-120000D02*
D03*
Y-116260D02*
D03*
G54D29*
X25681Y-63500D02*
D03*
X-1681D02*
D03*
G54D30*
X5900Y-90000D02*
D03*
X29500D02*
D03*
G54D31*
X-30543Y-28457D02*
Y-3500D01*
X-84000Y11172D02*
X-57500Y-15328D01*
Y-36154D02*
Y-15328D01*
X-69346Y-48000D02*
X-57500Y-36154D01*
X4500Y-123000D02*
Y-118000D01*
Y-123000D02*
X5354Y-123854D01*
X-26346Y-136153D02*
X-17500D01*
X-17732Y-123854D02*
X-6299D01*
X-23000Y-118587D02*
X-17732Y-123854D01*
X-33000Y-111500D02*
X-23000D01*
X-33000D02*
Y-102429D01*
X-30000Y-99429D01*
X-80000Y50000D02*
X-75000Y45000D01*
X-80000Y50000D02*
Y59000D01*
X-80197Y-56240D02*
X-80000Y-56043D01*
X-90866Y-56240D02*
X-80197D01*
X-80000Y59000D02*
X-79000Y60000D01*
X-69500D01*
X-57500Y48000D01*
Y1828D02*
Y48000D01*
X-75000Y55000D02*
X-67500D01*
X-59500Y47000D01*
Y1000D02*
Y47000D01*
X-60500Y-57000D02*
X-45000Y-72500D01*
X-62653Y-57000D02*
X-60500D01*
X-52172Y-3500D02*
X-45000D01*
X-57500Y1828D02*
X-52172Y-3500D01*
X-59500Y1000D02*
X-45000Y-13500D01*
X-80000Y-48957D02*
X-75543D01*
X-74500Y-50000D01*
Y-55000D02*
Y-50000D01*
Y-55000D02*
X-72500Y-57000D01*
X-69346D01*
X-45000Y-23500D02*
X-33543Y-34957D01*
Y-90374D02*
Y-80000D01*
Y-34957D01*
X-45000Y-73500D02*
Y-72500D01*
X-62653Y-70000D02*
X-53500D01*
X-62653Y-57000D02*
Y-48000D01*
X-77153Y-70000D02*
X-69346D01*
X-62846Y-76500D01*
X-52000D01*
X-45000Y-83500D01*
X-77153Y-82500D02*
X-69346D01*
X-58346Y-93500D01*
X-45000D01*
X-62653Y-82500D02*
X-57000D01*
X-13000Y-30000D02*
X-11000Y-32000D01*
Y-38000D02*
Y-32000D01*
X-13000Y-40000D02*
X-11000Y-38000D01*
X-18307Y-30000D02*
X-13000D01*
X-18500Y-40000D02*
X-13000D01*
X-20000Y-41500D02*
X-18500Y-40000D01*
X-20000Y-46000D02*
Y-41500D01*
X-26500Y-39500D02*
X-20000Y-46000D01*
X-26500Y-39500D02*
Y-35328D01*
X-32543Y-29285D02*
X-26500Y-35328D01*
X-32543Y-29285D02*
Y-15957D01*
X-35000Y-13500D02*
X-32543Y-15957D01*
X-45000Y-13500D02*
X-35000D01*
X-24000Y-35000D02*
X-18307D01*
X-30543Y-28457D02*
X-24000Y-35000D01*
X-45000Y-3500D02*
X-30543D01*
X18307Y-15000D02*
X26000D01*
X-26000Y-10000D02*
X-18307D01*
Y-5000D02*
Y0D01*
Y-10000D02*
Y-5000D01*
Y-15000D02*
Y-10000D01*
Y-20000D02*
Y-15000D01*
X18307Y-5000D02*
Y0D01*
Y-10000D02*
Y-5000D01*
Y-15000D02*
Y-10000D01*
X31500Y-23307D02*
Y-16500D01*
X18307Y-30000D02*
X31500D01*
X-18307Y-25000D02*
X-5500D01*
X0Y-19500D02*
Y18543D01*
X-5500Y-25000D02*
X0Y-19500D01*
X82957Y-59957D02*
X90000D01*
X81500Y-58500D02*
X82957Y-59957D01*
X72000Y-58500D02*
X81500D01*
X80500Y29500D02*
Y34500D01*
X58500Y56500D02*
X80500Y34500D01*
X5354Y-123854D02*
X6299D01*
X63500Y-98500D02*
X67704Y-103903D01*
X89235Y-112105D02*
X95000Y-107500D01*
X107500Y-41500D02*
X115846Y-44264D01*
X138086Y-38243D02*
X140500Y-31000D01*
X113500Y30000D02*
X119739Y32282D01*
X132000Y57000D02*
X134193Y50225D01*
X73000Y124000D02*
X79043Y119510D01*
X-14000Y143000D02*
X-6299Y143146D01*
X-67704Y103903D02*
X-61500Y108500D01*
X-95000Y107500D02*
X-89235Y112105D01*
X-115846Y44264D02*
X-109500Y42000D01*
X-140500Y31000D02*
X-138086Y38243D01*
X-119739Y-32282D02*
X-113000Y-30000D01*
X-134193Y-50225D02*
X-131500Y-57500D01*
X-90866Y-48760D02*
Y-42866D01*
X-73000Y-17500D02*
X-67500D01*
X-99134Y-52500D02*
Y-43634D01*
X-73000Y-17500D01*
X-90000Y35000D02*
X-84000Y29000D01*
X-82000Y12000D02*
X-55500Y-14500D01*
X-84000Y11172D02*
Y29000D01*
X-90000Y-70000D02*
X-83846D01*
X-90000Y-76346D02*
X-83846Y-82500D01*
X-77896Y-96498D02*
X-74000Y-91500D01*
X6299Y-143146D02*
X14354D01*
X73000Y90000D02*
X77896Y96498D01*
X17500Y136153D02*
X26346D01*
X6299Y123854D02*
X15854D01*
X90000Y-67043D02*
X124189D01*
X130447Y-60786D01*
X-65871Y120437D02*
X-59500Y125000D01*
X-105500Y-9500D02*
X-97500Y-17500D01*
X-136500Y-9500D02*
X-105500D01*
X-90000Y54000D02*
Y55000D01*
Y54000D02*
X-82000Y46000D01*
Y12000D02*
Y46000D01*
X-55500Y-59172D02*
Y-14500D01*
Y-59172D02*
X-51172Y-63500D01*
X-45000D01*
G54D32*
X5457Y-112717D02*
X10240Y-117500D01*
X5457Y-112717D02*
Y-111000D01*
X10240Y-117500D02*
X14000D01*
X-15000Y-106000D02*
X-7543D01*
X-15000Y-84500D02*
X-7709D01*
X21083Y-133500D02*
X25000Y-129583D01*
Y-120000D01*
X19882D02*
X25000D01*
X30118D02*
X36000D01*
X5900Y-90000D02*
X19882D01*
Y-116260D02*
Y-90000D01*
Y-79118D01*
X25681Y-73319D01*
Y-63500D01*
X15000Y-133500D02*
X21083D01*
X14000Y-123740D02*
X19882D01*
X14000D02*
Y-117500D01*
X-7500Y-84291D02*
Y-79500D01*
X-1681Y-73681D01*
Y-63500D01*
X12543Y-111000D02*
Y-105043D01*
X-7500Y-95709D02*
X-3709Y-99500D01*
X-500D01*
X500Y-111000D02*
X5457D01*
X-7500Y-113043D02*
X-1543D01*
X500Y-111000D01*
X30118Y-123740D02*
X36000D01*
G54D33*
X-27154Y-142847D02*
X-17500D01*
X-33000Y-137000D02*
X-27154Y-142847D01*
X-33000Y-137000D02*
Y-118587D01*
X-97500Y-17500D02*
Y17500D01*
X-90000Y25000D01*
X72000Y-68500D02*
X82000D01*
X83457Y-67043D01*
X90000D01*
X117500Y-56500D02*
X124082Y-58717D01*
X128000Y23000D02*
X134897Y25430D01*
X113500Y51000D02*
X115846Y44264D01*
X90000Y94500D02*
X94187Y99864D01*
X62000Y108500D02*
X67704Y103903D01*
X-6445Y124000D02*
X-6299Y123854D01*
X-14500Y124000D02*
X-6445D01*
X77896Y-96498D02*
X84000Y-92000D01*
X61500Y-115000D02*
X65871Y-120437D01*
X-84500Y92000D02*
X-77896Y96498D01*
X-124082Y58717D02*
X-117500Y56500D01*
X-122500Y24500D02*
X-119739Y32282D01*
X-134897Y-25430D02*
X-128000Y-23000D01*
X-115846Y-44264D02*
X-113000Y-52000D01*
X-94187Y-99864D02*
X-90000Y-94000D01*
X-67704Y-103903D02*
X-61000Y-109000D01*
X119739Y-32282D02*
X122000Y-25000D01*
X-58000Y96500D02*
X-53500Y101000D01*
Y127500D01*
X-69805Y125852D02*
X-64021Y130000D01*
X-56000D01*
X-53500Y127500D01*
G54D34*
X29500Y-107000D02*
Y-90000D01*
Y-107000D02*
X36000Y-113500D01*
Y-120000D02*
Y-113500D01*
X32500Y-133500D02*
X45000D01*
X36000Y-123740D02*
Y-120000D01*
Y-129000D02*
Y-123740D01*
X32500Y-133500D02*
Y-132500D01*
X36000Y-129000D01*
G54D35*
X-90000Y65000D02*
D03*
X-75000Y55000D02*
D03*
G54D36*
X-90000D02*
D03*
Y45000D02*
D03*
Y35000D02*
D03*
Y25000D02*
D03*
Y15000D02*
D03*
X-75000Y25000D02*
D03*
Y35000D02*
D03*
Y45000D02*
D03*
X58500Y66500D02*
D03*
Y86500D02*
D03*
X-58000Y66500D02*
D03*
Y86500D02*
D03*
X58500Y56500D02*
D03*
Y76500D02*
D03*
Y96500D02*
D03*
X-58000Y76500D02*
D03*
Y96500D02*
D03*
G54D37*
X-115000Y-83000D02*
D03*
X115000D02*
D03*
Y83000D02*
D03*
X-115000D02*
D03*
G54D38*
X0Y18543D02*
D03*
Y96890D02*
D03*
G54D39*
X72000Y-48500D02*
D03*
Y-58500D02*
D03*
X-67500Y-17500D02*
D03*
X-97500D02*
D03*
G54D40*
X72000Y-68500D02*
D03*
G54D41*
X-41000Y22500D02*
D03*
X41000D02*
D03*
X-41000Y-149500D02*
D03*
X41000D02*
D03*
G54D42*
X45000Y-133500D02*
D03*
Y-93500D02*
D03*
Y-103500D02*
D03*
Y-113500D02*
D03*
Y-73500D02*
D03*
Y-63500D02*
D03*
Y-53500D02*
D03*
Y6500D02*
D03*
Y-3500D02*
D03*
Y-13500D02*
D03*
Y-23500D02*
D03*
Y-33500D02*
D03*
Y-43500D02*
D03*
X-45000Y-133500D02*
D03*
Y-93500D02*
D03*
Y-103500D02*
D03*
Y-113500D02*
D03*
Y-83500D02*
D03*
Y-73500D02*
D03*
Y-63500D02*
D03*
Y6500D02*
D03*
Y-3500D02*
D03*
Y-13500D02*
D03*
Y-23500D02*
D03*
Y-33500D02*
D03*
Y-43500D02*
D03*
G54D43*
X45000Y-123500D02*
D03*
Y-83500D02*
D03*
X-45000Y-123500D02*
D03*
Y-53500D02*
D03*
G54D44*
X62500Y29500D02*
D03*
Y3500D02*
D03*
X80500D02*
D03*
Y29500D02*
D03*
G54D45*
X4500Y-118000D02*
D03*
X-26346Y-136153D02*
D03*
X-53500Y-70000D02*
D03*
X-57000Y-82500D02*
D03*
X26000Y-15000D02*
D03*
X-26000Y-10000D02*
D03*
X31500Y-16500D02*
D03*
X15000Y-133500D02*
D03*
X12543Y-105043D02*
D03*
X-500Y-99500D02*
D03*
X-15000Y-151000D02*
D03*
Y-84500D02*
D03*
Y-106000D02*
D03*
X-90866Y-42866D02*
D03*
X-90000Y-70000D02*
D03*
Y-76346D02*
D03*
G54D46*
X117500Y-56500D02*
D03*
X128000Y23000D02*
D03*
X113500Y51000D02*
D03*
X90000Y94500D02*
D03*
X62000Y108500D02*
D03*
X-14500Y124000D02*
D03*
X84000Y-92000D02*
D03*
X61500Y-115000D02*
D03*
X-84500Y92000D02*
D03*
X-117500Y56500D02*
D03*
X-122500Y24500D02*
D03*
X-128000Y-23000D02*
D03*
X-113000Y-52000D02*
D03*
X-90000Y-94000D02*
D03*
X-61000Y-109000D02*
D03*
X113500Y30000D02*
D03*
X132000Y57000D02*
D03*
X73000Y124000D02*
D03*
X122000Y-25000D02*
D03*
X140500Y-31000D02*
D03*
X107500Y-41500D02*
D03*
X95000Y-107500D02*
D03*
X63500Y-98500D02*
D03*
X-74000Y-91500D02*
D03*
X-131500Y-57500D02*
D03*
X-113000Y-30000D02*
D03*
X14354Y-143146D02*
D03*
X73000Y90000D02*
D03*
X26346Y136153D02*
D03*
X15854Y123854D02*
D03*
X-61500Y108500D02*
D03*
X-59500Y125000D02*
D03*
X-95000Y107500D02*
D03*
X-14000Y143000D02*
D03*
X-140500Y31000D02*
D03*
X-109500Y42000D02*
D03*
M02*
