G04 Layer_Color=255*
%FSLAX25Y25*%
%MOIN*%
G70*
G01*
G75*
%ADD35R,0.05906X0.05906*%
%ADD36C,0.05906*%
%ADD37C,0.15748*%
%ADD38C,0.09646*%
%ADD39C,0.06200*%
%ADD40R,0.06200X0.06200*%
%ADD41C,0.11500*%
%ADD42C,0.06900*%
%ADD43R,0.06900X0.06900*%
%ADD44C,0.09449*%
G54D35*
X-90000Y65000D02*
D03*
X-75000Y55000D02*
D03*
G54D36*
X-90000D02*
D03*
Y45000D02*
D03*
Y35000D02*
D03*
Y25000D02*
D03*
Y15000D02*
D03*
X-75000Y25000D02*
D03*
Y35000D02*
D03*
Y45000D02*
D03*
X58500Y66500D02*
D03*
Y86500D02*
D03*
X-58000Y66500D02*
D03*
Y86500D02*
D03*
X58500Y56500D02*
D03*
Y76500D02*
D03*
Y96500D02*
D03*
X-58000Y76500D02*
D03*
Y96500D02*
D03*
G54D37*
X-115000Y-83000D02*
D03*
X115000D02*
D03*
Y83000D02*
D03*
X-115000D02*
D03*
G54D38*
X0Y18543D02*
D03*
Y96890D02*
D03*
G54D39*
X72000Y-48500D02*
D03*
Y-58500D02*
D03*
X-67500Y-17500D02*
D03*
X-97500D02*
D03*
G54D40*
X72000Y-68500D02*
D03*
G54D41*
X-41000Y22500D02*
D03*
X41000D02*
D03*
X-41000Y-149500D02*
D03*
X41000D02*
D03*
G54D42*
X45000Y-133500D02*
D03*
Y-93500D02*
D03*
Y-103500D02*
D03*
Y-113500D02*
D03*
Y-73500D02*
D03*
Y-63500D02*
D03*
Y-53500D02*
D03*
Y6500D02*
D03*
Y-3500D02*
D03*
Y-13500D02*
D03*
Y-23500D02*
D03*
Y-33500D02*
D03*
Y-43500D02*
D03*
X-45000Y-133500D02*
D03*
Y-93500D02*
D03*
Y-103500D02*
D03*
Y-113500D02*
D03*
Y-83500D02*
D03*
Y-73500D02*
D03*
Y-63500D02*
D03*
Y6500D02*
D03*
Y-3500D02*
D03*
Y-13500D02*
D03*
Y-23500D02*
D03*
Y-33500D02*
D03*
Y-43500D02*
D03*
G54D43*
X45000Y-123500D02*
D03*
Y-83500D02*
D03*
X-45000Y-123500D02*
D03*
Y-53500D02*
D03*
G54D44*
X62500Y29500D02*
D03*
Y3500D02*
D03*
X80500D02*
D03*
Y29500D02*
D03*
M02*
