G04 Layer_Color=2752767*
%FSLAX25Y25*%
%MOIN*%
G70*
G01*
G75*
%ADD82C,0.00200*%
%ADD86C,0.00267*%
G54D82*
X-90800Y64200D02*
Y65800D01*
X-89200D01*
Y64200D01*
X-90800D01*
Y54200D02*
Y55800D01*
X-89200D01*
Y54200D01*
X-90800D01*
Y44200D02*
Y45800D01*
X-89200D01*
Y44200D01*
X-90800D01*
Y34200D02*
Y35800D01*
X-89200D01*
Y34200D01*
X-90800D01*
Y24200D02*
Y25800D01*
X-89200D01*
Y24200D01*
X-90800D01*
Y14200D02*
Y15800D01*
X-89200D01*
Y14200D01*
X-90800D01*
X0Y17743D02*
X-800Y19343D01*
X800D01*
X0Y17743D01*
Y96090D02*
X-800Y97690D01*
X800D01*
X0Y96090D01*
X-75800Y24200D02*
Y25800D01*
X-74200D01*
Y24200D01*
X-75800D01*
Y34200D02*
Y35800D01*
X-74200D01*
Y34200D01*
X-75800D01*
Y44200D02*
Y45800D01*
X-74200D01*
Y44200D01*
X-75800D01*
Y54200D02*
Y55800D01*
X-74200D01*
Y54200D01*
X-75800D01*
X71200Y-49300D02*
Y-47700D01*
X72800D01*
Y-49300D01*
X71200D01*
Y-59300D02*
Y-57700D01*
X72800D01*
Y-59300D01*
X71200D01*
Y-69300D02*
Y-67700D01*
X72800D01*
Y-69300D01*
X71200D01*
X-67500Y-18300D02*
X-67100Y-17900D01*
X-66700D01*
X-67100Y-17500D01*
X-66700Y-17100D01*
X-67100D01*
X-67500Y-16700D01*
X-67900Y-17100D01*
X-68300D01*
X-67900Y-17500D01*
X-68300Y-17900D01*
X-67900D01*
X-67500Y-18300D01*
X-97500D02*
X-97100Y-17900D01*
X-96700D01*
X-97100Y-17500D01*
X-96700Y-17100D01*
X-97100D01*
X-97500Y-16700D01*
X-97900Y-17100D01*
X-98300D01*
X-97900Y-17500D01*
X-98300Y-17900D01*
X-97900D01*
X-97500Y-18300D01*
X-41800Y21700D02*
X-41400Y22500D01*
X-41800Y23300D01*
X-41000Y22900D01*
X-40200Y23300D01*
X-40600Y22500D01*
X-40200Y21700D01*
X-41000Y22100D01*
X-41800Y21700D01*
X40200D02*
X40600Y22500D01*
X40200Y23300D01*
X41000Y22900D01*
X41800Y23300D01*
X41400Y22500D01*
X41800Y21700D01*
X41000Y22100D01*
X40200Y21700D01*
X-41800Y-150300D02*
X-41400Y-149500D01*
X-41800Y-148700D01*
X-41000Y-149100D01*
X-40200Y-148700D01*
X-40600Y-149500D01*
X-40200Y-150300D01*
X-41000Y-149900D01*
X-41800Y-150300D01*
X40200D02*
X40600Y-149500D01*
X40200Y-148700D01*
X41000Y-149100D01*
X41800Y-148700D01*
X41400Y-149500D01*
X41800Y-150300D01*
X41000Y-149900D01*
X40200Y-150300D01*
X44600Y-133900D02*
Y-134300D01*
X45400D01*
Y-133900D01*
X45800D01*
Y-133100D01*
X45400D01*
Y-132700D01*
X44600D01*
Y-133100D01*
X44200D01*
Y-133900D01*
X44600D01*
Y-93900D02*
Y-94300D01*
X45400D01*
Y-93900D01*
X45800D01*
Y-93100D01*
X45400D01*
Y-92700D01*
X44600D01*
Y-93100D01*
X44200D01*
Y-93900D01*
X44600D01*
Y-103900D02*
Y-104300D01*
X45400D01*
Y-103900D01*
X45800D01*
Y-103100D01*
X45400D01*
Y-102700D01*
X44600D01*
Y-103100D01*
X44200D01*
Y-103900D01*
X44600D01*
Y-113900D02*
Y-114300D01*
X45400D01*
Y-113900D01*
X45800D01*
Y-113100D01*
X45400D01*
Y-112700D01*
X44600D01*
Y-113100D01*
X44200D01*
Y-113900D01*
X44600D01*
Y-123900D02*
Y-124300D01*
X45400D01*
Y-123900D01*
X45800D01*
Y-123100D01*
X45400D01*
Y-122700D01*
X44600D01*
Y-123100D01*
X44200D01*
Y-123900D01*
X44600D01*
Y-83900D02*
Y-84300D01*
X45400D01*
Y-83900D01*
X45800D01*
Y-83100D01*
X45400D01*
Y-82700D01*
X44600D01*
Y-83100D01*
X44200D01*
Y-83900D01*
X44600D01*
Y-73900D02*
Y-74300D01*
X45400D01*
Y-73900D01*
X45800D01*
Y-73100D01*
X45400D01*
Y-72700D01*
X44600D01*
Y-73100D01*
X44200D01*
Y-73900D01*
X44600D01*
Y-63900D02*
Y-64300D01*
X45400D01*
Y-63900D01*
X45800D01*
Y-63100D01*
X45400D01*
Y-62700D01*
X44600D01*
Y-63100D01*
X44200D01*
Y-63900D01*
X44600D01*
Y-53900D02*
Y-54300D01*
X45400D01*
Y-53900D01*
X45800D01*
Y-53100D01*
X45400D01*
Y-52700D01*
X44600D01*
Y-53100D01*
X44200D01*
Y-53900D01*
X44600D01*
Y6100D02*
Y5700D01*
X45400D01*
Y6100D01*
X45800D01*
Y6900D01*
X45400D01*
Y7300D01*
X44600D01*
Y6900D01*
X44200D01*
Y6100D01*
X44600D01*
Y-3900D02*
Y-4300D01*
X45400D01*
Y-3900D01*
X45800D01*
Y-3100D01*
X45400D01*
Y-2700D01*
X44600D01*
Y-3100D01*
X44200D01*
Y-3900D01*
X44600D01*
Y-13900D02*
Y-14300D01*
X45400D01*
Y-13900D01*
X45800D01*
Y-13100D01*
X45400D01*
Y-12700D01*
X44600D01*
Y-13100D01*
X44200D01*
Y-13900D01*
X44600D01*
Y-23900D02*
Y-24300D01*
X45400D01*
Y-23900D01*
X45800D01*
Y-23100D01*
X45400D01*
Y-22700D01*
X44600D01*
Y-23100D01*
X44200D01*
Y-23900D01*
X44600D01*
Y-33900D02*
Y-34300D01*
X45400D01*
Y-33900D01*
X45800D01*
Y-33100D01*
X45400D01*
Y-32700D01*
X44600D01*
Y-33100D01*
X44200D01*
Y-33900D01*
X44600D01*
Y-43900D02*
Y-44300D01*
X45400D01*
Y-43900D01*
X45800D01*
Y-43100D01*
X45400D01*
Y-42700D01*
X44600D01*
Y-43100D01*
X44200D01*
Y-43900D01*
X44600D01*
X-45400Y-133900D02*
Y-134300D01*
X-44600D01*
Y-133900D01*
X-44200D01*
Y-133100D01*
X-44600D01*
Y-132700D01*
X-45400D01*
Y-133100D01*
X-45800D01*
Y-133900D01*
X-45400D01*
Y-93900D02*
Y-94300D01*
X-44600D01*
Y-93900D01*
X-44200D01*
Y-93100D01*
X-44600D01*
Y-92700D01*
X-45400D01*
Y-93100D01*
X-45800D01*
Y-93900D01*
X-45400D01*
Y-103900D02*
Y-104300D01*
X-44600D01*
Y-103900D01*
X-44200D01*
Y-103100D01*
X-44600D01*
Y-102700D01*
X-45400D01*
Y-103100D01*
X-45800D01*
Y-103900D01*
X-45400D01*
Y-113900D02*
Y-114300D01*
X-44600D01*
Y-113900D01*
X-44200D01*
Y-113100D01*
X-44600D01*
Y-112700D01*
X-45400D01*
Y-113100D01*
X-45800D01*
Y-113900D01*
X-45400D01*
Y-123900D02*
Y-124300D01*
X-44600D01*
Y-123900D01*
X-44200D01*
Y-123100D01*
X-44600D01*
Y-122700D01*
X-45400D01*
Y-123100D01*
X-45800D01*
Y-123900D01*
X-45400D01*
Y-83900D02*
Y-84300D01*
X-44600D01*
Y-83900D01*
X-44200D01*
Y-83100D01*
X-44600D01*
Y-82700D01*
X-45400D01*
Y-83100D01*
X-45800D01*
Y-83900D01*
X-45400D01*
Y-73900D02*
Y-74300D01*
X-44600D01*
Y-73900D01*
X-44200D01*
Y-73100D01*
X-44600D01*
Y-72700D01*
X-45400D01*
Y-73100D01*
X-45800D01*
Y-73900D01*
X-45400D01*
Y-63900D02*
Y-64300D01*
X-44600D01*
Y-63900D01*
X-44200D01*
Y-63100D01*
X-44600D01*
Y-62700D01*
X-45400D01*
Y-63100D01*
X-45800D01*
Y-63900D01*
X-45400D01*
Y-53900D02*
Y-54300D01*
X-44600D01*
Y-53900D01*
X-44200D01*
Y-53100D01*
X-44600D01*
Y-52700D01*
X-45400D01*
Y-53100D01*
X-45800D01*
Y-53900D01*
X-45400D01*
Y6100D02*
Y5700D01*
X-44600D01*
Y6100D01*
X-44200D01*
Y6900D01*
X-44600D01*
Y7300D01*
X-45400D01*
Y6900D01*
X-45800D01*
Y6100D01*
X-45400D01*
Y-3900D02*
Y-4300D01*
X-44600D01*
Y-3900D01*
X-44200D01*
Y-3100D01*
X-44600D01*
Y-2700D01*
X-45400D01*
Y-3100D01*
X-45800D01*
Y-3900D01*
X-45400D01*
Y-13900D02*
Y-14300D01*
X-44600D01*
Y-13900D01*
X-44200D01*
Y-13100D01*
X-44600D01*
Y-12700D01*
X-45400D01*
Y-13100D01*
X-45800D01*
Y-13900D01*
X-45400D01*
Y-23900D02*
Y-24300D01*
X-44600D01*
Y-23900D01*
X-44200D01*
Y-23100D01*
X-44600D01*
Y-22700D01*
X-45400D01*
Y-23100D01*
X-45800D01*
Y-23900D01*
X-45400D01*
Y-33900D02*
Y-34300D01*
X-44600D01*
Y-33900D01*
X-44200D01*
Y-33100D01*
X-44600D01*
Y-32700D01*
X-45400D01*
Y-33100D01*
X-45800D01*
Y-33900D01*
X-45400D01*
Y-43900D02*
Y-44300D01*
X-44600D01*
Y-43900D01*
X-44200D01*
Y-43100D01*
X-44600D01*
Y-42700D01*
X-45400D01*
Y-43100D01*
X-45800D01*
Y-43900D01*
X-45400D01*
X57700Y65700D02*
Y67300D01*
X59300D01*
Y65700D01*
X57700D01*
Y85700D02*
Y87300D01*
X59300D01*
Y85700D01*
X57700D01*
X-58800Y65700D02*
Y67300D01*
X-57200D01*
Y65700D01*
X-58800D01*
Y85700D02*
Y87300D01*
X-57200D01*
Y85700D01*
X-58800D01*
X57700Y55700D02*
Y57300D01*
X59300D01*
Y55700D01*
X57700D01*
Y75700D02*
Y77300D01*
X59300D01*
Y75700D01*
X57700D01*
Y95700D02*
Y97300D01*
X59300D01*
Y95700D01*
X57700D01*
X-58800Y75700D02*
Y77300D01*
X-57200D01*
Y75700D01*
X-58800D01*
Y95700D02*
Y97300D01*
X-57200D01*
Y95700D01*
X-58800D01*
X61700Y28700D02*
X62100D01*
X62500Y29100D01*
X62900Y28700D01*
X63300D01*
Y29100D01*
X62900Y29500D01*
X63300Y29900D01*
Y30300D01*
X62900D01*
X62500Y29900D01*
X62100Y30300D01*
X61700D01*
Y29900D01*
X62100Y29500D01*
X61700Y29100D01*
Y28700D01*
Y2700D02*
X62100D01*
X62500Y3100D01*
X62900Y2700D01*
X63300D01*
Y3100D01*
X62900Y3500D01*
X63300Y3900D01*
Y4300D01*
X62900D01*
X62500Y3900D01*
X62100Y4300D01*
X61700D01*
Y3900D01*
X62100Y3500D01*
X61700Y3100D01*
Y2700D01*
X79700D02*
X80100D01*
X80500Y3100D01*
X80900Y2700D01*
X81300D01*
Y3100D01*
X80900Y3500D01*
X81300Y3900D01*
Y4300D01*
X80900D01*
X80500Y3900D01*
X80100Y4300D01*
X79700D01*
Y3900D01*
X80100Y3500D01*
X79700Y3100D01*
Y2700D01*
Y28700D02*
X80100D01*
X80500Y29100D01*
X80900Y28700D01*
X81300D01*
Y29100D01*
X80900Y29500D01*
X81300Y29900D01*
Y30300D01*
X80900D01*
X80500Y29900D01*
X80100Y30300D01*
X79700D01*
Y29900D01*
X80100Y29500D01*
X79700Y29100D01*
Y28700D01*
X3700Y-118000D02*
X4500Y-117200D01*
X5300Y-118000D01*
X4500Y-118800D01*
X3700Y-118000D01*
X-27146Y-136153D02*
X-26346Y-135354D01*
X-25546Y-136153D01*
X-26346Y-136953D01*
X-27146Y-136153D01*
X-54300Y-70000D02*
X-53500Y-69200D01*
X-52700Y-70000D01*
X-53500Y-70800D01*
X-54300Y-70000D01*
X-57800Y-82500D02*
X-57000Y-81700D01*
X-56200Y-82500D01*
X-57000Y-83300D01*
X-57800Y-82500D01*
X25200Y-15000D02*
X26000Y-14200D01*
X26800Y-15000D01*
X26000Y-15800D01*
X25200Y-15000D01*
X-26800Y-10000D02*
X-26000Y-9200D01*
X-25200Y-10000D01*
X-26000Y-10800D01*
X-26800Y-10000D01*
X30700Y-16500D02*
X31500Y-15700D01*
X32300Y-16500D01*
X31500Y-17300D01*
X30700Y-16500D01*
X117500Y-57300D02*
X117900Y-56900D01*
X118300D01*
X117900Y-56500D01*
X118300Y-56100D01*
X117900D01*
X117500Y-55700D01*
X117100Y-56100D01*
X116700D01*
X117100Y-56500D01*
X116700Y-56900D01*
X117100D01*
X117500Y-57300D01*
X128000Y22200D02*
X128400Y22600D01*
X128800D01*
X128400Y23000D01*
X128800Y23400D01*
X128400D01*
X128000Y23800D01*
X127600Y23400D01*
X127200D01*
X127600Y23000D01*
X127200Y22600D01*
X127600D01*
X128000Y22200D01*
X113500Y50200D02*
X113900Y50600D01*
X114300D01*
X113900Y51000D01*
X114300Y51400D01*
X113900D01*
X113500Y51800D01*
X113100Y51400D01*
X112700D01*
X113100Y51000D01*
X112700Y50600D01*
X113100D01*
X113500Y50200D01*
X90000Y93700D02*
X90400Y94100D01*
X90800D01*
X90400Y94500D01*
X90800Y94900D01*
X90400D01*
X90000Y95300D01*
X89600Y94900D01*
X89200D01*
X89600Y94500D01*
X89200Y94100D01*
X89600D01*
X90000Y93700D01*
X62000Y107700D02*
X62400Y108100D01*
X62800D01*
X62400Y108500D01*
X62800Y108900D01*
X62400D01*
X62000Y109300D01*
X61600Y108900D01*
X61200D01*
X61600Y108500D01*
X61200Y108100D01*
X61600D01*
X62000Y107700D01*
X-14500Y123200D02*
X-14100Y123600D01*
X-13700D01*
X-14100Y124000D01*
X-13700Y124400D01*
X-14100D01*
X-14500Y124800D01*
X-14900Y124400D01*
X-15300D01*
X-14900Y124000D01*
X-15300Y123600D01*
X-14900D01*
X-14500Y123200D01*
X84000Y-92800D02*
X84400Y-92400D01*
X84800D01*
X84400Y-92000D01*
X84800Y-91600D01*
X84400D01*
X84000Y-91200D01*
X83600Y-91600D01*
X83200D01*
X83600Y-92000D01*
X83200Y-92400D01*
X83600D01*
X84000Y-92800D01*
X61500Y-115800D02*
X61900Y-115400D01*
X62300D01*
X61900Y-115000D01*
X62300Y-114600D01*
X61900D01*
X61500Y-114200D01*
X61100Y-114600D01*
X60700D01*
X61100Y-115000D01*
X60700Y-115400D01*
X61100D01*
X61500Y-115800D01*
X-84500Y91200D02*
X-84100Y91600D01*
X-83700D01*
X-84100Y92000D01*
X-83700Y92400D01*
X-84100D01*
X-84500Y92800D01*
X-84900Y92400D01*
X-85300D01*
X-84900Y92000D01*
X-85300Y91600D01*
X-84900D01*
X-84500Y91200D01*
X-117500Y55700D02*
X-117100Y56100D01*
X-116700D01*
X-117100Y56500D01*
X-116700Y56900D01*
X-117100D01*
X-117500Y57300D01*
X-117900Y56900D01*
X-118300D01*
X-117900Y56500D01*
X-118300Y56100D01*
X-117900D01*
X-117500Y55700D01*
X-122500Y23700D02*
X-122100Y24100D01*
X-121700D01*
X-122100Y24500D01*
X-121700Y24900D01*
X-122100D01*
X-122500Y25300D01*
X-122900Y24900D01*
X-123300D01*
X-122900Y24500D01*
X-123300Y24100D01*
X-122900D01*
X-122500Y23700D01*
X-128000Y-23800D02*
X-127600Y-23400D01*
X-127200D01*
X-127600Y-23000D01*
X-127200Y-22600D01*
X-127600D01*
X-128000Y-22200D01*
X-128400Y-22600D01*
X-128800D01*
X-128400Y-23000D01*
X-128800Y-23400D01*
X-128400D01*
X-128000Y-23800D01*
X-113000Y-52800D02*
X-112600Y-52400D01*
X-112200D01*
X-112600Y-52000D01*
X-112200Y-51600D01*
X-112600D01*
X-113000Y-51200D01*
X-113400Y-51600D01*
X-113800D01*
X-113400Y-52000D01*
X-113800Y-52400D01*
X-113400D01*
X-113000Y-52800D01*
X-90000Y-94800D02*
X-89600Y-94400D01*
X-89200D01*
X-89600Y-94000D01*
X-89200Y-93600D01*
X-89600D01*
X-90000Y-93200D01*
X-90400Y-93600D01*
X-90800D01*
X-90400Y-94000D01*
X-90800Y-94400D01*
X-90400D01*
X-90000Y-94800D01*
X-61000Y-109800D02*
X-60600Y-109400D01*
X-60200D01*
X-60600Y-109000D01*
X-60200Y-108600D01*
X-60600D01*
X-61000Y-108200D01*
X-61400Y-108600D01*
X-61800D01*
X-61400Y-109000D01*
X-61800Y-109400D01*
X-61400D01*
X-61000Y-109800D01*
X14200Y-133500D02*
X15000Y-132700D01*
X15800Y-133500D01*
X15000Y-134300D01*
X14200Y-133500D01*
X11743Y-105043D02*
X12543Y-104243D01*
X13343Y-105043D01*
X12543Y-105843D01*
X11743Y-105043D01*
X-1300Y-99500D02*
X-500Y-98700D01*
X300Y-99500D01*
X-500Y-100300D01*
X-1300Y-99500D01*
X-15800Y-151000D02*
X-15000Y-150200D01*
X-14200Y-151000D01*
X-15000Y-151800D01*
X-15800Y-151000D01*
Y-84500D02*
X-15000Y-83700D01*
X-14200Y-84500D01*
X-15000Y-85300D01*
X-15800Y-84500D01*
Y-106000D02*
X-15000Y-105200D01*
X-14200Y-106000D01*
X-15000Y-106800D01*
X-15800Y-106000D01*
X113500Y29200D02*
X113900Y29600D01*
X114300D01*
X113900Y30000D01*
X114300Y30400D01*
X113900D01*
X113500Y30800D01*
X113100Y30400D01*
X112700D01*
X113100Y30000D01*
X112700Y29600D01*
X113100D01*
X113500Y29200D01*
X132000Y56200D02*
X132400Y56600D01*
X132800D01*
X132400Y57000D01*
X132800Y57400D01*
X132400D01*
X132000Y57800D01*
X131600Y57400D01*
X131200D01*
X131600Y57000D01*
X131200Y56600D01*
X131600D01*
X132000Y56200D01*
X73000Y123200D02*
X73400Y123600D01*
X73800D01*
X73400Y124000D01*
X73800Y124400D01*
X73400D01*
X73000Y124800D01*
X72600Y124400D01*
X72200D01*
X72600Y124000D01*
X72200Y123600D01*
X72600D01*
X73000Y123200D01*
X122000Y-25800D02*
X122400Y-25400D01*
X122800D01*
X122400Y-25000D01*
X122800Y-24600D01*
X122400D01*
X122000Y-24200D01*
X121600Y-24600D01*
X121200D01*
X121600Y-25000D01*
X121200Y-25400D01*
X121600D01*
X122000Y-25800D01*
X-91666Y-42866D02*
X-90866Y-42066D01*
X-90066Y-42866D01*
X-90866Y-43666D01*
X-91666Y-42866D01*
X-90800Y-70000D02*
X-90000Y-69200D01*
X-89200Y-70000D01*
X-90000Y-70800D01*
X-90800Y-70000D01*
Y-76346D02*
X-90000Y-75546D01*
X-89200Y-76346D01*
X-90000Y-77147D01*
X-90800Y-76346D01*
X140500Y-31800D02*
X140900Y-31400D01*
X141300D01*
X140900Y-31000D01*
X141300Y-30600D01*
X140900D01*
X140500Y-30200D01*
X140100Y-30600D01*
X139700D01*
X140100Y-31000D01*
X139700Y-31400D01*
X140100D01*
X140500Y-31800D01*
X107500Y-42300D02*
X107900Y-41900D01*
X108300D01*
X107900Y-41500D01*
X108300Y-41100D01*
X107900D01*
X107500Y-40700D01*
X107100Y-41100D01*
X106700D01*
X107100Y-41500D01*
X106700Y-41900D01*
X107100D01*
X107500Y-42300D01*
X95000Y-108300D02*
X95400Y-107900D01*
X95800D01*
X95400Y-107500D01*
X95800Y-107100D01*
X95400D01*
X95000Y-106700D01*
X94600Y-107100D01*
X94200D01*
X94600Y-107500D01*
X94200Y-107900D01*
X94600D01*
X95000Y-108300D01*
X63500Y-99300D02*
X63900Y-98900D01*
X64300D01*
X63900Y-98500D01*
X64300Y-98100D01*
X63900D01*
X63500Y-97700D01*
X63100Y-98100D01*
X62700D01*
X63100Y-98500D01*
X62700Y-98900D01*
X63100D01*
X63500Y-99300D01*
X-74000Y-92300D02*
X-73600Y-91900D01*
X-73200D01*
X-73600Y-91500D01*
X-73200Y-91100D01*
X-73600D01*
X-74000Y-90700D01*
X-74400Y-91100D01*
X-74800D01*
X-74400Y-91500D01*
X-74800Y-91900D01*
X-74400D01*
X-74000Y-92300D01*
X-131500Y-58300D02*
X-131100Y-57900D01*
X-130700D01*
X-131100Y-57500D01*
X-130700Y-57100D01*
X-131100D01*
X-131500Y-56700D01*
X-131900Y-57100D01*
X-132300D01*
X-131900Y-57500D01*
X-132300Y-57900D01*
X-131900D01*
X-131500Y-58300D01*
X-113000Y-30800D02*
X-112600Y-30400D01*
X-112200D01*
X-112600Y-30000D01*
X-112200Y-29600D01*
X-112600D01*
X-113000Y-29200D01*
X-113400Y-29600D01*
X-113800D01*
X-113400Y-30000D01*
X-113800Y-30400D01*
X-113400D01*
X-113000Y-30800D01*
X14354Y-143946D02*
X14754Y-143546D01*
X15154D01*
X14754Y-143146D01*
X15154Y-142746D01*
X14754D01*
X14354Y-142346D01*
X13954Y-142746D01*
X13554D01*
X13954Y-143146D01*
X13554Y-143546D01*
X13954D01*
X14354Y-143946D01*
X73000Y89200D02*
X73400Y89600D01*
X73800D01*
X73400Y90000D01*
X73800Y90400D01*
X73400D01*
X73000Y90800D01*
X72600Y90400D01*
X72200D01*
X72600Y90000D01*
X72200Y89600D01*
X72600D01*
X73000Y89200D01*
X26346Y135354D02*
X26746Y135754D01*
X27147D01*
X26746Y136153D01*
X27147Y136554D01*
X26746D01*
X26346Y136953D01*
X25947Y136554D01*
X25547D01*
X25947Y136153D01*
X25547Y135754D01*
X25947D01*
X26346Y135354D01*
X15854Y123054D02*
X16254Y123454D01*
X16654D01*
X16254Y123854D01*
X16654Y124254D01*
X16254D01*
X15854Y124654D01*
X15454Y124254D01*
X15054D01*
X15454Y123854D01*
X15054Y123454D01*
X15454D01*
X15854Y123054D01*
X-61500Y107700D02*
X-61100Y108100D01*
X-60700D01*
X-61100Y108500D01*
X-60700Y108900D01*
X-61100D01*
X-61500Y109300D01*
X-61900Y108900D01*
X-62300D01*
X-61900Y108500D01*
X-62300Y108100D01*
X-61900D01*
X-61500Y107700D01*
X-59500Y124200D02*
X-59100Y124600D01*
X-58700D01*
X-59100Y125000D01*
X-58700Y125400D01*
X-59100D01*
X-59500Y125800D01*
X-59900Y125400D01*
X-60300D01*
X-59900Y125000D01*
X-60300Y124600D01*
X-59900D01*
X-59500Y124200D01*
X-95000Y106700D02*
X-94600Y107100D01*
X-94200D01*
X-94600Y107500D01*
X-94200Y107900D01*
X-94600D01*
X-95000Y108300D01*
X-95400Y107900D01*
X-95800D01*
X-95400Y107500D01*
X-95800Y107100D01*
X-95400D01*
X-95000Y106700D01*
X-14000Y142200D02*
X-13600Y142600D01*
X-13200D01*
X-13600Y143000D01*
X-13200Y143400D01*
X-13600D01*
X-14000Y143800D01*
X-14400Y143400D01*
X-14800D01*
X-14400Y143000D01*
X-14800Y142600D01*
X-14400D01*
X-14000Y142200D01*
X-140500Y30200D02*
X-140100Y30600D01*
X-139700D01*
X-140100Y31000D01*
X-139700Y31400D01*
X-140100D01*
X-140500Y31800D01*
X-140900Y31400D01*
X-141300D01*
X-140900Y31000D01*
X-141300Y30600D01*
X-140900D01*
X-140500Y30200D01*
X-109500Y41200D02*
X-109100Y41600D01*
X-108700D01*
X-109100Y42000D01*
X-108700Y42400D01*
X-109100D01*
X-109500Y42800D01*
X-109900Y42400D01*
X-110300D01*
X-109900Y42000D01*
X-110300Y41600D01*
X-109900D01*
X-109500Y41200D01*
G54D86*
X-114200Y-83000D02*
X-114753Y-82239D01*
X-115647Y-82530D01*
Y-83470D01*
X-114753Y-83761D01*
X-114200Y-83000D01*
X115800D02*
X115247Y-82239D01*
X114353Y-82530D01*
Y-83470D01*
X115247Y-83761D01*
X115800Y-83000D01*
Y83000D02*
X115247Y83761D01*
X114353Y83470D01*
Y82530D01*
X115247Y82239D01*
X115800Y83000D01*
X-114200D02*
X-114753Y83761D01*
X-115647Y83470D01*
Y82530D01*
X-114753Y82239D01*
X-114200Y83000D01*
M02*
