G04 Layer_Color=16711935*
%FSLAX25Y25*%
%MOIN*%
G70*
G01*
G75*
%ADD70R,0.06706X0.06706*%
%ADD71C,0.06706*%
%ADD72C,0.16548*%
%ADD73C,0.10446*%
%ADD74C,0.07000*%
%ADD75R,0.07000X0.07000*%
%ADD76C,0.07700*%
%ADD77R,0.07700X0.07700*%
%ADD78C,0.10249*%
%ADD79C,0.04000*%
%ADD80C,0.05800*%
G54D70*
X-90000Y65000D02*
D03*
X-75000Y55000D02*
D03*
G54D71*
X-90000D02*
D03*
Y45000D02*
D03*
Y35000D02*
D03*
Y25000D02*
D03*
Y15000D02*
D03*
X-75000Y25000D02*
D03*
Y35000D02*
D03*
Y45000D02*
D03*
X58500Y66500D02*
D03*
Y86500D02*
D03*
X-58000Y66500D02*
D03*
Y86500D02*
D03*
X58500Y56500D02*
D03*
Y76500D02*
D03*
Y96500D02*
D03*
X-58000Y76500D02*
D03*
Y96500D02*
D03*
G54D72*
X-115000Y-83000D02*
D03*
X115000D02*
D03*
Y83000D02*
D03*
X-115000D02*
D03*
G54D73*
X0Y18543D02*
D03*
Y96890D02*
D03*
G54D74*
X72000Y-48500D02*
D03*
Y-58500D02*
D03*
X-67500Y-17500D02*
D03*
X-97500D02*
D03*
G54D75*
X72000Y-68500D02*
D03*
G54D76*
X45000Y-133500D02*
D03*
Y-93500D02*
D03*
Y-103500D02*
D03*
Y-113500D02*
D03*
Y-73500D02*
D03*
Y-63500D02*
D03*
Y-53500D02*
D03*
Y6500D02*
D03*
Y-3500D02*
D03*
Y-13500D02*
D03*
Y-23500D02*
D03*
Y-33500D02*
D03*
Y-43500D02*
D03*
X-45000Y-133500D02*
D03*
Y-93500D02*
D03*
Y-103500D02*
D03*
Y-113500D02*
D03*
Y-83500D02*
D03*
Y-73500D02*
D03*
Y-63500D02*
D03*
Y6500D02*
D03*
Y-3500D02*
D03*
Y-13500D02*
D03*
Y-23500D02*
D03*
Y-33500D02*
D03*
Y-43500D02*
D03*
G54D77*
X45000Y-123500D02*
D03*
Y-83500D02*
D03*
X-45000Y-123500D02*
D03*
Y-53500D02*
D03*
G54D78*
X62500Y29500D02*
D03*
Y3500D02*
D03*
X80500D02*
D03*
Y29500D02*
D03*
G54D79*
X4500Y-118000D02*
D03*
X-26346Y-136153D02*
D03*
X-53500Y-70000D02*
D03*
X-57000Y-82500D02*
D03*
X26000Y-15000D02*
D03*
X-26000Y-10000D02*
D03*
X31500Y-16500D02*
D03*
X15000Y-133500D02*
D03*
X12543Y-105043D02*
D03*
X-500Y-99500D02*
D03*
X-15000Y-151000D02*
D03*
Y-84500D02*
D03*
Y-106000D02*
D03*
X-90866Y-42866D02*
D03*
X-90000Y-70000D02*
D03*
Y-76346D02*
D03*
G54D80*
X117500Y-56500D02*
D03*
X128000Y23000D02*
D03*
X113500Y51000D02*
D03*
X90000Y94500D02*
D03*
X62000Y108500D02*
D03*
X-14500Y124000D02*
D03*
X84000Y-92000D02*
D03*
X61500Y-115000D02*
D03*
X-84500Y92000D02*
D03*
X-117500Y56500D02*
D03*
X-122500Y24500D02*
D03*
X-128000Y-23000D02*
D03*
X-113000Y-52000D02*
D03*
X-90000Y-94000D02*
D03*
X-61000Y-109000D02*
D03*
X113500Y30000D02*
D03*
X132000Y57000D02*
D03*
X73000Y124000D02*
D03*
X122000Y-25000D02*
D03*
X140500Y-31000D02*
D03*
X107500Y-41500D02*
D03*
X95000Y-107500D02*
D03*
X63500Y-98500D02*
D03*
X-74000Y-91500D02*
D03*
X-131500Y-57500D02*
D03*
X-113000Y-30000D02*
D03*
X14354Y-143146D02*
D03*
X73000Y90000D02*
D03*
X26346Y136153D02*
D03*
X15854Y123854D02*
D03*
X-61500Y108500D02*
D03*
X-59500Y125000D02*
D03*
X-95000Y107500D02*
D03*
X-14000Y143000D02*
D03*
X-140500Y31000D02*
D03*
X-109500Y42000D02*
D03*
M02*
