M48
;Layer_Color=9474304
;FILE_FORMAT=2:5
INCH,LZ
;TYPE=PLATED
T1F00S00C0.01600
T2F00S00C0.02800
T3F00S00C0.03500
T4F00S00C0.03543
T5F00S00C0.04724
T6F00S00C0.04921
T7F00S00C0.15748
;TYPE=NON_PLATED
T8F00S00C0.11500
%
T01
X-0015Y-0151
X-0026346Y-0136153
X-0015Y-0106
X-00005Y-00995
X0012543Y-0105043
X00045Y-0118
X0015Y-01335
X-0015Y-00845
X-0057Y-00825
X-00535Y-007
X-009
Y-0076346
X-0090866Y-0042866
X-0026Y-001
X0026Y-0015
X00315Y-00165
T02
X0095Y-01075
X01175Y-00565
X0084Y-0092
X00635Y-00985
X00615Y-0115
X0014354Y-0143146
X-0061Y-0109
X-0074Y-00915
X-009Y-0094
X-0113Y-0052
X-01315Y-00575
X-0128Y-0023
X-0113Y-003
X-00975Y-00175
X-01225Y00245
X-01405Y0031
X-01095Y0042
X-01175Y00565
X-00845Y0092
X-0095Y01075
X-00615Y01085
X0062
X0073Y009
X-00675Y-00175
X0122Y-0025
X01405Y-0031
X01075Y-00415
X01135Y003
Y0051
X0132Y0057
X0128Y0023
X009Y00945
X0073Y0124
X0015854Y0123854
X0026346Y0136153
X-0014Y0143
X-00145Y0124
X-00595Y0125
T03
X-0045Y-01335
Y-01235
Y-01135
Y-01035
Y-00935
Y-00835
Y-00735
Y-00635
Y-00535
X0045
Y-00635
Y-00735
Y-00835
Y-00935
Y-01035
Y-01135
Y-01235
Y-01335
Y-00435
Y-00335
Y-00235
Y-00135
Y-00035
Y00065
X-0045
Y-00035
Y-00135
Y-00235
Y-00335
Y-00435
T04
X0072Y-00685
Y-00585
Y-00485
X-0075Y0025
Y0035
Y0045
Y0055
X-009
Y0065
Y0045
Y0035
Y0025
Y0015
X-0058Y00665
Y00765
Y00865
Y00965
X00585
Y00865
Y00765
Y00665
Y00565
T05
X00625Y00035
X00805
Y00295
X00625
T06
X0Y0018543
Y009689
T07
X0115Y-0083
X-0115
Y0083
X0115
T08
X-0041Y-01495
X0041
Y00225
X-0041
M30
