G04 Layer_Color=16711935*
%FSLAX25Y25*%
%MOIN*%
G70*
G01*
G75*
%ADD31C,0.01000*%
%ADD82C,0.00200*%
G54D31*
X165354Y0D02*
X165351Y1000D01*
X165342Y2000D01*
X165327Y3000D01*
X165306Y3999D01*
X165279Y4999D01*
X165245Y5998D01*
X165206Y6998D01*
X165161Y7997D01*
X165110Y8995D01*
X165052Y9993D01*
X164989Y10991D01*
X164919Y11989D01*
X164844Y12986D01*
X164762Y13983D01*
X164674Y14979D01*
X164581Y15974D01*
X164481Y16969D01*
X164376Y17964D01*
X164264Y18957D01*
X164146Y19950D01*
X164023Y20943D01*
X163893Y21934D01*
X163758Y22925D01*
X163616Y23915D01*
X163468Y24904D01*
X163315Y25892D01*
X163155Y26879D01*
X162989Y27865D01*
X162818Y28850D01*
X162641Y29834D01*
X162457Y30817D01*
X162268Y31799D01*
X162073Y32780D01*
X161871Y33759D01*
X161664Y34738D01*
X161451Y35715D01*
X161232Y36690D01*
X161007Y37665D01*
X160777Y38638D01*
X160540Y39609D01*
X160298Y40579D01*
X160049Y41548D01*
X159795Y42515D01*
X159535Y43481D01*
X159269Y44445D01*
X158998Y45407D01*
X158720Y46368D01*
X158437Y47327D01*
X158148Y48284D01*
X157853Y49239D01*
X157552Y50193D01*
X157246Y51145D01*
X156934Y52095D01*
X156616Y53043D01*
X156292Y53989D01*
X155963Y54933D01*
X155628Y55875D01*
X155287Y56815D01*
X154941Y57753D01*
X154588Y58689D01*
X154231Y59623D01*
X153867Y60555D01*
X153498Y61484D01*
X153124Y62411D01*
X152744Y63336D01*
X152358Y64259D01*
X151966Y65179D01*
X151569Y66097D01*
X151167Y67012D01*
X150759Y67925D01*
X150345Y68835D01*
X149926Y69743D01*
X149502Y70649D01*
X149072Y71551D01*
X148636Y72452D01*
X148196Y73349D01*
X147749Y74244D01*
X147298Y75136D01*
X146841Y76025D01*
X146378Y76912D01*
X145910Y77796D01*
X145437Y78677D01*
X144959Y79555D01*
X144475Y80430D01*
X143986Y81302D01*
X143492Y82171D01*
X142992Y83038D01*
X142488Y83901D01*
X141978Y84761D01*
X141462Y85618D01*
X140942Y86472D01*
X140417Y87323D01*
X139886Y88170D01*
X139350Y89015D01*
X138809Y89856D01*
X138263Y90693D01*
X137712Y91528D01*
X137156Y92359D01*
X136595Y93187D01*
X136029Y94011D01*
X135458Y94832D01*
X134882Y95649D01*
X134301Y96463D01*
X133716Y97274D01*
X133125Y98080D01*
X132529Y98884D01*
X131929Y99683D01*
X131324Y100479D01*
X130714Y101272D01*
X130099Y102060D01*
X129479Y102845D01*
X128855Y103626D01*
X128226Y104404D01*
X127592Y105177D01*
X126954Y105947D01*
X126311Y106713D01*
X125663Y107475D01*
X125011Y108232D01*
X124354Y108986D01*
X123693Y109736D01*
X123027Y110482D01*
X122357Y111224D01*
X121682Y111962D01*
X121003Y112696D01*
X120319Y113426D01*
X119631Y114151D01*
X118938Y114873D01*
X118242Y115590D01*
X117540Y116303D01*
X116835Y117011D01*
X116125Y117716D01*
X115411Y118416D01*
X114693Y119112D01*
X113971Y119803D01*
X113244Y120490D01*
X112513Y121173D01*
X111778Y121851D01*
X111040Y122525D01*
X110297Y123194D01*
X109550Y123858D01*
X108799Y124519D01*
X108044Y125174D01*
X107285Y125826D01*
X106522Y126472D01*
X105755Y127114D01*
X104984Y127751D01*
X104210Y128384D01*
X103432Y129011D01*
X102650Y129634D01*
X101864Y130253D01*
X101074Y130867D01*
X100281Y131475D01*
X99484Y132079D01*
X98684Y132679D01*
X97879Y133273D01*
X97072Y133862D01*
X96260Y134447D01*
X95446Y135027D01*
X94627Y135601D01*
X93806Y136171D01*
X92980Y136736D01*
X92152Y137296D01*
X91320Y137850D01*
X90485Y138400D01*
X89646Y138945D01*
X88804Y139484D01*
X87959Y140019D01*
X87111Y140548D01*
X86259Y141072D01*
X85404Y141591D01*
X84547Y142105D01*
X83686Y142614D01*
X82822Y143117D01*
X81955Y143616D01*
X81085Y144109D01*
X80212Y144596D01*
X79336Y145079D01*
X78457Y145556D01*
X77576Y146028D01*
X76691Y146494D01*
X75804Y146955D01*
X74914Y147411D01*
X74021Y147861D01*
X73125Y148306D01*
X72227Y148746D01*
X71326Y149180D01*
X70423Y149608D01*
X69517Y150031D01*
X68608Y150449D01*
X67697Y150861D01*
X66784Y151268D01*
X65868Y151669D01*
X64949Y152065D01*
X64029Y152455D01*
X63105Y152839D01*
X62180Y153218D01*
X61252Y153591D01*
X60322Y153959D01*
X59390Y154321D01*
X58456Y154677D01*
X57520Y155028D01*
X56581Y155373D01*
X55640Y155712D01*
X54698Y156046D01*
X53753Y156374D01*
X52806Y156696D01*
X51858Y157012D01*
X50907Y157323D01*
X49955Y157628D01*
X49001Y157927D01*
X48045Y158221D01*
X47087Y158508D01*
X46128Y158790D01*
X45167Y159066D01*
X44204Y159336D01*
X43240Y159601D01*
X42274Y159859D01*
X41306Y160112D01*
X40337Y160359D01*
X39367Y160600D01*
X38395Y160835D01*
X37422Y161064D01*
X36447Y161288D01*
X35471Y161505D01*
X34493Y161717D01*
X33515Y161922D01*
X32535Y162122D01*
X31554Y162316D01*
X30572Y162504D01*
X29589Y162686D01*
X28604Y162861D01*
X27619Y163031D01*
X26632Y163196D01*
X25645Y163354D01*
X24657Y163506D01*
X23667Y163652D01*
X22677Y163792D01*
X21687Y163926D01*
X20695Y164054D01*
X19702Y164176D01*
X18709Y164293D01*
X17715Y164403D01*
X16721Y164507D01*
X15726Y164605D01*
X14730Y164697D01*
X13734Y164783D01*
X12737Y164863D01*
X11740Y164937D01*
X10742Y165005D01*
X9744Y165067D01*
X8746Y165123D01*
X7747Y165173D01*
X6748Y165217D01*
X5749Y165254D01*
X4749Y165286D01*
X3750Y165312D01*
X2750Y165331D01*
X1750Y165345D01*
X750Y165353D01*
X-250Y165354D01*
X-1250Y165350D01*
X-2250Y165339D01*
X-3250Y165322D01*
X-4249Y165300D01*
X-5249Y165271D01*
X-6248Y165236D01*
X-7247Y165195D01*
X-8246Y165149D01*
X-9245Y165096D01*
X-10243Y165037D01*
X-11241Y164972D01*
X-12238Y164901D01*
X-13235Y164824D01*
X-14232Y164741D01*
X-15228Y164652D01*
X-16223Y164557D01*
X-17218Y164455D01*
X-18212Y164348D01*
X-19206Y164235D01*
X-20199Y164116D01*
X-21191Y163991D01*
X-22182Y163860D01*
X-23173Y163723D01*
X-24162Y163579D01*
X-25151Y163430D01*
X-26139Y163275D01*
X-27126Y163114D01*
X-28112Y162947D01*
X-29096Y162774D01*
X-30080Y162595D01*
X-31063Y162410D01*
X-32045Y162220D01*
X-33025Y162023D01*
X-34004Y161820D01*
X-34982Y161612D01*
X-35959Y161397D01*
X-36934Y161177D01*
X-37908Y160950D01*
X-38881Y160718D01*
X-39852Y160480D01*
X-40822Y160236D01*
X-41790Y159986D01*
X-42757Y159731D01*
X-43722Y159469D01*
X-44686Y159202D01*
X-45647Y158929D01*
X-46608Y158650D01*
X-47566Y158365D01*
X-48523Y158075D01*
X-49478Y157778D01*
X-50431Y157476D01*
X-51383Y157168D01*
X-52332Y156855D01*
X-53280Y156535D01*
X-54225Y156210D01*
X-55169Y155879D01*
X-56111Y155543D01*
X-57050Y155201D01*
X-57988Y154853D01*
X-58923Y154499D01*
X-59856Y154140D01*
X-60788Y153776D01*
X-61716Y153405D01*
X-62643Y153029D01*
X-63567Y152647D01*
X-64489Y152260D01*
X-65409Y151867D01*
X-66326Y151469D01*
X-67241Y151065D01*
X-68153Y150656D01*
X-69063Y150241D01*
X-69970Y149821D01*
X-70875Y149395D01*
X-71777Y148963D01*
X-72677Y148527D01*
X-73573Y148084D01*
X-74468Y147637D01*
X-75359Y147184D01*
X-76248Y146725D01*
X-77134Y146262D01*
X-78017Y145792D01*
X-78897Y145318D01*
X-79774Y144838D01*
X-80649Y144353D01*
X-81520Y143863D01*
X-82389Y143367D01*
X-83254Y142866D01*
X-84117Y142360D01*
X-84976Y141849D01*
X-85832Y141332D01*
X-86685Y140811D01*
X-87535Y140284D01*
X-88382Y139752D01*
X-89226Y139215D01*
X-90066Y138673D01*
X-90903Y138126D01*
X-91736Y137574D01*
X-92567Y137016D01*
X-93394Y136454D01*
X-94217Y135887D01*
X-95037Y135315D01*
X-95854Y134737D01*
X-96667Y134155D01*
X-97476Y133568D01*
X-98282Y132976D01*
X-99085Y132379D01*
X-99883Y131778D01*
X-100678Y131171D01*
X-101470Y130560D01*
X-102257Y129944D01*
X-103041Y129323D01*
X-103822Y128698D01*
X-104598Y128068D01*
X-105370Y127433D01*
X-106139Y126793D01*
X-106904Y126149D01*
X-107665Y125500D01*
X-108422Y124847D01*
X-109175Y124189D01*
X-109924Y123527D01*
X-110669Y122860D01*
X-111410Y122188D01*
X-112146Y121512D01*
X-112879Y120832D01*
X-113608Y120147D01*
X-114332Y119458D01*
X-115053Y118764D01*
X-115769Y118066D01*
X-116481Y117364D01*
X-117188Y116658D01*
X-117892Y115947D01*
X-118590Y115232D01*
X-119285Y114513D01*
X-119975Y113789D01*
X-120661Y113061D01*
X-121343Y112330D01*
X-122020Y111594D01*
X-122693Y110854D01*
X-123361Y110110D01*
X-124024Y109362D01*
X-124683Y108610D01*
X-125338Y107854D01*
X-125988Y107094D01*
X-126633Y106330D01*
X-127274Y105563D01*
X-127910Y104791D01*
X-128541Y104016D01*
X-129168Y103236D01*
X-129790Y102453D01*
X-130407Y101667D01*
X-131019Y100876D01*
X-131627Y100082D01*
X-132230Y99284D01*
X-132828Y98483D01*
X-133421Y97678D01*
X-134009Y96869D01*
X-134592Y96057D01*
X-135171Y95241D01*
X-135744Y94422D01*
X-136313Y93600D01*
X-136876Y92774D01*
X-137435Y91944D01*
X-137988Y91111D01*
X-138537Y90275D01*
X-139080Y89436D01*
X-139618Y88593D01*
X-140152Y87747D01*
X-140680Y86898D01*
X-141203Y86046D01*
X-141720Y85190D01*
X-142233Y84332D01*
X-142740Y83470D01*
X-143243Y82605D01*
X-143739Y81738D01*
X-144231Y80867D01*
X-144717Y79993D01*
X-145199Y79117D01*
X-145674Y78237D01*
X-146145Y77355D01*
X-146610Y76470D01*
X-147070Y75582D01*
X-147524Y74691D01*
X-147973Y73798D01*
X-148416Y72901D01*
X-148855Y72003D01*
X-149287Y71101D01*
X-149715Y70197D01*
X-150136Y69290D01*
X-150553Y68381D01*
X-150963Y67470D01*
X-151369Y66555D01*
X-151768Y65639D01*
X-152162Y64720D01*
X-152551Y63798D01*
X-152934Y62875D01*
X-153312Y61949D01*
X-153683Y61021D01*
X-154050Y60090D01*
X-154410Y59157D01*
X-154765Y58223D01*
X-155114Y57286D01*
X-155458Y56347D01*
X-155796Y55405D01*
X-156128Y54462D01*
X-156454Y53517D01*
X-156775Y52570D01*
X-157090Y51621D01*
X-157399Y50670D01*
X-157703Y49717D01*
X-158001Y48763D01*
X-158293Y47807D01*
X-158579Y46848D01*
X-158859Y45889D01*
X-159134Y44927D01*
X-159403Y43964D01*
X-159666Y42999D01*
X-159923Y42033D01*
X-160174Y41065D01*
X-160419Y40096D01*
X-160659Y39125D01*
X-160893Y38153D01*
X-161120Y37179D01*
X-161342Y36204D01*
X-161558Y35228D01*
X-161768Y34250D01*
X-161972Y33271D01*
X-162171Y32291D01*
X-162363Y31310D01*
X-162549Y30327D01*
X-162730Y29344D01*
X-162904Y28359D01*
X-163073Y27374D01*
X-163235Y26387D01*
X-163392Y25399D01*
X-163543Y24411D01*
X-163687Y23421D01*
X-163826Y22431D01*
X-163959Y21440D01*
X-164085Y20448D01*
X-164206Y19455D01*
X-164320Y18462D01*
X-164429Y17468D01*
X-164532Y16474D01*
X-164628Y15478D01*
X-164719Y14482D01*
X-164804Y13486D01*
X-164882Y12489D01*
X-164954Y11492D01*
X-165021Y10494D01*
X-165081Y9496D01*
X-165136Y8498D01*
X-165184Y7499D01*
X-165226Y6500D01*
X-165263Y5501D01*
X-165293Y4501D01*
X-165317Y3501D01*
X-165335Y2502D01*
X-165348Y1502D01*
X-165354Y502D01*
X-165354Y-498D01*
X-165348Y-1498D01*
X-165336Y-2498D01*
X-165317Y-3498D01*
X-165293Y-4497D01*
X-165263Y-5497D01*
X-165227Y-6496D01*
X-165184Y-7495D01*
X-165136Y-8494D01*
X-165082Y-9492D01*
X-165021Y-10490D01*
X-164955Y-11488D01*
X-164882Y-12485D01*
X-164804Y-13482D01*
X-164719Y-14479D01*
X-164629Y-15474D01*
X-164532Y-16470D01*
X-164429Y-17464D01*
X-164321Y-18458D01*
X-164206Y-19452D01*
X-164086Y-20444D01*
X-163959Y-21436D01*
X-163826Y-22427D01*
X-163688Y-23418D01*
X-163543Y-24407D01*
X-163392Y-25396D01*
X-163236Y-26383D01*
X-163073Y-27370D01*
X-162905Y-28356D01*
X-162731Y-29340D01*
X-162550Y-30324D01*
X-162364Y-31306D01*
X-162171Y-32287D01*
X-161973Y-33267D01*
X-161769Y-34246D01*
X-161559Y-35224D01*
X-161343Y-36200D01*
X-161121Y-37175D01*
X-160893Y-38149D01*
X-160660Y-39121D01*
X-160420Y-40092D01*
X-160175Y-41061D01*
X-159924Y-42029D01*
X-159667Y-42996D01*
X-159404Y-43960D01*
X-159135Y-44923D01*
X-158860Y-45885D01*
X-158580Y-46845D01*
X-158294Y-47803D01*
X-158002Y-48759D01*
X-157704Y-49714D01*
X-157401Y-50666D01*
X-157091Y-51617D01*
X-156776Y-52566D01*
X-156456Y-53513D01*
X-156129Y-54459D01*
X-155797Y-55402D01*
X-155459Y-56343D01*
X-155115Y-57282D01*
X-154766Y-58219D01*
X-154411Y-59154D01*
X-154051Y-60087D01*
X-153685Y-61017D01*
X-153313Y-61945D01*
X-152936Y-62871D01*
X-152552Y-63795D01*
X-152164Y-64716D01*
X-151770Y-65635D01*
X-151370Y-66552D01*
X-150965Y-67466D01*
X-150554Y-68378D01*
X-150138Y-69287D01*
X-149716Y-70193D01*
X-149289Y-71098D01*
X-148856Y-71999D01*
X-148418Y-72898D01*
X-147975Y-73794D01*
X-147526Y-74687D01*
X-147071Y-75578D01*
X-146612Y-76466D01*
X-146147Y-77351D01*
X-145676Y-78234D01*
X-145200Y-79113D01*
X-144719Y-79990D01*
X-144233Y-80864D01*
X-143741Y-81734D01*
X-143244Y-82602D01*
X-142742Y-83467D01*
X-142235Y-84329D01*
X-141722Y-85187D01*
X-141205Y-86042D01*
X-140682Y-86895D01*
X-140154Y-87744D01*
X-139620Y-88590D01*
X-139082Y-89433D01*
X-138539Y-90272D01*
X-137990Y-91108D01*
X-137437Y-91941D01*
X-136878Y-92770D01*
X-136315Y-93596D01*
X-135747Y-94419D01*
X-135173Y-95238D01*
X-134595Y-96054D01*
X-134011Y-96866D01*
X-133423Y-97675D01*
X-132830Y-98480D01*
X-132232Y-99281D01*
X-131629Y-100079D01*
X-131022Y-100873D01*
X-130409Y-101664D01*
X-129792Y-102450D01*
X-129170Y-103233D01*
X-128543Y-104013D01*
X-127912Y-104788D01*
X-127276Y-105560D01*
X-126636Y-106327D01*
X-125990Y-107091D01*
X-125340Y-107851D01*
X-124686Y-108607D01*
X-124027Y-109359D01*
X-123363Y-110107D01*
X-122695Y-110851D01*
X-122022Y-111591D01*
X-121345Y-112327D01*
X-120664Y-113059D01*
X-119978Y-113786D01*
X-119288Y-114510D01*
X-118593Y-115229D01*
X-117894Y-115944D01*
X-117191Y-116655D01*
X-116483Y-117361D01*
X-115771Y-118064D01*
X-115055Y-118762D01*
X-114335Y-119455D01*
X-113611Y-120144D01*
X-112882Y-120829D01*
X-112149Y-121510D01*
X-111412Y-122186D01*
X-110671Y-122857D01*
X-109927Y-123524D01*
X-109178Y-124187D01*
X-108425Y-124845D01*
X-107668Y-125498D01*
X-106907Y-126147D01*
X-106142Y-126791D01*
X-105373Y-127430D01*
X-104601Y-128065D01*
X-103824Y-128695D01*
X-103044Y-129321D01*
X-102260Y-129942D01*
X-101473Y-130558D01*
X-100681Y-131169D01*
X-99886Y-131775D01*
X-99088Y-132377D01*
X-98285Y-132974D01*
X-97479Y-133566D01*
X-96670Y-134153D01*
X-95857Y-134735D01*
X-95040Y-135312D01*
X-94220Y-135884D01*
X-93397Y-136452D01*
X-92570Y-137014D01*
X-91740Y-137571D01*
X-90906Y-138124D01*
X-90069Y-138671D01*
X-89229Y-139213D01*
X-88386Y-139750D01*
X-87539Y-140282D01*
X-86689Y-140809D01*
X-85836Y-141330D01*
X-84980Y-141847D01*
X-84120Y-142358D01*
X-83258Y-142864D01*
X-82393Y-143365D01*
X-81524Y-143861D01*
X-80652Y-144351D01*
X-79778Y-144836D01*
X-78901Y-145316D01*
X-78021Y-145790D01*
X-77138Y-146259D01*
X-76252Y-146723D01*
X-75363Y-147182D01*
X-74472Y-147635D01*
X-73577Y-148082D01*
X-72681Y-148525D01*
X-71781Y-148961D01*
X-70879Y-149393D01*
X-69974Y-149819D01*
X-69067Y-150239D01*
X-68157Y-150654D01*
X-67245Y-151063D01*
X-66330Y-151467D01*
X-65413Y-151866D01*
X-64494Y-152258D01*
X-63572Y-152646D01*
X-62647Y-153027D01*
X-61721Y-153403D01*
X-60792Y-153774D01*
X-59861Y-154139D01*
X-58928Y-154498D01*
X-57993Y-154851D01*
X-57055Y-155199D01*
X-56116Y-155541D01*
X-55174Y-155878D01*
X-54230Y-156209D01*
X-53285Y-156534D01*
X-52337Y-156853D01*
X-51388Y-157167D01*
X-50436Y-157475D01*
X-49483Y-157777D01*
X-48528Y-158073D01*
X-47571Y-158364D01*
X-46613Y-158648D01*
X-45652Y-158927D01*
X-44691Y-159201D01*
X-43727Y-159468D01*
X-42762Y-159729D01*
X-41795Y-159985D01*
X-40827Y-160235D01*
X-39857Y-160479D01*
X-38886Y-160717D01*
X-37913Y-160949D01*
X-36939Y-161176D01*
X-35964Y-161396D01*
X-34987Y-161610D01*
X-34009Y-161819D01*
X-33030Y-162022D01*
X-32050Y-162219D01*
X-31068Y-162409D01*
X-30085Y-162594D01*
X-29101Y-162773D01*
X-28117Y-162946D01*
X-27131Y-163113D01*
X-26144Y-163275D01*
X-25156Y-163430D01*
X-24167Y-163579D01*
X-23177Y-163722D01*
X-22187Y-163859D01*
X-21195Y-163990D01*
X-20203Y-164115D01*
X-19210Y-164235D01*
X-18217Y-164348D01*
X-17223Y-164455D01*
X-16228Y-164556D01*
X-15233Y-164651D01*
X-14236Y-164740D01*
X-13240Y-164823D01*
X-12243Y-164901D01*
X-11246Y-164971D01*
X-10248Y-165036D01*
X-9249Y-165095D01*
X-8251Y-165148D01*
X-7252Y-165195D01*
X-6253Y-165236D01*
X-5253Y-165271D01*
X-4254Y-165300D01*
X-3254Y-165322D01*
X-2254Y-165339D01*
X-1254Y-165350D01*
X-254Y-165354D01*
X746Y-165353D01*
X1746Y-165345D01*
X2746Y-165331D01*
X3745Y-165312D01*
X4745Y-165286D01*
X5744Y-165254D01*
X6744Y-165217D01*
X7743Y-165173D01*
X8741Y-165123D01*
X9740Y-165067D01*
X10738Y-165005D01*
X11736Y-164937D01*
X12733Y-164863D01*
X13730Y-164783D01*
X14726Y-164697D01*
X15722Y-164605D01*
X16717Y-164507D01*
X17711Y-164403D01*
X18705Y-164293D01*
X19698Y-164177D01*
X20691Y-164055D01*
X21683Y-163927D01*
X22674Y-163792D01*
X23664Y-163652D01*
X24653Y-163506D01*
X25641Y-163354D01*
X26629Y-163196D01*
X27615Y-163032D01*
X28600Y-162862D01*
X29585Y-162686D01*
X30568Y-162504D01*
X31550Y-162316D01*
X32531Y-162123D01*
X33511Y-161923D01*
X34490Y-161717D01*
X35467Y-161506D01*
X36443Y-161288D01*
X37418Y-161065D01*
X38391Y-160836D01*
X39363Y-160601D01*
X40334Y-160360D01*
X41303Y-160113D01*
X42270Y-159860D01*
X43236Y-159602D01*
X44201Y-159337D01*
X45164Y-159067D01*
X46125Y-158791D01*
X47084Y-158509D01*
X48042Y-158221D01*
X48998Y-157928D01*
X49952Y-157629D01*
X50904Y-157324D01*
X51855Y-157013D01*
X52803Y-156697D01*
X53750Y-156375D01*
X54695Y-156047D01*
X55637Y-155713D01*
X56578Y-155374D01*
X57517Y-155029D01*
X58453Y-154678D01*
X59387Y-154322D01*
X60320Y-153960D01*
X61250Y-153592D01*
X62177Y-153219D01*
X63103Y-152840D01*
X64026Y-152456D01*
X64947Y-152066D01*
X65865Y-151670D01*
X66781Y-151269D01*
X67695Y-150863D01*
X68606Y-150450D01*
X69514Y-150033D01*
X70420Y-149610D01*
X71324Y-149181D01*
X72225Y-148747D01*
X73123Y-148307D01*
X74019Y-147863D01*
X74911Y-147412D01*
X75801Y-146956D01*
X76689Y-146495D01*
X77573Y-146029D01*
X78455Y-145557D01*
X79334Y-145080D01*
X80210Y-144598D01*
X81083Y-144110D01*
X81953Y-143617D01*
X82820Y-143119D01*
X83684Y-142615D01*
X84545Y-142106D01*
X85403Y-141593D01*
X86257Y-141074D01*
X87109Y-140549D01*
X87957Y-140020D01*
X88802Y-139486D01*
X89644Y-138946D01*
X90483Y-138401D01*
X91318Y-137852D01*
X92150Y-137297D01*
X92979Y-136737D01*
X93804Y-136172D01*
X94626Y-135602D01*
X95444Y-135028D01*
X96259Y-134448D01*
X97070Y-133863D01*
X97878Y-133274D01*
X98682Y-132680D01*
X99483Y-132080D01*
X100280Y-131476D01*
X101073Y-130868D01*
X101863Y-130254D01*
X102648Y-129636D01*
X103430Y-129012D01*
X104209Y-128384D01*
X104983Y-127752D01*
X105754Y-127115D01*
X106521Y-126473D01*
X107284Y-125826D01*
X108043Y-125175D01*
X108798Y-124520D01*
X109549Y-123859D01*
X110296Y-123195D01*
X111039Y-122525D01*
X111778Y-121852D01*
X112512Y-121174D01*
X113243Y-120491D01*
X113970Y-119804D01*
X114692Y-119112D01*
X115410Y-118417D01*
X116124Y-117717D01*
X116834Y-117012D01*
X117540Y-116303D01*
X118241Y-115590D01*
X118938Y-114873D01*
X119630Y-114152D01*
X120318Y-113426D01*
X121002Y-112697D01*
X121681Y-111963D01*
X122356Y-111225D01*
X123027Y-110483D01*
X123693Y-109737D01*
X124354Y-108987D01*
X125011Y-108233D01*
X125663Y-107475D01*
X126311Y-106713D01*
X126954Y-105947D01*
X127592Y-105177D01*
X128226Y-104404D01*
X128855Y-103627D01*
X129479Y-102846D01*
X130099Y-102061D01*
X130714Y-101272D01*
X131324Y-100480D01*
X131929Y-99684D01*
X132529Y-98884D01*
X133125Y-98081D01*
X133716Y-97274D01*
X134301Y-96463D01*
X134882Y-95649D01*
X135458Y-94832D01*
X136029Y-94011D01*
X136595Y-93187D01*
X137156Y-92359D01*
X137712Y-91528D01*
X138263Y-90693D01*
X138809Y-89855D01*
X139350Y-89014D01*
X139886Y-88170D01*
X140417Y-87322D01*
X140942Y-86472D01*
X141463Y-85618D01*
X141978Y-84761D01*
X142488Y-83901D01*
X142992Y-83037D01*
X143492Y-82171D01*
X143986Y-81302D01*
X144475Y-80430D01*
X144959Y-79554D01*
X145438Y-78676D01*
X145911Y-77795D01*
X146379Y-76911D01*
X146841Y-76025D01*
X147298Y-75135D01*
X147750Y-74243D01*
X148196Y-73348D01*
X148637Y-72451D01*
X149072Y-71551D01*
X149502Y-70648D01*
X149927Y-69743D01*
X150346Y-68835D01*
X150759Y-67924D01*
X151167Y-67011D01*
X151570Y-66096D01*
X151967Y-65178D01*
X152358Y-64258D01*
X152744Y-63335D01*
X153124Y-62410D01*
X153499Y-61483D01*
X153868Y-60554D01*
X154231Y-59622D01*
X154589Y-58688D01*
X154941Y-57752D01*
X155287Y-56814D01*
X155628Y-55874D01*
X155963Y-54932D01*
X156293Y-53988D01*
X156616Y-53042D01*
X156934Y-52093D01*
X157246Y-51143D01*
X157553Y-50192D01*
X157853Y-49238D01*
X158148Y-48282D01*
X158437Y-47325D01*
X158721Y-46366D01*
X158998Y-45405D01*
X159270Y-44443D01*
X159536Y-43479D01*
X159796Y-42513D01*
X160050Y-41546D01*
X160298Y-40578D01*
X160541Y-39608D01*
X160777Y-38636D01*
X161008Y-37663D01*
X161233Y-36689D01*
X161452Y-35713D01*
X161665Y-34736D01*
X161872Y-33757D01*
X162073Y-32778D01*
X162268Y-31797D01*
X162458Y-30815D01*
X162641Y-29832D01*
X162818Y-28848D01*
X162990Y-27863D01*
X163155Y-26877D01*
X163315Y-25890D01*
X163469Y-24902D01*
X163616Y-23913D01*
X163758Y-22923D01*
X163893Y-21932D01*
X164023Y-20940D01*
X164147Y-19948D01*
X164264Y-18955D01*
X164376Y-17961D01*
X164481Y-16967D01*
X164581Y-15972D01*
X164675Y-14976D01*
X164762Y-13980D01*
X164844Y-12984D01*
X164919Y-11986D01*
X164989Y-10989D01*
X165052Y-9991D01*
X165110Y-8993D01*
X165161Y-7994D01*
X165206Y-6995D01*
X165246Y-5996D01*
X165279Y-4996D01*
X165306Y-3997D01*
X165327Y-2997D01*
X165342Y-1997D01*
X165351Y-997D01*
X165354Y0D01*
G54D82*
X-35250Y-149500D02*
X-35337Y-148502D01*
X-35597Y-147533D01*
X-36020Y-146625D01*
X-36595Y-145804D01*
X-37304Y-145095D01*
X-38125Y-144520D01*
X-39033Y-144097D01*
X-40001Y-143837D01*
X-41000Y-143750D01*
X-41998Y-143837D01*
X-42967Y-144097D01*
X-43875Y-144520D01*
X-44696Y-145095D01*
X-45405Y-145804D01*
X-45980Y-146625D01*
X-46403Y-147533D01*
X-46663Y-148502D01*
X-46750Y-149500D01*
X-46663Y-150498D01*
X-46403Y-151467D01*
X-45980Y-152375D01*
X-45405Y-153196D01*
X-44696Y-153905D01*
X-43875Y-154480D01*
X-42967Y-154903D01*
X-41998Y-155163D01*
X-41000Y-155250D01*
X-40001Y-155163D01*
X-39033Y-154903D01*
X-38125Y-154480D01*
X-37304Y-153905D01*
X-36595Y-153196D01*
X-36020Y-152375D01*
X-35597Y-151467D01*
X-35337Y-150498D01*
X-35250Y-149500D01*
X46750D02*
X46663Y-148502D01*
X46403Y-147533D01*
X45980Y-146625D01*
X45405Y-145804D01*
X44696Y-145095D01*
X43875Y-144520D01*
X42967Y-144097D01*
X41998Y-143837D01*
X41000Y-143750D01*
X40001Y-143837D01*
X39033Y-144097D01*
X38125Y-144520D01*
X37304Y-145095D01*
X36595Y-145804D01*
X36020Y-146625D01*
X35597Y-147533D01*
X35337Y-148502D01*
X35250Y-149500D01*
X35337Y-150498D01*
X35597Y-151467D01*
X36020Y-152375D01*
X36595Y-153196D01*
X37304Y-153905D01*
X38125Y-154480D01*
X39033Y-154903D01*
X40001Y-155163D01*
X41000Y-155250D01*
X41998Y-155163D01*
X42967Y-154903D01*
X43875Y-154480D01*
X44696Y-153905D01*
X45405Y-153196D01*
X45980Y-152375D01*
X46403Y-151467D01*
X46663Y-150498D01*
X46750Y-149500D01*
X-35250Y22500D02*
X-35337Y23498D01*
X-35597Y24467D01*
X-36020Y25375D01*
X-36595Y26196D01*
X-37304Y26905D01*
X-38125Y27480D01*
X-39033Y27903D01*
X-40001Y28163D01*
X-41000Y28250D01*
X-41998Y28163D01*
X-42967Y27903D01*
X-43875Y27480D01*
X-44696Y26905D01*
X-45405Y26196D01*
X-45980Y25375D01*
X-46403Y24467D01*
X-46663Y23498D01*
X-46750Y22500D01*
X-46663Y21501D01*
X-46403Y20533D01*
X-45980Y19625D01*
X-45405Y18804D01*
X-44696Y18095D01*
X-43875Y17520D01*
X-42967Y17097D01*
X-41998Y16837D01*
X-41000Y16750D01*
X-40001Y16837D01*
X-39033Y17097D01*
X-38125Y17520D01*
X-37304Y18095D01*
X-36595Y18804D01*
X-36020Y19625D01*
X-35597Y20533D01*
X-35337Y21501D01*
X-35250Y22500D01*
X46750D02*
X46663Y23498D01*
X46403Y24467D01*
X45980Y25375D01*
X45405Y26196D01*
X44696Y26905D01*
X43875Y27480D01*
X42967Y27903D01*
X41998Y28163D01*
X41000Y28250D01*
X40001Y28163D01*
X39033Y27903D01*
X38125Y27480D01*
X37304Y26905D01*
X36595Y26196D01*
X36020Y25375D01*
X35597Y24467D01*
X35337Y23498D01*
X35250Y22500D01*
X35337Y21501D01*
X35597Y20533D01*
X36020Y19625D01*
X36595Y18804D01*
X37304Y18095D01*
X38125Y17520D01*
X39033Y17097D01*
X40001Y16837D01*
X41000Y16750D01*
X41998Y16837D01*
X42967Y17097D01*
X43875Y17520D01*
X44696Y18095D01*
X45405Y18804D01*
X45980Y19625D01*
X46403Y20533D01*
X46663Y21501D01*
X46750Y22500D01*
M02*
