G04 Layer_Color=32768*
%FSLAX25Y25*%
%MOIN*%
G70*
G01*
G75*
%ADD83C,0.00394*%
G54D83*
X-80500Y-84370D02*
Y-80630D01*
X-82370Y-82500D02*
X-78630D01*
X-86602Y-79547D02*
X-74398D01*
X-86602Y-85453D02*
X-74398D01*
X-86602D02*
Y-79547D01*
X-74398Y-85453D02*
Y-79547D01*
X-66000Y-84370D02*
Y-80630D01*
X-67870Y-82500D02*
X-64130D01*
X-72102Y-85453D02*
X-59898D01*
X-72102Y-79547D02*
X-59898D01*
Y-85453D02*
Y-79547D01*
X-72102Y-85453D02*
Y-79547D01*
X-66000Y-71870D02*
Y-68130D01*
X-67870Y-70000D02*
X-64130D01*
X-72102Y-72953D02*
X-59898D01*
X-72102Y-67047D02*
X-59898D01*
Y-72953D02*
Y-67047D01*
X-72102Y-72953D02*
Y-67047D01*
X-80500Y-71870D02*
Y-68130D01*
X-82370Y-70000D02*
X-78630D01*
X-86602Y-67047D02*
X-74398D01*
X-86602Y-72953D02*
X-74398D01*
X-86602D02*
Y-67047D01*
X-74398Y-72953D02*
Y-67047D01*
X-66000Y-49870D02*
Y-46130D01*
X-67870Y-48000D02*
X-64130D01*
X-72102Y-45047D02*
X-59898D01*
X-72102Y-50953D02*
X-59898D01*
X-72102D02*
Y-45047D01*
X-59898Y-50953D02*
Y-45047D01*
X-66000Y-58870D02*
Y-55130D01*
X-67870Y-57000D02*
X-64130D01*
X-72102Y-54047D02*
X-59898D01*
X-72102Y-59953D02*
X-59898D01*
X-72102D02*
Y-54047D01*
X-59898Y-59953D02*
Y-54047D01*
X23327Y-39154D02*
Y4154D01*
X-23327Y-39154D02*
Y4154D01*
Y-39154D02*
X23327D01*
X-23327Y4154D02*
X23327D01*
X-1969Y-17500D02*
X1969D01*
X0Y-19468D02*
Y-15531D01*
X-16457Y-47969D02*
Y-44032D01*
X-18425Y-46000D02*
X-14488D01*
X-23347Y-49740D02*
X-9567D01*
X-23347Y-42260D02*
X-9567D01*
Y-49740D02*
Y-42260D01*
X-23347Y-49740D02*
Y-42260D01*
X-32469Y0D02*
X-28532D01*
X-30500Y-1969D02*
Y1969D01*
X-26760Y-6890D02*
Y6890D01*
X-34240Y-6890D02*
Y6890D01*
X-26760D01*
X-34240Y-6890D02*
X-26760D01*
X-12028Y-99252D02*
X-2972D01*
X-12028Y-80748D02*
X-2972D01*
X-12028Y-99252D02*
Y-80748D01*
X-2972Y-99252D02*
Y-80748D01*
X-7500Y-91969D02*
Y-88032D01*
X-9469Y-90000D02*
X-5531D01*
X27563Y-33543D02*
X35437D01*
X27563Y-19764D02*
X35437D01*
X27563Y-33543D02*
Y-19764D01*
X35437Y-33543D02*
Y-19764D01*
X31500Y-28622D02*
Y-24685D01*
X29531Y-26654D02*
X33468D01*
X-34969Y-115043D02*
X-31032D01*
X-33000Y-117012D02*
Y-113075D01*
X-36740Y-121933D02*
Y-108153D01*
X-29260Y-121933D02*
Y-108153D01*
X-36740Y-121933D02*
X-29260D01*
X-36740Y-108153D02*
X-29260D01*
X-30000Y-81968D02*
Y-78031D01*
X-31969Y-80000D02*
X-28032D01*
X-36890Y-83740D02*
X-23110D01*
X-36890Y-76260D02*
X-23110D01*
Y-83740D02*
Y-76260D01*
X-36890Y-83740D02*
Y-76260D01*
X-81968Y-52500D02*
X-78031D01*
X-80000Y-54469D02*
Y-50532D01*
X-83740Y-59390D02*
Y-45610D01*
X-76260Y-59390D02*
Y-45610D01*
X-83740Y-59390D02*
X-76260D01*
X-83740Y-45610D02*
X-76260D01*
X88032Y-63500D02*
X91969D01*
X90000Y-65469D02*
Y-61532D01*
X86260Y-70390D02*
Y-56610D01*
X93740Y-70390D02*
Y-56610D01*
X86260Y-70390D02*
X93740D01*
X86260Y-56610D02*
X93740D01*
X-36890Y-87323D02*
X-23110D01*
X-36890Y-102677D02*
X-23110D01*
Y-87323D01*
X-36890Y-102677D02*
Y-87323D01*
X-30000Y-96969D02*
Y-93032D01*
X-31969Y-95000D02*
X-28032D01*
X-87323Y-59390D02*
Y-45610D01*
X-102677Y-59390D02*
Y-45610D01*
Y-59390D02*
X-87323D01*
X-102677Y-45610D02*
X-87323D01*
X-96969Y-52500D02*
X-93032D01*
X-95000Y-54469D02*
Y-50532D01*
X-21437Y-146390D02*
X-13563D01*
X-21437Y-132610D02*
X-13563D01*
X-21437Y-146390D02*
Y-132610D01*
X-13563Y-146390D02*
Y-132610D01*
X-17500Y-141469D02*
Y-137531D01*
X-19468Y-139500D02*
X-15531D01*
X68703Y-131032D02*
X75073Y-126404D01*
X60603Y-119884D02*
X66974Y-115256D01*
X60603Y-119884D02*
X68703Y-131032D01*
X66974Y-115256D02*
X75073Y-126404D01*
X66681Y-121552D02*
X68995Y-124737D01*
X66246Y-124301D02*
X69431Y-121987D01*
X132600Y-65625D02*
X135034Y-58136D01*
X119495Y-61367D02*
X121929Y-53878D01*
X119495Y-61367D02*
X132600Y-65625D01*
X121929Y-53878D02*
X135034Y-58136D01*
X125392Y-59143D02*
X129137Y-60360D01*
X126656Y-61624D02*
X127873Y-57879D01*
X143416Y32338D02*
X145849Y24849D01*
X130311Y28080D02*
X132744Y20591D01*
X145849Y24849D01*
X130311Y28080D02*
X143416Y32338D01*
X136208Y25856D02*
X139952Y27073D01*
X137472Y28337D02*
X138689Y24592D01*
X97018Y110460D02*
X103389Y105831D01*
X88919Y99312D02*
X95289Y94684D01*
X103389Y105831D01*
X88919Y99312D02*
X97018Y110460D01*
X94997Y100979D02*
X97311Y104164D01*
X94561Y103729D02*
X97746Y101415D01*
X13563Y146390D02*
X21437D01*
X13563Y132610D02*
X21437D01*
Y146390D01*
X13563D02*
X13563Y132610D01*
X17500Y137531D02*
Y141469D01*
X15531Y139500D02*
X19468Y139500D01*
X-75073Y126404D02*
X-68703Y131032D01*
X-66974Y115256D02*
X-60603Y119884D01*
X-68703Y131032D02*
X-60603Y119884D01*
X-75073Y126404D02*
X-66974Y115256D01*
X-68995Y124737D02*
X-66681Y121552D01*
X-69431Y121987D02*
X-66246Y124301D01*
X-135034Y58136D02*
X-132600Y65625D01*
X-121929Y53878D02*
X-119495Y61367D01*
X-132600Y65625D02*
X-119495Y61367D01*
X-135034Y58136D02*
X-121929Y53878D01*
X-129137Y60360D02*
X-125392Y59143D01*
X-127873Y57879D02*
X-126656Y61624D01*
X-145849Y-24849D02*
X-143416Y-32338D01*
X-132744Y-20591D02*
X-130311Y-28080D01*
X-145849Y-24849D02*
X-132744Y-20591D01*
X-143416Y-32338D02*
X-130311Y-28080D01*
X-139952Y-27073D02*
X-136208Y-25856D01*
X-138689Y-24592D02*
X-137472Y-28337D01*
X-103389Y-105831D02*
X-97018Y-110460D01*
X-95289Y-94684D02*
X-88919Y-99312D01*
X-103389Y-105831D02*
X-95289Y-94684D01*
X-97018Y-110460D02*
X-88919Y-99312D01*
X-97311Y-104164D02*
X-94997Y-100979D01*
X-97746Y-101415D02*
X-94561Y-103729D01*
X17539Y-138028D02*
Y-128972D01*
X36043Y-138028D02*
Y-128972D01*
X17539D02*
X36043D01*
X17539Y-138028D02*
X36043D01*
X24823Y-133500D02*
X28760D01*
X26791Y-135468D02*
Y-131532D01*
X9000Y-112969D02*
Y-109031D01*
X7032Y-111000D02*
X10968D01*
X2110Y-107260D02*
X15890D01*
X2110Y-114740D02*
X15890D01*
X2110D02*
Y-107260D01*
X15890Y-114740D02*
Y-107260D01*
X-9469Y-109500D02*
X-5531D01*
X-7500Y-111469D02*
Y-107531D01*
X-3760Y-116390D02*
Y-102610D01*
X-11240Y-116390D02*
Y-102610D01*
X-3760D01*
X-11240Y-116390D02*
X-3760D01*
X-24969Y-115043D02*
X-21032D01*
X-23000Y-117012D02*
Y-113075D01*
X-26740Y-121933D02*
Y-108153D01*
X-19260Y-121933D02*
Y-108153D01*
X-26740Y-121933D02*
X-19260D01*
X-26740Y-108153D02*
X-19260D01*
M02*
