G04 Layer_Color=32896*
%FSLAX25Y25*%
%MOIN*%
G70*
G01*
G75*
%ADD84C,0.00591*%
%ADD85C,0.00600*%
G54D84*
X-9843Y-123658D02*
X-9843Y-143342D01*
X-9843Y-123658D02*
X9843Y-123657D01*
X9843Y-143343D01*
X-9843Y-143342D02*
X9843Y-143343D01*
X64721Y-105826D02*
X76292Y-121752D01*
X64721Y-105826D02*
X80647Y-94256D01*
X92217Y-110181D01*
X76292Y-121752D02*
X92217Y-110181D01*
X114564Y-47573D02*
X133285Y-53656D01*
X114564Y-47573D02*
X120647Y-28851D01*
X139368Y-34934D01*
X133285Y-53656D02*
X139368Y-34934D01*
X120647Y28852D02*
X139368Y34934D01*
X114564Y47573D02*
X120647Y28852D01*
X114564Y47573D02*
X133285Y53656D01*
X139368Y34934D01*
X80647Y94256D02*
X92217Y110181D01*
X64721Y105826D02*
X80647Y94256D01*
X64721Y105826D02*
X76292Y121752D01*
X92217Y110181D01*
X9843Y143342D02*
X9843Y123658D01*
X-9843Y123657D02*
X9843Y123658D01*
X-9843Y143343D02*
X-9843Y123657D01*
X-9843Y143343D02*
X9843Y143342D01*
X-76292Y121752D02*
X-64721Y105826D01*
X-80647Y94256D02*
X-64721Y105826D01*
X-92217Y110181D02*
X-80647Y94256D01*
X-92217Y110181D02*
X-76292Y121752D01*
X-133285Y53656D02*
X-114564Y47573D01*
X-120647Y28851D02*
X-114564Y47573D01*
X-139368Y34934D02*
X-120647Y28851D01*
X-139368Y34934D02*
X-133285Y53656D01*
X-139368Y-34934D02*
X-120647Y-28852D01*
X-114564Y-47573D01*
X-133285Y-53656D02*
X-114564Y-47573D01*
X-139368Y-34934D02*
X-133285Y-53656D01*
X-92217Y-110181D02*
X-80647Y-94256D01*
X-64721Y-105826D01*
X-76292Y-121752D02*
X-64721Y-105826D01*
X-92217Y-110181D02*
X-76292Y-121752D01*
G54D85*
X-2500Y-133500D02*
X2500Y-133500D01*
X0Y-136000D02*
X0Y-131000D01*
X76447Y-109473D02*
X80492Y-106534D01*
X77000Y-105981D02*
X79939Y-110026D01*
X126193Y-43631D02*
X127739Y-38876D01*
X124588Y-40481D02*
X129344Y-42026D01*
X126193Y43631D02*
X127738Y38876D01*
X124588Y40481D02*
X129344Y42026D01*
X76447Y109473D02*
X80492Y106534D01*
X77000Y105981D02*
X79939Y110026D01*
X-2500Y133500D02*
X2500Y133500D01*
X-0Y131000D02*
X-0Y136000D01*
X-80492Y106534D02*
X-76447Y109473D01*
X-79939Y110026D02*
X-77000Y105981D01*
X-127739Y38876D02*
X-126193Y43631D01*
X-129344Y42026D02*
X-124588Y40481D01*
X-127738Y-38876D02*
X-126193Y-43631D01*
X-129344Y-42026D02*
X-124588Y-40481D01*
X-80492Y-106534D02*
X-76447Y-109473D01*
X-79939Y-110026D02*
X-77000Y-105981D01*
M02*
