G04 Layer_Color=8388736*
%FSLAX25Y25*%
%MOIN*%
G70*
G01*
G75*
%ADD18R,0.07087X0.05906*%
G04:AMPARAMS|DCode=19|XSize=59.06mil|YSize=70.87mil|CornerRadius=0mil|HoleSize=0mil|Usage=FLASHONLY|Rotation=126.000|XOffset=0mil|YOffset=0mil|HoleType=Round|Shape=Rectangle|*
%AMROTATEDRECTD19*
4,1,4,0.04602,-0.00306,-0.01131,-0.04472,-0.04602,0.00306,0.01131,0.04472,0.04602,-0.00306,0.0*
%
%ADD19ROTATEDRECTD19*%

G04:AMPARAMS|DCode=20|XSize=59.06mil|YSize=70.87mil|CornerRadius=0mil|HoleSize=0mil|Usage=FLASHONLY|Rotation=162.000|XOffset=0mil|YOffset=0mil|HoleType=Round|Shape=Rectangle|*
%AMROTATEDRECTD20*
4,1,4,0.03903,0.02457,0.01713,-0.04282,-0.03903,-0.02457,-0.01713,0.04282,0.03903,0.02457,0.0*
%
%ADD20ROTATEDRECTD20*%

G04:AMPARAMS|DCode=21|XSize=59.06mil|YSize=70.87mil|CornerRadius=0mil|HoleSize=0mil|Usage=FLASHONLY|Rotation=198.000|XOffset=0mil|YOffset=0mil|HoleType=Round|Shape=Rectangle|*
%AMROTATEDRECTD21*
4,1,4,0.01713,0.04282,0.03903,-0.02457,-0.01713,-0.04282,-0.03903,0.02457,0.01713,0.04282,0.0*
%
%ADD21ROTATEDRECTD21*%

G04:AMPARAMS|DCode=22|XSize=59.06mil|YSize=70.87mil|CornerRadius=0mil|HoleSize=0mil|Usage=FLASHONLY|Rotation=234.000|XOffset=0mil|YOffset=0mil|HoleType=Round|Shape=Rectangle|*
%AMROTATEDRECTD22*
4,1,4,-0.01131,0.04472,0.04602,0.00306,0.01131,-0.04472,-0.04602,-0.00306,-0.01131,0.04472,0.0*
%
%ADD22ROTATEDRECTD22*%

%ADD54R,0.04343X0.04737*%
%ADD55O,0.08871X0.03162*%
%ADD56R,0.05524X0.06312*%
%ADD57R,0.06312X0.05524*%
%ADD58R,0.07887X0.05918*%
%ADD59R,0.06706X0.05918*%
%ADD60R,0.03162X0.05328*%
%ADD61R,0.05918X0.03162*%
G04:AMPARAMS|DCode=62|XSize=67.06mil|YSize=59.18mil|CornerRadius=0mil|HoleSize=0mil|Usage=FLASHONLY|Rotation=216.000|XOffset=0mil|YOffset=0mil|HoleType=Round|Shape=Rectangle|*
%AMROTATEDRECTD62*
4,1,4,0.00973,0.04365,0.04452,-0.00423,-0.00973,-0.04365,-0.04452,0.00423,0.00973,0.04365,0.0*
%
%ADD62ROTATEDRECTD62*%

G04:AMPARAMS|DCode=63|XSize=67.06mil|YSize=59.18mil|CornerRadius=0mil|HoleSize=0mil|Usage=FLASHONLY|Rotation=252.000|XOffset=0mil|YOffset=0mil|HoleType=Round|Shape=Rectangle|*
%AMROTATEDRECTD63*
4,1,4,-0.01778,0.04103,0.03850,0.02274,0.01778,-0.04103,-0.03850,-0.02274,-0.01778,0.04103,0.0*
%
%ADD63ROTATEDRECTD63*%

G04:AMPARAMS|DCode=64|XSize=67.06mil|YSize=59.18mil|CornerRadius=0mil|HoleSize=0mil|Usage=FLASHONLY|Rotation=288.000|XOffset=0mil|YOffset=0mil|HoleType=Round|Shape=Rectangle|*
%AMROTATEDRECTD64*
4,1,4,-0.03850,0.02274,0.01778,0.04103,0.03850,-0.02274,-0.01778,-0.04103,-0.03850,0.02274,0.0*
%
%ADD64ROTATEDRECTD64*%

G04:AMPARAMS|DCode=65|XSize=67.06mil|YSize=59.18mil|CornerRadius=0mil|HoleSize=0mil|Usage=FLASHONLY|Rotation=324.000|XOffset=0mil|YOffset=0mil|HoleType=Round|Shape=Rectangle|*
%AMROTATEDRECTD65*
4,1,4,-0.04452,-0.00423,-0.00973,0.04365,0.04452,0.00423,0.00973,-0.04365,-0.04452,-0.00423,0.0*
%
%ADD65ROTATEDRECTD65*%

%ADD66R,0.05918X0.07887*%
%ADD67R,0.05524X0.03162*%
%ADD68R,0.10249X0.13792*%
%ADD69R,0.08700X0.09461*%
%ADD70R,0.06706X0.06706*%
%ADD71C,0.06706*%
%ADD72C,0.16548*%
%ADD73C,0.10446*%
%ADD74C,0.07000*%
%ADD75R,0.07000X0.07000*%
%ADD76C,0.07700*%
%ADD77R,0.07700X0.07700*%
%ADD78C,0.10249*%
%ADD79C,0.04000*%
%ADD80C,0.05800*%
G54D18*
X6299Y-123854D02*
D03*
X-6299Y-123854D02*
D03*
X-6299Y-143146D02*
D03*
X6299Y-143146D02*
D03*
X-6299Y123854D02*
D03*
X6299Y123854D02*
D03*
X6299Y143146D02*
D03*
X-6299Y143146D02*
D03*
G54D19*
X77896Y-96498D02*
D03*
X67704Y-103903D02*
D03*
X79043Y-119510D02*
D03*
X89235Y-112105D02*
D03*
X-77896Y96498D02*
D03*
X-67704Y103903D02*
D03*
X-79043Y119510D02*
D03*
X-89235Y112105D02*
D03*
G54D20*
X119739Y-32282D02*
D03*
X115846Y-44264D02*
D03*
X134193Y-50225D02*
D03*
X138086Y-38243D02*
D03*
X-119739Y32282D02*
D03*
X-115846Y44264D02*
D03*
X-134193Y50225D02*
D03*
X-138086Y38243D02*
D03*
G54D21*
X115846Y44264D02*
D03*
X119739Y32282D02*
D03*
X138086Y38244D02*
D03*
X134193Y50225D02*
D03*
X-115846Y-44264D02*
D03*
X-119739Y-32282D02*
D03*
X-138086Y-38244D02*
D03*
X-134193Y-50225D02*
D03*
G54D22*
X67704Y103903D02*
D03*
X77896Y96498D02*
D03*
X89235Y112105D02*
D03*
X79043Y119510D02*
D03*
X-67704Y-103903D02*
D03*
X-77896Y-96498D02*
D03*
X-89235Y-112105D02*
D03*
X-79043Y-119510D02*
D03*
G54D54*
X-83846Y-82500D02*
D03*
X-77153D02*
D03*
X-62653D02*
D03*
X-69346D02*
D03*
X-62653Y-70000D02*
D03*
X-69346D02*
D03*
X-83846D02*
D03*
X-77153D02*
D03*
X-69346Y-48000D02*
D03*
X-62653D02*
D03*
X-69346Y-57000D02*
D03*
X-62653D02*
D03*
G54D55*
X18307Y-35000D02*
D03*
Y-30000D02*
D03*
Y-25000D02*
D03*
Y-20000D02*
D03*
Y-15000D02*
D03*
Y-10000D02*
D03*
Y-5000D02*
D03*
Y0D02*
D03*
X-18307Y-35000D02*
D03*
Y-30000D02*
D03*
Y-25000D02*
D03*
Y-20000D02*
D03*
Y-15000D02*
D03*
Y-10000D02*
D03*
Y-5000D02*
D03*
Y0D02*
D03*
G54D56*
X-12913Y-46000D02*
D03*
X-20000D02*
D03*
X-26457Y-80000D02*
D03*
X-33543D02*
D03*
X5457Y-111000D02*
D03*
X12543D02*
D03*
G54D57*
X-30500Y3543D02*
D03*
Y-3543D02*
D03*
X-33000Y-118587D02*
D03*
Y-111500D02*
D03*
X-80000Y-56043D02*
D03*
Y-48957D02*
D03*
X90000Y-67043D02*
D03*
Y-59957D02*
D03*
X-7500Y-105957D02*
D03*
Y-113043D02*
D03*
X-23000Y-118587D02*
D03*
Y-111500D02*
D03*
G54D58*
X-7500Y-95709D02*
D03*
Y-84291D02*
D03*
G54D59*
X31500Y-30000D02*
D03*
Y-23307D02*
D03*
X-17500Y-142847D02*
D03*
Y-136153D02*
D03*
X17500Y142847D02*
D03*
X17500Y136153D02*
D03*
G54D60*
X-26260Y-90571D02*
D03*
X-33740D02*
D03*
X-30000Y-99429D02*
D03*
G54D61*
X-90866Y-56240D02*
D03*
Y-48760D02*
D03*
X-99134Y-52500D02*
D03*
G54D62*
X69805Y-125852D02*
D03*
X65871Y-120437D02*
D03*
X-69805Y125852D02*
D03*
X-65871Y120437D02*
D03*
G54D63*
X130447Y-60786D02*
D03*
X124082Y-58717D02*
D03*
X-130447Y60786D02*
D03*
X-124082Y58717D02*
D03*
G54D64*
X141263Y27498D02*
D03*
X134897Y25430D02*
D03*
X-141263Y-27498D02*
D03*
X-134897Y-25430D02*
D03*
G54D65*
X98121Y105279D02*
D03*
X94187Y99864D02*
D03*
X-98121Y-105279D02*
D03*
X-94187Y-99864D02*
D03*
G54D66*
X21083Y-133500D02*
D03*
X32500D02*
D03*
G54D67*
X30118Y-116260D02*
D03*
Y-120000D02*
D03*
Y-123740D02*
D03*
X19882D02*
D03*
Y-120000D02*
D03*
Y-116260D02*
D03*
G54D68*
X25681Y-63500D02*
D03*
X-1681D02*
D03*
G54D69*
X5900Y-90000D02*
D03*
X29500D02*
D03*
G54D70*
X-90000Y65000D02*
D03*
X-75000Y55000D02*
D03*
G54D71*
X-90000D02*
D03*
Y45000D02*
D03*
Y35000D02*
D03*
Y25000D02*
D03*
Y15000D02*
D03*
X-75000Y25000D02*
D03*
Y35000D02*
D03*
Y45000D02*
D03*
X58500Y66500D02*
D03*
Y86500D02*
D03*
X-58000Y66500D02*
D03*
Y86500D02*
D03*
X58500Y56500D02*
D03*
Y76500D02*
D03*
Y96500D02*
D03*
X-58000Y76500D02*
D03*
Y96500D02*
D03*
G54D72*
X-115000Y-83000D02*
D03*
X115000D02*
D03*
Y83000D02*
D03*
X-115000D02*
D03*
G54D73*
X0Y18543D02*
D03*
Y96890D02*
D03*
G54D74*
X72000Y-48500D02*
D03*
Y-58500D02*
D03*
X-67500Y-17500D02*
D03*
X-97500D02*
D03*
G54D75*
X72000Y-68500D02*
D03*
G54D76*
X45000Y-133500D02*
D03*
Y-93500D02*
D03*
Y-103500D02*
D03*
Y-113500D02*
D03*
Y-73500D02*
D03*
Y-63500D02*
D03*
Y-53500D02*
D03*
Y6500D02*
D03*
Y-3500D02*
D03*
Y-13500D02*
D03*
Y-23500D02*
D03*
Y-33500D02*
D03*
Y-43500D02*
D03*
X-45000Y-133500D02*
D03*
Y-93500D02*
D03*
Y-103500D02*
D03*
Y-113500D02*
D03*
Y-83500D02*
D03*
Y-73500D02*
D03*
Y-63500D02*
D03*
Y6500D02*
D03*
Y-3500D02*
D03*
Y-13500D02*
D03*
Y-23500D02*
D03*
Y-33500D02*
D03*
Y-43500D02*
D03*
G54D77*
X45000Y-123500D02*
D03*
Y-83500D02*
D03*
X-45000Y-123500D02*
D03*
Y-53500D02*
D03*
G54D78*
X62500Y29500D02*
D03*
Y3500D02*
D03*
X80500D02*
D03*
Y29500D02*
D03*
G54D79*
X4500Y-118000D02*
D03*
X-26346Y-136153D02*
D03*
X-53500Y-70000D02*
D03*
X-57000Y-82500D02*
D03*
X26000Y-15000D02*
D03*
X-26000Y-10000D02*
D03*
X31500Y-16500D02*
D03*
X15000Y-133500D02*
D03*
X12543Y-105043D02*
D03*
X-500Y-99500D02*
D03*
X-15000Y-151000D02*
D03*
Y-84500D02*
D03*
Y-106000D02*
D03*
X-90866Y-42866D02*
D03*
X-90000Y-70000D02*
D03*
Y-76346D02*
D03*
G54D80*
X117500Y-56500D02*
D03*
X128000Y23000D02*
D03*
X113500Y51000D02*
D03*
X90000Y94500D02*
D03*
X62000Y108500D02*
D03*
X-14500Y124000D02*
D03*
X84000Y-92000D02*
D03*
X61500Y-115000D02*
D03*
X-84500Y92000D02*
D03*
X-117500Y56500D02*
D03*
X-122500Y24500D02*
D03*
X-128000Y-23000D02*
D03*
X-113000Y-52000D02*
D03*
X-90000Y-94000D02*
D03*
X-61000Y-109000D02*
D03*
X113500Y30000D02*
D03*
X132000Y57000D02*
D03*
X73000Y124000D02*
D03*
X122000Y-25000D02*
D03*
X140500Y-31000D02*
D03*
X107500Y-41500D02*
D03*
X95000Y-107500D02*
D03*
X63500Y-98500D02*
D03*
X-74000Y-91500D02*
D03*
X-131500Y-57500D02*
D03*
X-113000Y-30000D02*
D03*
X14354Y-143146D02*
D03*
X73000Y90000D02*
D03*
X26346Y136153D02*
D03*
X15854Y123854D02*
D03*
X-61500Y108500D02*
D03*
X-59500Y125000D02*
D03*
X-95000Y107500D02*
D03*
X-14000Y143000D02*
D03*
X-140500Y31000D02*
D03*
X-109500Y42000D02*
D03*
M02*
